<svg width="126" height="150" viewBox="0 0 126 150" fill="none" xmlns="http://www.w3.org/2000/svg">
<path d="M11.4961 64.62C12.8236 62.88 14.9024 61.71 16.6305 61.23C20.9134 60.03 25.6721 59.58 29.9048 61.35C36.5169 64.11 35.1394 73.95 35.7405 80.76C36.0411 84.24 36.0912 88.05 37.1681 91.32C38.3703 94.95 37.7191 98.16 35.0142 100.77C32.9855 102.72 30.2805 103.47 27.6758 103.41C24.7955 103.35 20.162 104.73 17.7075 102.66C14.2261 99.72 13.5749 93.18 12.6482 88.59C11.421 82.56 10.5945 76.44 10.1937 70.26C10.1186 69.15 10.0685 68.04 10.319 66.99C10.5945 66.09 10.9702 65.28 11.4961 64.62Z" fill="#707070"/>
<path d="M21.8401 103.98C20.2622 103.98 18.7595 103.71 17.6825 102.81C14.702 100.29 13.7753 95.3099 12.9739 90.8999C12.8236 90.0899 12.6984 89.3399 12.5481 88.6199C11.3208 82.5899 10.4943 76.4399 10.0936 70.2599C10.0184 69.0599 9.96835 67.9799 10.2439 66.9299C10.4693 66.0299 10.87 65.2199 11.421 64.5299C12.5982 62.9699 14.5517 61.6499 16.6306 61.0799C21.815 59.6099 26.2983 59.6699 29.98 61.1999C35.3649 63.4499 35.5402 70.3199 35.7155 76.3799C35.7656 77.9399 35.7906 79.3799 35.9159 80.7599C35.966 81.4799 36.0411 82.2299 36.0912 82.9799C36.2916 85.7999 36.4919 88.7099 37.3435 91.2899C38.5958 95.0699 37.8444 98.3099 35.1645 100.92C33.3111 102.72 30.6813 103.65 27.7509 103.59C26.8242 103.59 25.9226 103.65 24.9959 103.77C23.9439 103.86 22.867 103.98 21.8401 103.98ZM23.6684 60.3299C21.3141 60.3599 18.9598 60.7199 16.6806 61.3799C14.6519 61.9499 12.7484 63.2099 11.6214 64.7099C11.1205 65.3699 10.7197 66.1499 10.5194 66.9899C10.2689 67.9799 10.319 69.0299 10.3941 70.1999C10.7949 76.3799 11.6214 82.4999 12.8486 88.4999C12.9989 89.2199 13.1492 89.9699 13.2744 90.7799C14.0759 95.0999 14.9525 100.02 17.8578 102.45C19.5609 103.89 22.4161 103.62 24.9458 103.35C25.9476 103.26 26.8994 103.14 27.7259 103.17C30.6061 103.23 33.1608 102.3 34.9641 100.56C37.5439 98.0399 38.2451 94.9499 37.068 91.3199C36.2164 88.7099 35.991 85.7699 35.7906 82.9199C35.7405 82.1699 35.6905 81.4199 35.6153 80.6999C35.4901 79.3199 35.465 77.8499 35.415 76.2899C35.2647 70.3499 35.0894 63.5999 29.8798 61.4399C27.8761 60.6899 25.7723 60.2999 23.6684 60.3299Z" fill="#707070"/>
<path d="M16.4052 77.1599C16.305 77.1599 16.2299 77.0399 16.2299 76.9499C16.2299 76.8899 16.8811 70.1999 16.2299 66.8399C15.9043 65.0399 15.4284 64.3799 15.0778 64.1399C14.9275 64.0199 14.7772 63.9899 14.6019 64.0199C14.5268 64.0499 14.4266 63.9899 14.4015 63.8999C14.3765 63.8099 14.4266 63.6899 14.5017 63.6599C14.7522 63.5999 15.0026 63.6299 15.228 63.8099C15.8041 64.1999 16.2549 65.1899 16.5555 66.7799C17.2067 70.1999 16.5805 76.7399 16.5555 77.0099C16.5555 77.0999 16.4803 77.1599 16.4052 77.1599Z" fill="white"/>
<path d="M52.8469 61.59C52.9471 59.55 53.3478 57.51 54.0241 55.62C54.1243 55.35 54.3497 54.99 54.5751 55.14C54.4499 56.01 54.3246 56.88 54.1744 57.75C55.5268 56.67 56.704 55.32 57.6307 53.73C57.7058 53.58 57.8311 53.43 57.9563 53.34C58.1066 53.25 58.2819 53.31 58.357 53.46C58.3821 53.61 58.357 53.79 58.2819 53.91C57.8811 54.75 57.4303 55.56 56.9044 56.31C57.5806 55.14 58.2819 53.91 59.3338 53.22C59.2336 54.6 58.8078 55.89 58.1066 57L59.7846 54.78C59.9349 54.57 60.1854 54.36 60.3607 54.54C60.536 54.72 60.4108 55.05 60.3106 55.26L59.1585 57.33C59.7596 56.7 60.3607 56.13 61.0119 55.56C60.9117 56.82 60.0852 57.84 59.2336 58.59C58.3821 59.34 57.3802 59.94 56.6789 60.9C56.2532 61.53 55.9025 62.19 55.602 62.91" fill="white"/>
<path d="M55.5768 63.0899C55.5517 63.0899 55.5267 63.0899 55.5016 63.0599C55.4265 62.9999 55.4014 62.9099 55.4515 62.8199C56.0276 61.2299 57.0545 59.9099 58.3318 59.0699C58.5823 58.8599 58.8578 58.6499 59.1082 58.4399C60.0099 57.6599 60.5609 56.8199 60.7613 55.9799C60.2353 56.4599 59.7344 56.9399 59.2335 57.4499C59.1834 57.5099 59.0832 57.5099 59.0331 57.4499C58.983 57.3899 58.983 57.2999 59.008 57.2399L60.1602 55.1699C60.2603 54.9899 60.3355 54.7499 60.2603 54.6899C60.1852 54.6299 60.0099 54.7499 59.8847 54.9299L58.2066 57.1499C58.1565 57.2099 58.0563 57.2399 58.0062 57.1799C57.9561 57.1199 57.9311 56.9999 57.9812 56.9399C58.6073 55.9799 59.008 54.8399 59.1583 53.6399C58.7325 53.9999 58.3318 54.4199 58.0062 54.8999C57.7057 55.4699 57.3801 55.9799 57.0294 56.4899C56.9793 56.5499 56.8791 56.5799 56.8291 56.5199C56.7539 56.4599 56.7539 56.3699 56.804 56.2799C57.1046 55.7399 57.4051 55.1999 57.7808 54.6899C57.9311 54.4199 58.0563 54.1499 58.1815 53.8799C58.2316 53.7899 58.2817 53.6699 58.2567 53.6099C58.2567 53.5799 58.2316 53.5799 58.2066 53.5499C58.1565 53.5199 58.1064 53.5199 58.0563 53.5499C57.9561 53.6399 57.8559 53.7599 57.7808 53.8799C56.8291 55.4699 55.6519 56.8499 54.2994 57.9599C54.2493 57.9899 54.1742 57.9899 54.1241 57.9599C54.074 57.9299 54.049 57.8399 54.049 57.7799C54.1742 56.9699 54.2994 56.1899 54.4247 55.3799C54.3245 55.4699 54.2243 55.6199 54.1992 55.7399C53.523 57.5999 53.1473 59.6099 53.0471 61.6499C53.0471 61.7399 52.972 61.8299 52.8969 61.8299C52.8217 61.8299 52.7466 61.7399 52.7466 61.6499C52.8468 59.5799 53.2475 57.5399 53.9237 55.6199C53.9989 55.3499 54.1492 55.1399 54.3746 55.0199C54.4747 54.9599 54.6 54.9899 54.7002 55.0499C54.7502 55.0799 54.8003 55.1699 54.7753 55.2299C54.6751 55.9499 54.5499 56.6999 54.4497 57.4199C55.6519 56.3999 56.7038 55.1399 57.5554 53.6999C57.6556 53.5199 57.7808 53.3399 57.9311 53.2499C58.0563 53.1899 58.2066 53.1599 58.3318 53.2199C58.432 53.2499 58.5071 53.3399 58.5572 53.4599C58.5823 53.5499 58.6073 53.6699 58.5823 53.7599C58.8077 53.5199 59.0581 53.3099 59.3086 53.1299C59.3587 53.0999 59.4088 53.0999 59.4589 53.1299C59.509 53.1599 59.534 53.2199 59.534 53.3099C59.4589 54.0899 59.3086 54.8699 59.0331 55.5899L59.7093 54.6899C59.9848 54.3299 60.2854 54.2099 60.4858 54.4199C60.6861 54.6299 60.6861 54.9899 60.4607 55.3799L59.8847 56.4299C60.2103 56.0999 60.5609 55.7699 60.9115 55.4699C60.9867 55.4099 61.0618 55.4399 61.1119 55.4999C61.1369 55.5299 61.1369 55.5899 61.1369 55.6199C61.0368 56.7299 60.4106 57.8099 59.2836 58.7699C59.0331 58.9799 58.7576 59.1899 58.5071 59.3999C57.2548 60.1799 56.278 61.4699 55.727 62.9999C55.6769 63.0599 55.6269 63.0899 55.5768 63.0899Z" fill="#707070"/>
<path d="M24.3947 55.7399L25.3214 51.2699C26.3232 46.4399 27.7258 41.4299 32.1338 39.9299C33.4362 39.4799 34.7887 39.6599 35.6403 41.0699C36.5419 40.1699 37.9445 40.6499 38.8712 41.5199C40.1485 42.6899 41.0001 44.4299 41.5511 46.2599C42.5279 49.4399 42.7032 52.9199 43.8303 56.0999C38.1949 61.0799 30.1302 61.7999 23.9438 57.8399L24.3947 55.7399Z" fill="white"/>
<path d="M32.71 60.5999C29.6544 60.6299 26.6238 59.7299 23.8938 58.0199C23.8437 57.9899 23.7936 57.8999 23.8187 57.8099L24.2445 55.7099L25.1712 51.2399C26.173 46.4999 27.6006 41.3099 32.1089 39.7799C33.6116 39.2699 34.8889 39.6599 35.6904 40.8599C36.6672 40.0499 38.0447 40.5599 38.9714 41.3999C40.1235 42.4499 41.0502 44.0699 41.7014 46.2299C42.1272 47.7299 42.4778 49.2599 42.7283 50.8199C43.0539 52.5599 43.3795 54.3899 43.9806 56.0999C44.0056 56.1899 43.9806 56.2799 43.9305 56.3099C40.6745 59.0999 36.7423 60.6299 32.71 60.5999ZM24.1443 57.7499C30.2555 61.5899 38.0948 60.9299 43.68 56.0399C43.1541 54.3599 42.7283 52.6199 42.4528 50.8499C42.2023 49.3199 41.8517 47.7899 41.4259 46.3199C40.7747 44.2499 39.8981 42.6899 38.7961 41.6699C37.9195 40.8599 36.5921 40.3799 35.7656 41.2199C35.6904 41.2799 35.6153 41.2799 35.5652 41.1899C34.6385 39.6599 33.2359 39.7499 32.209 40.1099C27.8511 41.5799 26.4986 46.4699 25.4967 51.3299L24.1443 57.7499Z" fill="#707070"/>
<path d="M41.9269 61.4098C43.079 62.6698 45.6086 67.4998 47.9379 72.5098L52.7467 60.4498L56.6539 61.8298C56.6539 61.8298 53.1224 84.1498 49.641 85.0498C46.1596 85.9498 41.4009 76.0198 41.4009 76.0198L36.0662 58.5298C36.0662 58.5298 40.2238 59.4898 41.9269 61.4098Z" fill="#5B913B"/>
<path d="M35.6653 60.5999C35.6653 60.5999 40.9249 64.1399 41.9518 70.2599C42.9787 76.3799 40.975 95.1299 40.975 95.1299L27.9261 94.4999C27.9261 94.4999 30.055 72.1799 28.7777 67.3199C27.5004 62.4599 27.5504 61.1099 28.7777 60.6299C30.0049 60.1499 33.3861 57.5699 35.6653 60.5999Z" fill="white"/>
<path d="M40.9752 95.3099L27.9263 94.6499C27.8762 94.6499 27.8512 94.6199 27.8261 94.5899C27.8011 94.5599 27.776 94.4999 27.8011 94.4399C27.8261 94.1999 29.9049 72.0899 28.6526 67.3199C27.3753 62.4299 27.3753 60.9299 28.7528 60.3899C28.9532 60.2999 29.2036 60.1799 29.5042 60.0299C31.0069 59.2499 33.787 57.8099 35.7656 60.4199C36.1413 60.6899 41.1255 64.2599 42.1023 70.1999C43.1291 76.2599 41.1505 94.9199 41.1255 95.1299C41.1255 95.2499 41.0503 95.3099 40.9752 95.3099ZM28.1016 94.3199L40.85 94.9499C41.0503 93.0899 42.7534 76.0199 41.8017 70.3199C40.7999 64.3499 35.6404 60.8099 35.5903 60.7799C35.5653 60.7799 35.5653 60.7499 35.5402 60.7499C33.6868 58.2899 31.1322 59.6399 29.6044 60.4199C29.3038 60.5699 29.0534 60.7199 28.8279 60.7799C27.8011 61.1699 27.6007 62.1599 28.9281 67.2599C30.1554 71.9099 28.327 91.9799 28.1016 94.3199Z" fill="#707070"/>
<path d="M38.9214 98.3998C38.5707 88.4698 37.7693 80.4298 37.594 77.6398C37.3936 74.5498 36.7424 65.6398 36.0411 61.7098C35.1144 59.2798 35.5151 58.5898 35.5151 58.5898C35.5151 58.5898 40.6996 57.7198 42.2525 66.9898C42.7033 69.7198 43.8554 85.6498 44.9825 98.0398L38.9214 98.3998Z" fill="#5B913B"/>
<path d="M36.0661 56.9099L36.0911 61.6799C36.0911 61.6799 35.6904 64.3499 33.2609 63.5399C31.8083 63.0299 30.6311 61.7699 30.03 60.1199L30.3055 51.8399C30.3055 51.4799 30.7564 50.4299 30.7063 47.3999C33.6617 47.3399 35.9659 44.6699 35.9659 44.6699C35.9659 44.6699 36.9677 46.4999 37.4186 47.0699C37.7692 47.4899 38.0698 47.9999 38.3202 48.5099C38.7209 49.4399 38.7209 50.5799 38.6959 51.5999C38.6959 52.7999 38.5957 53.9999 38.3953 55.1999C38.0197 57.4799 36.0661 56.9099 36.0661 56.9099Z" fill="white"/>
<path d="M34.1124 63.8998C33.8118 63.8998 33.5113 63.8398 33.2107 63.7498C31.708 63.2398 30.4807 61.9498 29.8796 60.2098C29.8796 60.1798 29.8796 60.1498 29.8796 60.1498C29.8796 60.1498 30.1551 51.9298 30.1551 51.8698C30.1802 51.7198 30.1802 51.5998 30.2303 51.4498C30.3555 50.9098 30.606 49.7398 30.5559 47.4298C30.5559 47.3698 30.5559 47.3398 30.606 47.3098C30.631 47.2798 30.6811 47.2498 30.7062 47.2498C33.5614 47.1898 35.8406 44.6098 35.8656 44.5798C35.8906 44.5498 35.9407 44.5198 35.9908 44.5198C36.0409 44.5198 36.066 44.5498 36.091 44.6098C36.091 44.6398 37.0928 46.4398 37.5437 46.9798C37.8943 47.4298 38.2199 47.9098 38.4704 48.4498C38.8962 49.4098 38.8711 50.6398 38.8711 51.6298C38.8711 52.8598 38.7709 54.0598 38.5706 55.2598C38.4954 55.8898 38.1949 56.4298 37.7691 56.7898C37.2932 57.1198 36.7673 57.2398 36.2413 57.1198L36.2663 61.6798C36.1411 62.4298 35.7905 63.0898 35.2645 63.5098C34.8888 63.7798 34.5131 63.8998 34.1124 63.8998ZM30.1802 60.1198C30.7562 61.7098 31.9084 62.9098 33.2859 63.3898C34.0122 63.6298 34.6133 63.5698 35.0641 63.2398C35.515 62.8798 35.8155 62.3098 35.9157 61.6798L35.8906 56.9398C35.8906 56.8798 35.9157 56.8198 35.9407 56.7898C35.9658 56.7598 36.0159 56.7298 36.066 56.7598C36.066 56.7598 36.9175 56.9998 37.5687 56.4898C37.9444 56.1898 38.1949 55.7098 38.245 55.1998C38.4453 54.0298 38.5455 52.8298 38.5455 51.6298C38.5706 50.6398 38.5706 49.5298 38.1949 48.6298C37.9444 48.1198 37.6439 47.6398 37.2932 47.2198C36.9175 46.7398 36.1912 45.4498 35.9157 44.9698C35.3897 45.5398 33.361 47.4598 30.8314 47.5798C30.8815 48.8998 30.7562 50.2198 30.4807 51.5098C30.4557 51.6298 30.4306 51.7198 30.4306 51.8398C30.4557 51.8698 30.4557 51.9898 30.1802 60.1198Z" fill="#707070"/>
<path d="M36.0411 59.28C36.0411 59.28 34.4131 59.37 33.3863 58.08C32.3594 56.79 32.5097 55.5 32.5097 55.5C32.5097 55.5 34.2629 56.91 36.0662 56.97L36.0411 59.28Z" fill="#707070"/>
<path d="M35.966 59.4299C35.6153 59.4299 34.2378 59.3399 33.261 58.1699C32.184 56.8199 32.3343 55.4999 32.3343 55.4399C32.3343 55.3799 32.3844 55.3199 32.4094 55.3199C32.4595 55.2899 32.5096 55.2899 32.5597 55.3199C32.5848 55.3499 34.2879 56.6999 36.0411 56.7599C36.1162 56.7599 36.1914 56.8499 36.1914 56.9399L36.1663 59.2799C36.1663 59.3699 36.1162 59.4599 36.016 59.4599L35.966 59.4299ZM32.6349 55.7699C32.6849 56.5799 32.9855 57.3599 33.4864 57.9299C34.2879 58.9499 35.4901 59.0699 35.8908 59.0699L35.9159 57.0599C34.4882 56.9999 33.1358 56.1299 32.6349 55.7699Z" fill="#707070"/>
<path d="M34.6385 50.0698C34.6385 50.0698 35.9158 52.3498 35.6152 52.7698C35.3147 53.1898 34.4631 52.8898 34.4631 52.8898" fill="white"/>
<path d="M35.0391 53.1599C34.8387 53.1599 34.6384 53.1299 34.438 53.0699C34.3629 53.0399 34.3128 52.9499 34.3378 52.8599C34.3629 52.7699 34.438 52.7099 34.5131 52.7399C34.7135 52.7999 35.3396 52.9199 35.54 52.6499C35.6402 52.4699 35.1894 51.2999 34.5382 50.1599C34.4881 50.0699 34.5131 49.9799 34.5883 49.9199C34.6634 49.8599 34.7385 49.8899 34.7886 49.9799C35.1894 50.6999 36.091 52.4399 35.7654 52.8899C35.54 53.0699 35.2896 53.1599 35.0391 53.1599Z" fill="#707070"/>
<path d="M37.2833 50.1579C37.4077 50.152 37.5015 49.9325 37.4928 49.6676C37.4841 49.4028 37.3762 49.1928 37.2518 49.1986C37.1275 49.2045 37.0337 49.424 37.0423 49.6888C37.051 49.9537 37.1589 50.1637 37.2833 50.1579Z" fill="#707070"/>
<path d="M33.7283 49.7989C33.8527 49.793 33.9459 49.56 33.9365 49.2785C33.9271 48.9971 33.8186 48.7738 33.6942 48.7797C33.5698 48.7857 33.4766 49.0187 33.486 49.3001C33.4954 49.5816 33.6039 49.8049 33.7283 49.7989Z" fill="#707070"/>
<path d="M35.5152 54.0898L34.4883 53.7598C34.4883 53.7598 34.2879 55.5598 34.864 55.7098C35.4401 55.8598 35.5152 54.0898 35.5152 54.0898Z" fill="white"/>
<path d="M34.939 55.9199C34.914 55.9199 34.8639 55.9199 34.8389 55.9199C34.1626 55.7399 34.3379 53.9999 34.363 53.7899C34.363 53.7299 34.388 53.6999 34.4131 53.6699C34.4381 53.6399 34.4882 53.6399 34.5383 53.6399L35.5652 53.9399C35.6403 53.9699 35.6904 54.0299 35.6654 54.1199C35.6654 54.2399 35.5902 55.4399 35.1895 55.7999C35.1144 55.8899 35.0392 55.9199 34.939 55.9199ZM34.6135 53.9999C34.5634 54.5699 34.5884 55.4699 34.889 55.5599C34.9391 55.5599 34.9891 55.5599 35.0142 55.5299C35.2146 55.3499 35.3147 54.6899 35.3648 54.2399L34.6135 53.9999Z" fill="#707070"/>
<path d="M31.6329 49.4099C31.3574 48.5699 30.4808 48.2699 29.8046 48.4199C29.3538 48.5099 28.9781 48.9299 28.8779 49.4399C28.8278 49.7699 28.8278 50.0999 28.8779 50.4299C28.953 51.0299 29.1284 51.6299 29.3788 52.1699C29.504 52.4399 29.6543 52.6799 29.8797 52.8599C30.1552 53.0699 30.5059 53.0399 30.7563 52.7999" fill="white"/>
<path d="M30.2556 53.19C30.0802 53.19 29.93 53.13 29.8047 53.04C29.5793 52.86 29.3789 52.59 29.2537 52.29C29.0033 51.72 28.8279 51.12 28.7278 50.49C28.6777 50.13 28.6777 49.77 28.7278 49.44C28.853 48.84 29.2537 48.36 29.7797 48.27C30.5311 48.09 31.4828 48.45 31.7834 49.38C31.8084 49.47 31.7583 49.59 31.6832 49.62C31.608 49.65 31.5329 49.62 31.4828 49.53C31.2574 48.78 30.4559 48.51 29.8047 48.66C29.404 48.75 29.0784 49.08 29.0033 49.56C28.9532 49.86 28.9532 50.19 29.0033 50.49C29.0784 51.09 29.2537 51.63 29.4791 52.17C29.5793 52.41 29.7296 52.62 29.93 52.8C30.1554 52.95 30.4559 52.92 30.6563 52.74C30.7314 52.68 30.8316 52.71 30.8567 52.8C30.9067 52.89 30.8817 53.01 30.8066 53.04C30.6563 53.1 30.4559 53.19 30.2556 53.19Z" fill="#707070"/>
<path d="M22.1155 98.4C22.5914 96 22.942 93.6 23.1674 91.14C23.5932 85.47 23.1674 66.21 24.1692 62.4C24.6451 60.57 29.8046 59.22 29.8046 59.22C29.8046 59.22 34.7136 90.45 34.7386 98.88L22.1155 98.4Z" fill="#5B913B"/>
<path d="M30.8566 82.2C32.0588 81.96 33.1608 81.27 34.2878 80.7C34.7387 80.46 35.2145 80.28 35.6654 80.1C36.2164 79.89 36.7423 79.5 37.3434 79.47C37.7191 79.47 37.6189 80.07 37.4687 80.31C37.3184 80.52 37.1681 80.7 36.9678 80.82C36.6171 81.09 35.8908 81.63 35.7655 82.11C36.2164 82.26 36.6922 82.17 37.1431 82.26C37.644 82.32 38.1449 82.41 38.6208 82.53C39.0966 82.65 39.5725 82.77 40.0484 82.95C40.4491 83.1 40.925 83.13 41.3007 83.34C41.4009 83.4 41.5011 83.49 41.5011 83.61C41.5261 84.06 40.6745 84 40.4742 83.97L36.5921 83.49C37.9445 83.64 39.297 83.94 40.5994 84.36C40.7246 84.39 40.8499 84.45 40.925 84.57C41.2506 85.17 39.8731 85.2 39.7228 85.2C38.9965 85.23 38.2952 85.2 37.5689 85.14L39.3221 85.47C39.7228 85.56 40.0985 85.62 40.4742 85.74C40.6996 85.77 40.9 85.89 41.0502 86.07C41.0753 86.1 41.0753 86.13 41.0753 86.16C41.0753 86.22 41.0252 86.25 41.0001 86.25C40.6745 86.4 40.3239 86.49 39.9733 86.46C39.2469 86.49 38.5206 86.43 37.8193 86.28L39.9733 86.55C40.1736 86.55 40.3489 86.64 40.4992 86.79C40.5243 86.94 40.4742 87.12 40.374 87.18C40.2738 87.27 40.1235 87.3 39.9983 87.3C39.1968 87.42 38.4204 87.3 37.6189 87.3C36.7423 87.3 35.8908 87.24 35.0392 87.12C33.3361 86.88 31.7081 86.28 30.1553 85.38" fill="white"/>
<path d="M39.1719 87.6C38.9214 87.6 38.671 87.6 38.4205 87.57C38.1701 87.54 37.8945 87.5399 37.6441 87.5399C36.7675 87.5399 35.8909 87.48 35.0393 87.33C33.3362 87.09 31.6581 86.49 30.1053 85.56C30.0301 85.53 30.0051 85.41 30.0301 85.32C30.0552 85.2299 30.1554 85.2 30.2305 85.23C31.7583 86.13 33.3863 86.7 35.0644 86.97C35.9159 87.09 36.7675 87.18 37.619 87.15C37.8945 87.15 38.145 87.15 38.4205 87.18C38.9465 87.21 39.4724 87.21 39.9734 87.15C40.0735 87.15 40.1737 87.12 40.2739 87.06C40.324 87.03 40.349 86.97 40.349 86.91C40.2238 86.82 40.0986 86.76 39.9483 86.76L38.9465 86.6399C38.5708 86.6099 38.1701 86.5499 37.7944 86.4899C37.7192 86.4599 37.6691 86.4 37.6691 86.28C37.6691 86.19 37.7443 86.13 37.8445 86.13L38.9715 86.28C39.3222 86.31 39.6478 86.31 39.9984 86.31C40.299 86.31 40.6245 86.25 40.9001 86.13C40.7748 86.01 40.6245 85.95 40.4492 85.92C40.0735 85.8 39.6728 85.74 39.2971 85.65L37.569 85.32C37.4938 85.29 37.4437 85.23 37.4437 85.11C37.4437 85.02 37.5189 84.93 37.594 84.96C38.2953 85.02 39.0216 85.05 39.7229 85.0199C40.4242 84.99 40.7999 84.84 40.8249 84.75C40.8249 84.72 40.8249 84.69 40.7999 84.66C40.7247 84.57 40.6496 84.54 40.5494 84.51C39.247 84.09 37.9196 83.7899 36.5671 83.6399C36.492 83.6399 36.4419 83.55 36.4419 83.46C36.4419 83.46 36.4419 83.46 36.4419 83.43C36.4419 83.34 36.517 83.25 36.5922 83.28L40.4743 83.76C40.7999 83.79 41.2006 83.7599 41.3258 83.6399C41.3509 83.6399 41.3509 83.61 41.3509 83.58C41.3509 83.55 41.3258 83.52 41.2257 83.46C40.9752 83.34 40.7247 83.2499 40.4492 83.1899C40.299 83.1599 40.1487 83.1299 39.9984 83.0699C39.5225 82.9199 39.0467 82.77 38.5708 82.65C38.0949 82.53 37.594 82.44 37.0931 82.38C36.9428 82.35 36.7675 82.35 36.5922 82.35C36.2916 82.35 35.9911 82.32 35.6905 82.23C35.6154 82.2 35.5653 82.1099 35.5903 81.9899C35.7156 81.5099 36.2916 81.06 36.6923 80.73L36.8927 80.58C37.043 80.46 37.1933 80.34 37.2934 80.16C37.3686 80.01 37.3936 79.83 37.3686 79.65C37.3686 79.62 37.3435 79.6199 37.2934 79.6199C36.9178 79.6499 36.5421 79.77 36.2165 79.98C36.0412 80.07 35.8408 80.1599 35.6655 80.2199C35.1896 80.3999 34.7388 80.5799 34.2879 80.8199L33.6618 81.15C32.7601 81.69 31.8084 82.0799 30.8066 82.3199C30.7314 82.3199 30.6563 82.2599 30.6312 82.1699C30.6062 82.0799 30.6813 81.99 30.7565 81.96C31.7082 81.72 32.66 81.3299 33.5366 80.7899C33.7369 80.6699 33.9373 80.58 34.1627 80.46C34.6135 80.22 35.0894 80.01 35.5653 79.83C35.7406 79.77 35.9159 79.6799 36.0912 79.5899C36.4669 79.3799 36.8677 79.23 37.2684 79.2C37.4187 79.2 37.5439 79.2899 37.619 79.4399C37.7192 79.7399 37.6691 80.0699 37.5189 80.3399C37.3936 80.5499 37.2183 80.73 37.043 80.85L36.8426 81.03C36.492 81.27 36.1914 81.57 35.941 81.93C36.1664 81.96 36.3668 81.9899 36.5922 81.9899C36.7675 81.9899 36.9428 81.9899 37.1181 82.0199C37.619 82.0799 38.12 82.1699 38.6209 82.2899C39.1218 82.4099 39.5977 82.53 40.0735 82.71C40.2238 82.77 40.349 82.8 40.4993 82.83C40.7999 82.89 41.0754 82.98 41.3258 83.13C41.4761 83.19 41.6013 83.37 41.6264 83.55C41.6264 83.67 41.6013 83.79 41.5262 83.88C41.3008 84.15 40.7498 84.1199 40.5244 84.1199L40.6496 84.15C40.8249 84.18 40.9501 84.3 41.0503 84.45C41.1255 84.57 41.1505 84.75 41.0754 84.9C40.9501 85.2 40.4993 85.35 39.7229 85.35C39.9984 85.41 40.2489 85.47 40.5244 85.56C40.7748 85.62 41.0002 85.74 41.1756 85.95C41.2256 86.01 41.2507 86.1 41.2507 86.16C41.2507 86.28 41.1756 86.37 41.0754 86.43C40.9001 86.52 40.7247 86.58 40.5244 86.61C40.5494 86.64 40.5745 86.67 40.5995 86.67C40.5995 86.7 40.6245 86.7 40.6245 86.73C40.6997 86.97 40.6245 87.21 40.4492 87.36C40.324 87.45 40.1737 87.51 40.0234 87.51C39.773 87.6 39.4724 87.6 39.1719 87.6Z" fill="#707070"/>
<path d="M24.1943 62.3699C24.1943 62.3699 14.0758 84.3899 17.7075 85.8899C19.1852 86.4899 32.4845 87.4199 32.4845 87.4199L33.8871 80.5499L23.9188 78.7199L24.1943 62.3699Z" fill="#5B913B"/>
<path d="M37.2684 52.4698C35.966 52.4698 34.9141 51.2098 34.9141 49.6498C34.9141 48.0898 35.966 46.8298 37.2684 46.8298C38.5708 46.8298 39.6227 48.0898 39.6227 49.6498C39.5976 51.2098 38.5708 52.4698 37.2684 52.4698ZM37.2684 47.1898C36.1413 47.1898 35.2146 48.2998 35.2146 49.6498C35.2146 50.9998 36.1413 52.1098 37.2684 52.1098C38.3954 52.1098 39.3221 50.9998 39.3221 49.6498C39.2971 48.2998 38.3954 47.2198 37.2684 47.1898Z" fill="#707070"/>
<path d="M32.7349 52.0199C31.4325 52.0199 30.3806 50.7599 30.3806 49.2299C30.3806 47.6999 31.4325 46.4099 32.7099 46.4099C34.0123 46.4099 35.0642 47.6699 35.0642 49.1999C35.0642 50.7599 34.0123 52.0199 32.7349 52.0199ZM32.7349 46.7399C31.6079 46.7399 30.6812 47.8499 30.6812 49.1999C30.6812 50.5499 31.6079 51.6599 32.7349 51.6599C33.862 51.6599 34.7887 50.5499 34.7887 49.1999C34.7636 47.8499 33.862 46.7399 32.7349 46.7399Z" fill="#707070"/>
<path d="M33.8871 80.7299H33.862L23.8938 78.8999C23.8437 78.8999 23.8186 78.8699 23.7936 78.8099C23.7686 78.7799 23.7686 78.7199 23.7686 78.6599L26.173 66.2699C26.198 66.1799 26.2731 66.1199 26.3483 66.1499C26.4234 66.1799 26.4735 66.2699 26.4485 66.3599L24.0941 78.5699L33.8871 80.3699C33.9622 80.3999 34.0123 80.4899 34.0123 80.5799C34.0374 80.6699 33.9622 80.7299 33.8871 80.7299Z" fill="#707070"/>
<path d="M43.7803 83.9699C43.7052 83.9699 43.63 83.9099 43.63 83.8199L42.0522 68.2499C41.7516 65.2199 41.7516 65.2199 41.8768 65.1599L41.9269 65.5199L41.9019 65.3399H42.0522C42.0772 65.6099 43.8805 83.5799 43.9055 83.7599C43.9306 83.8799 43.8805 83.9699 43.7803 83.9699Z" fill="#707070"/>
<path d="M46.0093 76.86C45.9842 76.86 45.9592 76.86 45.9341 76.83C45.859 76.77 45.834 76.68 45.859 76.59L51.8199 62.31C51.845 62.22 51.9451 62.16 52.0203 62.22C52.0954 62.28 52.1455 62.37 52.0954 62.46C52.0954 62.46 52.0954 62.49 52.0704 62.49L46.1095 76.8C46.1345 76.83 46.0844 76.86 46.0093 76.86Z" fill="#707070"/>
<path d="M30.531 74.3099C30.4809 74.3099 30.4559 74.2799 30.4058 74.2499L27.3752 70.0799C27.3251 70.0199 27.3251 69.8999 27.3752 69.8399L29.3538 67.4399L27.4003 65.2199C27.3502 65.1599 27.3502 65.0699 27.3752 64.9799C27.7008 64.4099 29.3037 61.4999 29.429 61.3499C29.4791 61.2899 29.5793 61.2899 29.6293 61.3499C29.6794 61.4099 29.6794 61.5299 29.6293 61.5899C29.5292 61.7399 28.4271 63.6899 27.6758 65.0399L29.6544 67.2599C29.6794 67.2899 29.7045 67.3499 29.7045 67.3799C29.7045 67.4399 29.6794 67.4699 29.6544 67.4999L27.6758 69.9299L30.6312 73.9799C30.6813 74.0399 30.6813 74.1599 30.6061 74.2199C30.6061 74.2799 30.556 74.3099 30.531 74.3099Z" fill="#707070"/>
<path d="M37.9696 73.29C37.9445 73.29 37.9195 73.29 37.8694 73.26C37.7943 73.2 37.7943 73.08 37.8444 73.02L40.2237 68.94L37.7442 66.57C37.7191 66.54 37.6941 66.48 37.6941 66.45C37.6941 66.39 37.7191 66.36 37.7442 66.33L39.2469 64.44L36.6421 61.59C36.5921 61.53 36.567 61.41 36.6421 61.32C36.6922 61.26 36.7924 61.23 36.8676 61.32L39.5976 64.29C39.6226 64.32 39.6477 64.38 39.6477 64.41C39.6477 64.47 39.6226 64.5 39.5976 64.53L38.0948 66.42L40.5744 68.76C40.6244 68.82 40.6495 68.94 40.5994 69L38.1449 73.2C38.0698 73.26 38.0447 73.29 37.9696 73.29Z" fill="#707070"/>
<path d="M78.2181 85.26C77.3666 85.86 76.2395 85.47 75.438 84.81C74.0605 83.64 73.1588 81.78 73.0587 79.77C73.0086 79.11 73.1088 78.42 73.3592 77.82C75.5632 73.32 81.7245 82.8 78.2181 85.26Z" fill="white"/>
<path d="M77.2666 85.7098C76.5653 85.6798 75.9141 85.4098 75.338 84.9298C73.9104 83.7298 73.0088 81.8398 72.8835 79.7398C72.8084 79.0198 72.9336 78.3298 73.2091 77.6998C73.71 76.7098 74.4364 76.2898 75.2879 76.4698C77.0161 76.8598 78.9697 79.5898 79.3454 82.1398C79.5708 83.6098 79.1701 84.7498 78.2684 85.3798C77.9678 85.6198 77.6172 85.7398 77.2666 85.7098ZM74.8872 76.7998C74.2861 76.7998 73.8102 77.1598 73.4596 77.8798C73.2091 78.4498 73.109 79.0798 73.1841 79.7098C73.3093 81.6898 74.1609 83.4898 75.5134 84.6298C76.2397 85.2298 77.3167 85.6798 78.1432 85.0798C79.145 84.3598 79.1951 83.1298 79.0699 82.1998C78.7192 79.8298 76.8408 77.1598 75.2629 76.8298C75.1377 76.7998 75.0124 76.7998 74.8872 76.7998Z" fill="#707070"/>
<path d="M62.0134 86.7899L77.3164 86.58L70.2285 64.95L54.9004 65.16L62.0134 86.7899Z" fill="white"/>
<path d="M62.0135 86.97C61.9634 86.97 61.8883 86.91 61.8632 86.85L54.7753 65.22C54.7502 65.16 54.7753 65.1 54.8003 65.04C54.8254 64.98 54.8755 64.95 54.9255 64.95L70.2536 64.74C70.3037 64.74 70.3538 64.8 70.4039 64.86L77.4919 86.49C77.5169 86.55 77.4919 86.61 77.4668 86.64C77.4418 86.7 77.3917 86.73 77.3416 86.73L62.0135 86.97ZM55.1259 65.34L62.1137 86.61L77.1162 86.4L70.1284 65.13L55.1259 65.34Z" fill="#707070"/>
<path d="M62.5395 86.2499L77.8426 86.0399L70.7546 64.4099L55.4265 64.6199L62.5395 86.2499Z" fill="white"/>
<path d="M62.5394 86.43C62.4893 86.43 62.4142 86.37 62.3891 86.31L55.3011 64.68C55.2761 64.59 55.3011 64.47 55.3763 64.44C55.4013 64.44 55.4013 64.44 55.4264 64.44L70.7544 64.23C70.8045 64.23 70.8797 64.29 70.9047 64.35L77.9927 85.98C78.0177 86.04 78.0177 86.1 77.9677 86.13C77.9426 86.19 77.8925 86.22 77.8424 86.22L62.5394 86.43ZM55.6518 64.8L62.6396 86.07L77.6421 85.86L70.6543 64.59L55.6518 64.8Z" fill="#707070"/>
<path d="M61.1118 75.6299C61.0117 75.6299 60.9365 75.5698 60.9365 75.4498C60.9365 75.3298 60.9866 75.2398 61.0868 75.2398C61.1118 75.2398 61.1118 75.2398 61.1369 75.2398L72.0819 75.0898C72.1821 75.0898 72.2573 75.1498 72.2573 75.2698C72.2573 75.3898 72.2072 75.4799 72.107 75.4799C72.0819 75.4799 72.0819 75.4799 72.0569 75.4799L61.1118 75.6299Z" fill="#F5F5F5"/>
<path d="M61.8383 77.8198C61.7381 77.8198 61.688 77.6998 61.688 77.6098C61.688 77.5198 61.7631 77.4598 61.8383 77.4298L72.7583 77.2798C72.8334 77.2798 72.9085 77.3398 72.9336 77.4598C72.9336 77.4598 72.9336 77.4598 72.9336 77.4898C72.9336 77.6098 72.8584 77.6998 72.7833 77.6998L61.8383 77.8198Z" fill="#F5F5F5"/>
<path d="M62.5646 80.04C62.4644 80.04 62.4143 79.92 62.4143 79.83C62.4143 79.74 62.4894 79.68 62.5646 79.65L73.5096 79.5C73.6098 79.5 73.6599 79.62 73.6599 79.71C73.6599 79.8 73.5848 79.86 73.5096 79.89L62.5646 80.04Z" fill="#F5F5F5"/>
<path d="M67.2731 82.1699C67.1729 82.1699 67.1228 82.0499 67.1228 81.9599C67.1228 81.8699 67.1979 81.8099 67.2731 81.7799L74.2108 81.6899C74.311 81.6899 74.3611 81.7799 74.3611 81.8699C74.3611 81.9899 74.2859 82.0799 74.2108 82.0799L67.2731 82.1699Z" fill="#F5F5F5"/>
<path d="M60.5358 73.86C60.4607 73.86 60.4106 73.8 60.3856 73.74L58.0313 66.54C58.0062 66.45 58.0313 66.33 58.1314 66.3C58.1565 66.3 58.1565 66.3 58.1815 66.3L64.1424 66.21C64.2176 66.21 64.2677 66.27 64.2927 66.33L66.647 73.53C66.6721 73.59 66.647 73.65 66.622 73.71C66.5969 73.77 66.5469 73.8 66.4968 73.8L60.5358 73.86ZM58.4069 66.66L60.636 73.47L66.2463 73.38L64.0172 66.57L58.4069 66.66Z" fill="#F5F5F5"/>
<path d="M69.6776 68.5499H69.3019L69.0014 67.6499H68.7258L68.5505 68.5499H68.1247L68.3502 67.5899C68.1999 67.5599 68.0496 67.4999 67.9494 67.4099C67.8242 67.3199 67.7491 67.1699 67.699 67.0199C67.6489 66.9299 67.6489 66.8099 67.6739 66.7199C67.699 66.6299 67.724 66.5699 67.7741 66.5399C67.8492 66.4799 67.8993 66.4499 67.9995 66.4499C68.0997 66.4199 68.1748 66.4199 68.275 66.4199H68.9763L69.6776 68.5499ZM68.9012 67.3199L68.7008 66.7499H68.4003C68.3502 66.7499 68.3001 66.7499 68.25 66.7499C68.1999 66.7499 68.1748 66.7799 68.1247 66.7799C68.0997 66.8099 68.0747 66.8399 68.0496 66.8699C68.0246 66.9299 68.0496 66.9599 68.0496 67.0199C68.0747 67.0799 68.0997 67.1399 68.1498 67.1999C68.1999 67.2299 68.2249 67.2599 68.275 67.2899C68.3251 67.3199 68.3752 67.3199 68.4253 67.3199H68.5756H68.9012Z" fill="#F5F5F5"/>
<path d="M67.8492 68.58L66.4466 68.61L66.3214 68.28L67.3733 68.25L67.173 67.68H66.2212L66.096 67.35L67.0477 67.32L66.8724 66.78L65.8706 66.81L65.7454 66.48L67.0978 66.45L67.8492 68.58Z" fill="#F5F5F5"/>
<path d="M68.6257 69.2698C68.6758 69.1798 68.751 69.1198 68.8511 69.0898C68.9513 69.0598 69.0515 69.0298 69.1517 69.0298C69.2519 69.0298 69.3521 69.0298 69.4522 69.0598C69.5524 69.0898 69.6526 69.1198 69.7277 69.1798C69.8029 69.2398 69.9031 69.2998 69.9532 69.3898C70.0283 69.4798 70.0784 69.5698 70.1034 69.6898C70.1535 69.7798 70.1535 69.8998 70.1285 69.9898C70.1034 70.0498 70.0533 70.1398 70.0033 70.1698C69.9532 70.2298 69.878 70.2598 69.8029 70.2898C69.7278 70.3198 69.6526 70.3498 69.6025 70.3798C69.5524 70.4098 69.5023 70.4398 69.4522 70.4998C69.4272 70.5598 69.4022 70.6198 69.4522 70.6798C69.4773 70.7398 69.5023 70.7698 69.5274 70.7998C69.5524 70.8298 69.6025 70.8598 69.6526 70.8898C69.7027 70.9198 69.7278 70.9198 69.7778 70.9498C69.8279 70.9498 69.878 70.9498 69.9031 70.9798C69.9782 70.9798 70.0533 70.9498 70.1034 70.9198C70.1535 70.8898 70.2036 70.8298 70.2287 70.7398L70.6044 71.0098C70.5543 71.1298 70.4791 71.1898 70.3789 71.2498C70.2788 71.3098 70.1535 71.3098 70.0283 71.3098C69.9281 71.3098 69.8279 71.3098 69.7277 71.2798C69.6276 71.2498 69.5274 71.2198 69.4522 71.1598C69.3771 71.0998 69.2769 71.0398 69.2268 70.9498C69.1517 70.8598 69.1016 70.7698 69.0766 70.6498C69.0265 70.5598 69.0265 70.4398 69.0515 70.3498C69.0766 70.2598 69.1016 70.1998 69.1767 70.1698C69.2268 70.1098 69.302 70.0798 69.3771 70.0498C69.4522 70.0198 69.5274 69.9898 69.5775 69.9598C69.6276 69.9298 69.6777 69.8998 69.7277 69.8698C69.7528 69.8098 69.7778 69.7498 69.7528 69.6898C69.7278 69.6298 69.7027 69.5998 69.6777 69.5698C69.6526 69.5398 69.6025 69.5098 69.5775 69.4798C69.5274 69.4498 69.5023 69.4498 69.4522 69.4498C69.4022 69.4498 69.3771 69.4498 69.327 69.4498C69.2519 69.4498 69.2018 69.4798 69.1266 69.4798C69.0766 69.5098 69.0265 69.5398 69.0014 69.5998L68.6257 69.2698Z" fill="#F5F5F5"/>
<path d="M66.5469 69.1498H66.9226L67.3734 70.4998C67.3984 70.5598 67.4235 70.6198 67.4485 70.6498C67.4736 70.7098 67.5237 70.7698 67.5737 70.7998C67.6238 70.8598 67.699 70.8898 67.7491 70.9198C67.8242 70.9498 67.8993 70.9798 67.9745 70.9498C68.0496 70.9498 68.1248 70.9498 68.1749 70.8898C68.25 70.8298 68.3001 70.7098 68.3001 70.6198C68.3001 70.5598 68.275 70.4998 68.275 70.4398L67.8242 69.0898H68.1999L68.6507 70.4398C68.7008 70.5598 68.7008 70.6798 68.7008 70.7998C68.7008 70.8898 68.6758 70.9798 68.6006 71.0698C68.5505 71.1598 68.4754 71.2198 68.4003 71.2498C68.3001 71.2798 68.1999 71.3098 68.0997 71.3098C67.9745 71.3098 67.8743 71.2798 67.7491 71.2498C67.6489 71.2198 67.5237 71.1598 67.4235 71.0998C67.3233 71.0398 67.2482 70.9498 67.173 70.8298C67.0979 70.7398 67.0478 70.6198 66.9977 70.4698L66.5469 69.1498Z" fill="#F5F5F5"/>
<path d="M71.3307 73.5299H71.0552L70.5793 72.0899L70.5543 73.5299H70.3539L69.4022 72.1199L69.878 73.5599H69.6025L69.0515 71.8499H69.5023L70.3539 73.0499L70.404 71.8499H70.8548L71.3307 73.5299Z" fill="#F5F5F5"/>
<path d="M69.1766 73.5599L68.0495 73.5899L67.9494 73.3199H68.8009L68.6256 72.8399H67.8742L67.774 72.5699H68.5254L68.4002 72.1499H67.5987L67.4985 71.8799H68.6006L69.1766 73.5599Z" fill="#F5F5F5"/>
<path d="M60.6111 71.67C60.2855 71.19 60.3856 70.65 60.3856 70.14C60.3856 69.63 60.1853 69.09 60.1602 68.61C60.1352 67.95 60.561 67.29 61.0118 66.96C61.3123 66.72 61.7131 66.72 62.0136 66.99C62.1639 66.69 62.5646 66.72 62.8902 66.87C63.316 67.11 63.6917 67.47 63.9672 67.92C64.3178 68.43 64.5683 69.03 64.6935 69.69C64.7937 70.29 64.6935 70.95 64.393 71.46C64.0674 71.91 63.6166 72.18 63.1407 72.24C62.6398 72.3 62.1389 72.3 61.6379 72.21C61.3123 72.18 61.0118 72.06 60.7613 71.82C60.6862 71.76 60.6361 71.73 60.6111 71.67Z" fill="white"/>
<path d="M62.5396 72.48C62.214 72.48 61.9135 72.45 61.5879 72.39C61.2372 72.36 60.8866 72.21 60.6111 71.97C60.561 71.91 60.5359 71.88 60.4859 71.82C60.2604 71.46 60.1603 70.98 60.2103 70.53C60.2103 70.41 60.2103 70.29 60.2103 70.17C60.1853 69.93 60.1603 69.66 60.1102 69.42C60.0601 69.15 60.01 68.88 60.01 68.61C59.9849 67.83 60.4608 67.11 60.9367 66.78C61.2623 66.54 61.663 66.51 61.9886 66.75C62.2892 66.54 62.6398 66.51 62.9403 66.69C63.3912 66.93 63.7919 67.32 64.0674 67.8C64.4431 68.34 64.6936 68.97 64.8188 69.66C64.944 70.32 64.8188 71.04 64.4681 71.58C64.1175 72.06 63.6416 72.36 63.1157 72.42C62.9403 72.45 62.74 72.48 62.5396 72.48ZM60.7363 71.55C60.7614 71.58 60.7864 71.64 60.8365 71.67C61.0619 71.88 61.3374 71.97 61.638 72C62.1138 72.09 62.6147 72.12 63.0906 72.03C63.5414 71.97 63.9422 71.73 64.2427 71.31C64.5182 70.86 64.6184 70.26 64.5182 69.72C64.4181 69.09 64.1676 68.52 63.842 68.04C63.5915 67.62 63.2409 67.29 62.8402 67.05C62.5897 66.93 62.2892 66.9 62.1639 67.11C62.1389 67.17 62.0888 67.2 62.0637 67.2C62.0137 67.2 61.9636 67.2 61.9385 67.17C61.7131 66.93 61.3625 66.93 61.112 67.14C60.7113 67.41 60.3356 68.01 60.3356 68.61C60.3606 68.85 60.3857 69.09 60.4358 69.33C60.4859 69.6 60.5359 69.87 60.5359 70.14C60.5359 70.26 60.5359 70.41 60.5359 70.53C60.5109 70.86 60.586 71.25 60.7363 71.55Z" fill="#F5F5F5"/>
<path d="M63.5664 72.09L63.5915 72.12C63.6416 72.18 63.6917 72.27 63.7668 72.39C63.9922 72.75 64.1926 73.17 64.3679 73.59L65.5951 73.56H65.9207C65.8707 73.44 65.8206 73.35 65.7955 73.29C65.2695 72.21 64.6935 71.76 64.2427 71.58C64.0173 71.49 63.7668 71.46 63.5163 71.52C63.4662 71.52 63.4162 71.55 63.3661 71.55C63.3661 71.58 63.341 71.73 63.5664 72.09Z" fill="#F5F5F5"/>
<path d="M63.3911 71.1299L63.7918 72.3899C63.7918 72.3899 63.892 73.1099 63.2158 73.0799C62.79 73.0499 62.3893 72.8099 62.1138 72.4199L61.5127 70.2299C61.4876 69.8099 61.3874 69.4199 61.2622 69.0299C61.7381 68.8499 62.1639 68.4599 62.4143 67.9199C62.4143 67.9199 62.815 68.3399 62.9904 68.4299C63.1156 68.5199 63.2408 68.6099 63.341 68.7299C63.4913 68.9699 63.6165 69.2099 63.6917 69.5099C63.7918 69.8399 63.867 70.1699 63.9171 70.4999C63.9421 71.1299 63.3911 71.1299 63.3911 71.1299Z" fill="white"/>
<path d="M63.2407 73.26H63.1906C62.7147 73.23 62.2639 72.96 61.9634 72.54C61.9634 72.51 61.9383 72.51 61.9383 72.48C61.4875 70.86 61.3873 70.41 61.3623 70.29C61.3623 70.23 61.3372 70.2 61.3372 70.14C61.3122 69.78 61.237 69.42 61.1118 69.09C61.0868 69.03 61.0868 68.97 61.1118 68.94C61.1368 68.88 61.1619 68.85 61.212 68.85C61.6628 68.67 62.0135 68.31 62.2639 67.83C62.289 67.77 62.339 67.74 62.3641 67.74C62.4142 67.74 62.4643 67.74 62.4893 67.77C62.5895 67.89 62.9151 68.19 63.0403 68.28C63.1656 68.37 63.3158 68.49 63.416 68.61C63.5913 68.85 63.7166 69.15 63.7917 69.48C63.8919 69.81 63.967 70.14 64.0171 70.47C64.0422 70.68 64.0171 70.89 63.8919 71.04C63.8168 71.16 63.7166 71.22 63.5913 71.25L63.9169 72.27C64.0171 72.69 63.8168 73.11 63.4661 73.2C63.391 73.26 63.3158 73.29 63.2407 73.26ZM62.2389 72.3C62.4893 72.63 62.84 72.84 63.2157 72.87C63.3409 72.9 63.4661 72.84 63.5663 72.75C63.6164 72.66 63.6414 72.54 63.6414 72.42L63.2657 71.19C63.2407 71.13 63.2407 71.07 63.2908 71.01C63.3158 70.95 63.3659 70.92 63.416 70.92C63.5162 70.92 63.6164 70.89 63.6915 70.8C63.7416 70.71 63.7416 70.62 63.7416 70.53C63.6915 70.2 63.6164 69.9 63.5413 69.6C63.4912 69.33 63.391 69.09 63.2407 68.91C63.1405 68.79 63.0403 68.7 62.9151 68.61C62.8149 68.52 62.6146 68.34 62.4643 68.22C62.2138 68.64 61.8882 68.97 61.4875 69.15C61.5877 69.45 61.6378 69.78 61.6879 70.08C61.6879 70.11 61.6879 70.14 61.6879 70.14L62.2389 72.3Z" fill="#F5F5F5"/>
<path d="M61.3123 69.12C61.1871 69.03 61.0368 69.03 60.9116 69.12C60.8114 69.27 60.8114 69.48 60.8866 69.63C60.9617 69.84 61.0368 70.02 61.1621 70.2C61.2122 70.32 61.3123 70.41 61.3875 70.47C61.4877 70.53 61.5878 70.53 61.663 70.44" fill="white"/>
<path d="M61.5377 70.7098C61.4626 70.7098 61.3875 70.6798 61.3123 70.6498C61.1871 70.5598 61.0869 70.4698 61.0118 70.3198C60.8866 70.1398 60.7864 69.9298 60.7112 69.6898C60.611 69.4498 60.6361 69.1498 60.7864 68.9698C60.9617 68.8198 61.1871 68.8198 61.3875 68.9398C61.4626 68.9998 61.4877 69.1198 61.4376 69.2098C61.3875 69.2998 61.2873 69.3298 61.2122 69.2698C61.1621 69.2098 61.0619 69.2098 61.0118 69.2398C60.9867 69.2698 60.9867 69.4198 61.0118 69.5398C61.0619 69.7198 61.1621 69.8998 61.2622 70.0798C61.3123 70.1698 61.3624 70.2298 61.4376 70.2898C61.4626 70.3198 61.4877 70.3198 61.5377 70.3198C61.5878 70.2298 61.688 70.2298 61.7632 70.2898C61.8383 70.3498 61.8383 70.4698 61.7882 70.5598C61.7381 70.6498 61.6379 70.7098 61.5377 70.7098Z" fill="#F5F5F5"/>
<path d="M60.7361 72.8399C60.7611 73.1099 60.8112 73.3799 60.8613 73.6499H61.8882H62.5143C62.314 73.1699 62.1387 72.7199 62.0134 72.4199C61.9884 72.3599 61.9633 72.2999 61.9383 72.2399C61.8381 72.0299 61.788 71.9099 61.788 71.9099C61.6127 71.9699 61.4624 72.0599 61.3121 72.1499C61.0617 72.2999 60.7361 72.5699 60.7361 72.8399Z" fill="#F5F5F5"/>
<path d="M63.6042 69.5975C63.7961 69.3146 63.7342 68.8735 63.4658 68.6123C63.1975 68.351 62.8244 68.3686 62.6324 68.6514C62.4405 68.9343 62.5025 69.3754 62.7708 69.6366C63.0392 69.8978 63.4123 69.8803 63.6042 69.5975Z" fill="white"/>
<path d="M63.1906 70.0198C62.8399 70.0198 62.5143 69.7498 62.3891 69.3598C62.314 69.1198 62.339 68.8798 62.4142 68.6398C62.5143 68.4298 62.6646 68.2798 62.865 68.2498C63.2908 68.1598 63.6915 68.4298 63.8418 68.9098C63.9169 69.1498 63.8919 69.3898 63.8167 69.6298C63.7166 69.8398 63.5663 69.9898 63.3659 70.0198C63.3158 70.0198 63.2407 70.0198 63.1906 70.0198ZM62.6897 69.2098C62.7899 69.5098 63.0153 69.6598 63.2908 69.5998C63.391 69.5698 63.4661 69.5098 63.5162 69.3898C63.5663 69.2698 63.5663 69.1198 63.5412 68.9998C63.441 68.6998 63.2156 68.5498 62.9401 68.6098C62.8399 68.6398 62.7648 68.6998 62.7147 68.8198C62.6646 68.9398 62.6646 69.0898 62.6897 69.2098Z" fill="#F5F5F5"/>
<path d="M62.394 69.7994C62.5859 69.5165 62.524 69.0754 62.2556 68.8142C61.9873 68.5529 61.6142 68.5705 61.4222 68.8533C61.2303 69.1362 61.2922 69.5773 61.5606 69.8385C61.8289 70.0997 62.2021 70.0822 62.394 69.7994Z" fill="white"/>
<path d="M61.9884 70.2298C61.6378 70.2298 61.3122 69.9598 61.187 69.5698C61.1118 69.3298 61.1369 69.0898 61.212 68.8498C61.3122 68.6398 61.4625 68.4898 61.6628 68.4598C62.0886 68.3698 62.4894 68.6398 62.6396 69.1198C62.7148 69.3598 62.6897 69.5998 62.6146 69.8398C62.5144 70.0498 62.3641 70.1998 62.1638 70.2298C62.0886 70.2298 62.0385 70.2298 61.9884 70.2298ZM61.4875 69.4198C61.5877 69.7198 61.8131 69.8698 62.0886 69.8098C62.1888 69.7798 62.2639 69.7198 62.314 69.5998C62.3641 69.4798 62.3641 69.3298 62.3391 69.2098C62.2389 68.9098 62.0135 68.7598 61.738 68.7898C61.6378 68.8198 61.5627 68.8798 61.5126 68.9998C61.4374 69.1798 61.4374 69.2998 61.4875 69.4198Z" fill="#F5F5F5"/>
<path d="M62.4644 69.4199C62.4644 69.4199 62.9903 69.9299 62.9402 70.0499C62.8901 70.1699 62.6647 70.1699 62.6647 70.1699" fill="white"/>
<path d="M62.6648 70.3799C62.5646 70.3799 62.4895 70.2899 62.4895 70.1699C62.4895 70.0499 62.5646 69.9899 62.6648 69.9899H62.7399C62.6398 69.8399 62.5145 69.7199 62.3893 69.5999C62.3142 69.5399 62.3142 69.4199 62.3643 69.3299C62.4143 69.2399 62.5145 69.2399 62.5897 69.2999C63.1908 69.8999 63.1407 70.0799 63.1156 70.1699C63.0155 70.3499 62.765 70.3799 62.6648 70.3799Z" fill="#F5F5F5"/>
<path d="M62.7901 70.8298C62.6899 70.8298 62.5897 70.7998 62.4895 70.7698C62.3893 70.7398 62.3392 70.6198 62.3643 70.5298C62.3893 70.4098 62.4895 70.3498 62.5647 70.3798H62.5897C62.7901 70.4698 63.0155 70.4098 63.1908 70.2298C63.2659 70.1698 63.3661 70.1698 63.4162 70.2598C63.4663 70.3498 63.4663 70.4698 63.3912 70.5298C63.2659 70.7098 63.0405 70.8298 62.7901 70.8298Z" fill="#F5F5F5"/>
<path d="M58.0312 68.9399C57.6805 68.9399 57.3549 68.6699 57.2047 68.3099L56.1277 65.0399C56.0526 64.7999 56.0526 64.5299 56.1778 64.3199C56.3281 64.1099 56.5284 63.9599 56.7789 63.9899C57.2548 63.9899 57.7056 64.3499 57.931 64.8599L58.2816 65.9099C58.3067 65.9999 58.2816 66.1199 58.1815 66.1799C58.1063 66.2099 58.0061 66.1799 57.9811 66.0599L57.6304 65.0099C57.4802 64.6199 57.1546 64.3799 56.8039 64.3799C56.6787 64.3799 56.5535 64.4399 56.4783 64.5299C56.4282 64.6499 56.4282 64.7699 56.4783 64.8599L57.5553 68.1299C57.6555 68.3699 57.8559 68.5199 58.0813 68.5199C58.1564 68.5199 58.2065 68.4899 58.2566 68.4299C58.2816 68.3699 58.2816 68.3099 58.2566 68.2499L57.38 65.6399C57.3549 65.5499 57.2798 65.5199 57.2047 65.5199L57.9811 67.8899C58.0061 67.9799 57.9811 68.0999 57.8809 68.1299C57.8058 68.1599 57.7056 68.1299 57.6555 68.0099L56.854 65.6399C56.8039 65.5199 56.829 65.3999 56.8791 65.2799C56.9542 65.1599 57.0544 65.0999 57.1546 65.0999C57.3549 65.0999 57.5553 65.2499 57.6304 65.4899L58.482 68.0999C58.5571 68.2799 58.5321 68.4899 58.457 68.6399C58.3568 68.8499 58.2065 68.9399 58.0312 68.9399Z" fill="#707070"/>
<path d="M78.8694 80.88C78.3935 79.35 77.542 78.06 76.4149 77.13C75.914 76.71 75.2377 76.23 74.6116 76.11C73.9103 75.96 73.7851 76.8 74.311 77.25L75.6886 78.36C75.7888 78.45 75.8889 78.51 75.9891 78.6C76.1394 78.78 76.1143 78.69 76.0893 78.9C75.9641 79.56 76.0142 80.28 76.1644 80.94C76.3147 81.42 76.49 81.9 76.6904 82.38" fill="white"/>
<path d="M76.7155 82.53C76.6654 82.53 76.6154 82.5 76.5903 82.44C76.3899 81.96 76.2146 81.48 76.0643 80.97C75.889 80.28 75.864 79.56 75.9892 78.87C75.9892 78.84 75.9892 78.84 75.9892 78.81L75.9141 78.75C75.864 78.69 75.7888 78.63 75.7387 78.6C75.7137 78.57 75.6636 78.54 75.6386 78.51L74.261 77.4C73.9354 77.19 73.7852 76.77 73.9104 76.35C73.9855 76.11 74.236 75.87 74.6618 75.96C75.338 76.11 76.0393 76.62 76.5152 77.01C77.6673 77.94 78.5439 79.29 79.0198 80.85C79.0448 80.94 79.0198 81.06 78.9196 81.09C78.8444 81.12 78.7443 81.09 78.7192 80.97C78.2684 79.5 77.4168 78.21 76.3398 77.31C75.889 76.95 75.2128 76.44 74.6117 76.32C74.3863 76.29 74.236 76.35 74.1859 76.5C74.1358 76.65 74.1859 76.92 74.4364 77.13L75.8139 78.24L75.9141 78.33C75.9892 78.39 76.0643 78.45 76.1395 78.51L76.2146 78.57C76.2898 78.63 76.3399 78.75 76.3148 78.87V78.96C76.2146 79.62 76.2397 80.28 76.3899 80.91C76.5402 81.39 76.6905 81.87 76.8909 82.32C76.9159 82.41 76.8909 82.5 76.8157 82.56C76.7656 82.53 76.7406 82.53 76.7155 82.53Z" fill="#707070"/>
<path d="M87.4601 93.5698H70.7295V110.04H87.4601V93.5698Z" fill="#F5F5F5"/>
<path d="M87.4602 110.22H70.7295C70.6293 110.22 70.5542 110.13 70.5542 110.04V93.5999C70.5542 93.4799 70.6293 93.3899 70.7045 93.3899H87.4351C87.5353 93.3899 87.6104 93.4799 87.6104 93.5999V110.04C87.6355 110.13 87.5603 110.22 87.4602 110.22ZM70.9048 109.83H87.3099V93.7799H70.9048V109.83Z" fill="#F5F5F5"/>
<path d="M86.5334 91.3201H72.3074V93.5701H86.5334V91.3201Z" fill="white"/>
<path d="M86.5333 93.7501H72.3073C72.2321 93.7501 72.157 93.6601 72.157 93.5701V91.3201C72.157 91.2301 72.2321 91.1401 72.3073 91.1401H86.5333C86.6084 91.1401 86.6836 91.2301 86.6836 91.3201V93.5701C86.6836 93.6601 86.6084 93.7501 86.5333 93.7501ZM72.4575 93.3901H86.383V91.5001H72.4575V93.3901Z" fill="#707070"/>
<path d="M88.6122 87.48H51.8699V91.23H88.6122V87.48Z" fill="white"/>
<path d="M88.6123 91.41H51.87C51.7949 91.41 51.7197 91.32 51.7197 91.23V87.4801C51.7197 87.3901 51.7949 87.3 51.87 87.3H88.6123C88.6874 87.3 88.7626 87.3901 88.7626 87.4801V91.23C88.7626 91.35 88.6874 91.41 88.6123 91.41ZM52.0203 91.05H88.462V87.6601H52.0203V91.05Z" fill="#707070"/>
<path d="M54.4497 87.48H14.2261V91.23H54.4497V87.48Z" fill="white"/>
<path d="M54.4496 91.41H14.226C14.1508 91.41 14.0757 91.32 14.0757 91.23V87.4801C14.0757 87.3901 14.1508 87.3 14.226 87.3H54.4496C54.5248 87.3 54.5999 87.3901 54.5999 87.4801V91.23C54.5999 91.35 54.5248 91.41 54.4496 91.41ZM14.3762 91.05H54.2994V87.6601H14.3762V91.05Z" fill="#707070"/>
<path d="M96.3514 57.1801C97.0527 57.1501 97.7289 57.0001 98.5554 56.9101C99.3068 56.8501 100.259 56.4901 100.284 55.5901C100.284 54.8101 99.5322 54.1801 99.6825 53.4601C99.7326 53.2501 99.8328 53.0701 99.958 52.9201C102.187 49.3501 101.661 44.3101 98.7558 41.5201C98.9562 41.6101 99.1816 41.3401 99.2066 41.1001C99.2066 40.8301 99.1065 40.5601 98.9562 40.3801C98.4302 39.6001 97.6538 39.1801 96.8774 38.8501C94.3728 37.8601 91.6177 37.9801 89.1132 38.8501C87.1596 39.5401 84.8303 41.3701 85.1058 44.1901C85.206 45.2101 85.8572 46.1701 86.7088 46.2301C87.1345 49.2301 88.462 51.3001 90.115 53.4601C91.217 54.9601 92.6196 56.1001 94.1724 56.7901C94.8737 57.0901 95.6251 57.2101 96.3514 57.1801Z" fill="white"/>
<path d="M96.0509 57.36C95.3997 57.36 94.7485 57.24 94.1224 56.97C92.5194 56.28 91.1169 55.11 89.9898 53.61C88.462 51.6 87.0595 49.53 86.5585 46.41C85.6569 46.26 85.0307 45.21 84.9306 44.22C84.6801 41.46 86.834 39.45 89.0631 38.67C91.743 37.74 94.5482 37.71 96.9275 38.67C97.5787 38.91 98.4804 39.36 99.0815 40.26C99.2568 40.5 99.357 40.8 99.357 41.13C99.3319 41.34 99.2568 41.52 99.1065 41.64C101.837 44.58 102.262 49.5 100.083 53.04L100.058 53.07C99.9581 53.19 99.8829 53.34 99.8328 53.52C99.7577 53.85 99.908 54.15 100.083 54.51C100.284 54.84 100.409 55.23 100.409 55.62C100.409 56.43 99.6826 57 98.5305 57.12C98.2049 57.15 97.8793 57.21 97.5787 57.24C97.1529 57.3 96.7522 57.36 96.3264 57.39L96.0509 57.36ZM93.1205 38.34C91.7681 38.34 90.4406 38.58 89.1633 39.03C87.5854 39.57 85.0057 41.28 85.2561 44.16C85.3313 45.03 85.9073 45.99 86.7088 46.02C86.7839 46.02 86.8591 46.08 86.8591 46.17C87.2598 48.96 88.3869 50.91 90.2152 53.31C91.3173 54.78 92.6697 55.89 94.2226 56.58C94.8988 56.88 95.6251 57 96.3264 56.94C96.7272 56.91 97.1279 56.85 97.5537 56.79C97.8542 56.76 98.1798 56.7 98.5054 56.67C98.831 56.64 100.058 56.43 100.083 55.56C100.058 55.23 99.9581 54.93 99.7828 54.66C99.5824 54.27 99.382 53.85 99.4822 53.37C99.5323 53.16 99.6325 52.98 99.7577 52.8L99.7828 52.77C101.937 49.29 101.436 44.37 98.6306 41.64C98.5555 41.58 98.5555 41.49 98.5806 41.4C98.6306 41.31 98.7058 41.28 98.7809 41.31C98.831 41.31 98.8561 41.31 98.9061 41.28C98.9813 41.22 99.0063 41.13 99.0314 41.04C99.0314 40.83 98.9562 40.62 98.831 40.47C98.28 39.66 97.4284 39.24 96.8273 39.03C95.6251 38.58 94.3728 38.34 93.1205 38.34Z" fill="#707070"/>
<path d="M86.0324 50.6099C86.0324 50.6099 84.2291 54.1499 84.6549 54.8399C85.0807 55.5299 86.358 54.9899 86.358 54.9899" fill="white"/>
<path d="M85.4315 55.3801C85.0809 55.4101 84.7553 55.2601 84.5299 54.9301C84.079 54.1801 85.4566 51.3301 85.9074 50.4901C85.9825 50.4301 86.0827 50.4301 86.1328 50.5201C86.1578 50.5801 86.1829 50.6401 86.1578 50.7001C85.3313 52.3501 84.5549 54.3601 84.7803 54.7201C85.0558 55.2001 85.9825 54.9601 86.3081 54.8101C86.3833 54.7801 86.4834 54.8101 86.5085 54.9301C86.5335 55.0201 86.4834 55.1401 86.4083 55.1701C86.0827 55.3201 85.7571 55.3801 85.4315 55.3801Z" fill="#707070"/>
<path d="M86.2829 46.0199C85.1058 47.2499 85.5315 49.74 85.6067 51.39C85.7069 53.67 85.8321 55.9499 86.0074 58.2599C86.1326 59.6999 89.2634 59.58 89.7893 59.13L89.4888 64.89C89.4888 64.89 91.0166 65.3099 93.4961 63.8099C95.9757 62.3099 95.9757 61.5599 95.9757 61.5599L95.5499 54.9599C95.5499 54.9599 93.4711 55.0799 92.1687 52.1699C90.8663 49.2599 90.7661 44.7 90.7661 44.7C90.7661 44.7 87.435 44.8199 86.2829 46.0199Z" fill="white"/>
<path d="M90.0648 65.13C89.8645 65.13 89.6641 65.1 89.4637 65.07C89.3886 65.04 89.3385 64.95 89.3385 64.86L89.614 59.43C88.9127 59.7 87.3849 59.73 86.5334 59.25C86.0074 58.95 85.8571 58.56 85.8321 58.26C85.6568 55.98 85.5315 53.67 85.4314 51.39C85.4314 51.12 85.4063 50.82 85.3813 50.52C85.2811 48.96 85.1308 46.98 86.1577 45.9C87.3348 44.67 90.5908 44.52 90.716 44.52C90.7661 44.52 90.8162 44.55 90.8413 44.58C90.8663 44.61 90.8914 44.67 90.8914 44.73C90.8914 44.76 90.9915 49.26 92.2939 52.08C93.5462 54.84 95.4497 54.78 95.5499 54.75C95.6501 54.75 95.7252 54.84 95.7252 54.93L96.151 61.53C96.151 61.68 96.0258 62.46 93.5713 63.96C91.9433 64.95 90.7411 65.13 90.0648 65.13ZM89.6641 64.71C90.0899 64.77 91.4424 64.83 93.421 63.6C95.6751 62.22 95.8254 61.53 95.8254 61.53L95.4247 55.14C94.8987 55.11 93.1956 54.78 92.0435 52.26C90.8663 49.68 90.6409 45.84 90.6158 44.91C89.9396 44.94 87.3599 45.18 86.4081 46.2C85.5065 47.16 85.6317 49.02 85.7319 50.49C85.7569 50.82 85.782 51.12 85.782 51.39C85.8822 53.67 86.0074 55.98 86.1827 58.23C86.2078 58.5 86.3831 58.74 86.6836 58.89C87.5853 59.4 89.3636 59.25 89.7142 58.95C89.7893 58.89 89.8895 58.92 89.9396 59.01C89.9647 59.04 89.9647 59.07 89.9647 59.13L89.6641 64.71Z" fill="#707070"/>
<path d="M86.0076 56.5199C86.0076 56.5199 87.5103 57.5399 88.2617 55.6799L86.0076 56.5199Z" fill="white"/>
<path d="M86.909 57C86.5584 57 86.2078 56.88 85.9072 56.7C85.8321 56.64 85.807 56.52 85.8571 56.43C85.9072 56.34 86.0074 56.31 86.0825 56.37C86.4582 56.61 86.884 56.67 87.3098 56.55C87.6855 56.4 87.961 56.04 88.1112 55.62C88.1613 55.53 88.2615 55.47 88.3367 55.53C88.4118 55.59 88.4619 55.68 88.4118 55.8C88.2365 56.34 87.8608 56.76 87.41 56.97C87.2346 56.97 87.0593 57 86.909 57Z" fill="#707070"/>
<path d="M89.7893 52.62C89.7893 52.17 90.0398 51.75 90.2902 51.36C90.4906 51.03 90.716 50.76 90.9665 50.49C91.267 50.22 91.6177 50.1 91.9933 50.13C92.2939 50.16 92.5694 50.34 92.7447 50.64C92.895 50.91 92.9701 51.21 92.9952 51.51C93.0954 52.86 92.369 54.24 91.1668 55.05L91.267 54.93" fill="white"/>
<path d="M91.192 55.26C91.1419 55.26 91.0918 55.23 91.0667 55.17C91.0167 55.08 91.0417 54.99 91.0918 54.9L91.192 54.78C91.217 54.75 91.2671 54.72 91.3172 54.72C92.3441 53.97 92.9702 52.71 92.87 51.51C92.87 51.24 92.7699 50.97 92.6446 50.73C92.4944 50.49 92.2439 50.34 91.9934 50.31C91.6678 50.28 91.3423 50.4 91.0918 50.64C90.8413 50.88 90.641 51.15 90.4406 51.45C90.2152 51.78 89.9647 52.2 89.9647 52.59C89.9647 52.71 89.8896 52.8 89.7894 52.8C89.6892 52.8 89.6141 52.71 89.6391 52.59C89.6391 52.05 89.9397 51.6 90.1901 51.21C90.3905 50.88 90.641 50.58 90.9165 50.31C91.2421 50.01 91.6428 49.89 92.0435 49.92C92.3942 49.95 92.6947 50.16 92.9201 50.49C93.0955 50.76 93.1956 51.12 93.1956 51.45C93.2958 52.86 92.5445 54.36 91.2922 55.17C91.2421 55.26 91.217 55.26 91.192 55.26Z" fill="#707070"/>
<path d="M89.7893 59.1301C89.7893 59.1301 91.3922 58.4401 92.1186 57.0901C92.1186 57.0901 92.1186 60.5701 89.6641 61.7101L89.7893 59.1301Z" fill="#707070"/>
<path d="M89.6641 61.8901C89.639 61.8901 89.589 61.8601 89.5639 61.8601C89.5138 61.8301 89.4888 61.7701 89.4888 61.6801L89.614 59.1001C89.614 59.0101 89.6641 58.9501 89.7142 58.9201C89.7392 58.9201 91.267 58.2601 91.9433 56.9401C91.9934 56.8501 92.0935 56.8201 92.1687 56.8801C92.2188 56.9101 92.2438 56.9701 92.2438 57.0301C92.2438 57.0601 92.2188 60.6601 89.6891 61.8301C89.7142 61.8901 89.6891 61.8901 89.6641 61.8901ZM89.9646 59.2501L89.8394 61.3801C91.3422 60.5401 91.7679 58.7101 91.8932 57.7201C91.3422 58.3801 90.691 58.9201 89.9646 59.2501Z" fill="#707070"/>
<path d="M87.1945 49.7493C87.3434 49.712 87.4022 49.3268 87.3257 48.8889C87.2493 48.4511 87.0665 48.1263 86.9176 48.1636C86.7687 48.201 86.7099 48.5862 86.7864 49.024C86.8628 49.4619 87.0455 49.7866 87.1945 49.7493Z" fill="#707070"/>
<path d="M87.4099 65.97L88.1613 62.25L98.931 60L99.2065 64.47L87.4099 65.97Z" fill="white"/>
<path d="M87.4099 66.15C87.3598 66.15 87.3097 66.12 87.2847 66.09C87.2596 66.03 87.2346 65.97 87.2596 65.91L88.011 62.19C88.0361 62.1 88.0862 62.07 88.1362 62.04L98.906 59.79C98.9561 59.79 99.0062 59.79 99.0312 59.82C99.0562 59.85 99.0813 59.91 99.0813 59.97L99.3568 64.47C99.3568 64.59 99.3067 64.68 99.2065 64.68L87.4099 66.15ZM88.3116 62.4L87.6353 65.73L99.0312 64.29L98.7807 60.21L88.3116 62.4Z" fill="#707070"/>
<path d="M107.472 67.14C107.472 67.14 102.613 61.71 93.0454 63.24C83.4779 64.77 84.3545 70.32 83.6783 75.78C83.002 81.24 83.6783 100.98 83.6783 100.98C83.6783 100.98 70.9299 98.4 69.5524 100.98C68.1749 103.56 69.327 110.55 69.327 110.55H84.079L104.617 108.54L107.472 67.14Z" fill="#5B913B"/>
<path d="M88.6624 103.74C88.6373 103.74 88.6123 103.74 88.5872 103.74L83.6031 101.19C83.528 101.16 83.4779 101.04 83.528 100.92C83.553 100.83 83.6532 100.77 83.7534 100.83L88.7375 103.38C88.8126 103.41 88.8627 103.53 88.8377 103.62C88.8127 103.71 88.7375 103.74 88.6624 103.74Z" fill="#707070"/>
<path d="M60.2602 78.6301C60.4355 79.3501 60.6609 80.0401 60.8863 80.7301C60.16 80.0101 59.4086 79.3501 58.6322 78.7201C58.4819 78.5701 58.3066 78.5101 58.1313 78.5101C57.9309 78.5701 57.7556 78.7801 57.6805 79.0201C57.0042 80.6101 57.3298 82.5901 58.1563 84.0901C59.4587 86.4601 61.7129 88.5001 64.1423 88.3501C64.3176 88.3501 64.4679 88.3201 64.6182 88.2301C64.7184 88.1401 64.7935 87.9901 64.8686 87.8701C65.2694 87.0001 65.6451 86.1001 65.9957 85.1701C66.0708 85.0201 66.0959 84.8401 66.0708 84.6901C66.0207 84.5401 65.9206 84.4201 65.7953 84.3601C64.0672 83.0401 63.0904 81.1201 61.9383 79.1701C61.7129 78.7801 61.1869 77.3401 60.686 77.3701C60.1099 77.3701 60.135 78.1201 60.2602 78.6301Z" fill="white"/>
<path d="M63.892 88.5299C61.3623 88.5299 59.1583 86.2199 58.0312 84.1799C57.1045 82.4999 56.9042 80.4299 57.5554 78.9299C57.6555 78.6299 57.8559 78.4199 58.1064 78.3299C58.3318 78.2999 58.5321 78.3899 58.7075 78.5699C59.3336 79.0499 59.9347 79.5899 60.5358 80.1299C60.3855 79.6499 60.2353 79.1699 60.11 78.6599C60.0599 78.4799 59.9347 77.8499 60.1601 77.4299C60.2854 77.2499 60.4607 77.1299 60.661 77.1299C61.1369 77.0999 61.5376 77.9699 61.8632 78.6299C61.9133 78.7499 61.9885 78.8999 62.0636 79.0199L62.4894 79.7399C63.4662 81.4199 64.3678 83.0099 65.8706 84.1499C66.0209 84.2399 66.1461 84.3899 66.2212 84.5699C66.2713 84.7799 66.2463 85.0199 66.1461 85.1999C65.7954 86.1299 65.4198 87.0299 64.994 87.8999C64.9188 88.0499 64.8437 88.1999 64.7185 88.3199C64.5682 88.4399 64.3678 88.4999 64.1925 88.4999L63.892 88.5299ZM58.2065 78.6899H58.1815C58.0563 78.7199 57.9561 78.8399 57.8559 79.0799C57.2548 80.4599 57.4552 82.3799 58.3067 83.9699C59.4338 86.0099 61.6378 88.3199 64.1675 88.1399C64.2927 88.1399 64.4179 88.1099 64.5432 88.0199C64.6183 87.9299 64.6934 87.8399 64.7435 87.7199C65.1443 86.8499 65.5199 85.9499 65.8706 85.0199C65.9207 84.8999 65.9457 84.7799 65.9457 84.6599C65.9207 84.5699 65.8205 84.4799 65.7203 84.4199C64.1675 83.2499 63.2408 81.6299 62.2389 79.9199C62.0887 79.6799 61.9634 79.4399 61.8382 79.1999C61.7881 79.1099 61.713 78.9599 61.6378 78.7799C61.4124 78.3299 61.0367 77.4599 60.7111 77.4599C60.6109 77.4599 60.5108 77.5199 60.4356 77.6099C60.3354 77.9099 60.3104 78.2399 60.4106 78.5399C60.5859 79.2299 60.8113 79.9499 61.0367 80.6099C61.0618 80.6999 61.0367 80.7899 60.9866 80.8199C60.9365 80.8799 60.8614 80.8799 60.8113 80.8199C60.11 80.0999 59.3587 79.4399 58.5822 78.8399C58.457 78.7799 58.3318 78.7199 58.2065 78.6899Z" fill="#707070"/>
<path d="M92.1688 67.6199C92.1688 67.6199 90.2152 91.7399 83.4278 91.6199C76.6404 91.4999 62.4143 88.9499 62.4143 88.5899C62.4143 88.2299 64.1675 81.8999 64.1675 81.8999C64.1675 81.8999 79.3203 83.7899 80.798 80.9699C82.2757 78.1499 84.5799 69.1799 84.5799 69.1799" fill="#5B913B"/>
<path d="M83.9788 91.5299C78.3184 91.5299 68.1498 89.9699 67.5988 89.8799C67.4986 89.8799 67.4485 89.7599 67.4485 89.6699C67.4485 89.5499 67.5487 89.4899 67.6238 89.4899C73.8101 90.4499 85.8823 91.9499 87.3099 90.6599C89.1132 89.0699 91.9684 74.9399 91.9934 74.7899C92.0185 74.6999 92.0936 74.6099 92.1938 74.6399C92.294 74.6699 92.3441 74.7599 92.319 74.8799C92.1938 75.4799 89.4137 89.2799 87.5102 90.9599C87.0594 91.3499 85.732 91.5299 83.9788 91.5299Z" fill="#707070"/>
<path d="M72.3075 91.23H51.8701V111.87H72.3075V91.23Z" fill="white"/>
<path d="M72.3074 112.05H51.87C51.7949 112.05 51.7197 111.96 51.7197 111.87V91.2301C51.7197 91.1401 51.7949 91.05 51.87 91.05H72.3074C72.3826 91.05 72.4577 91.1401 72.4577 91.2301V111.87C72.4577 111.96 72.3826 112.05 72.3074 112.05ZM52.0203 111.69H72.1572V91.4101H52.0203V111.69Z" fill="#707070"/>
<path d="M51.8702 91.23H15.9795V111.87H51.8702V91.23Z" fill="white"/>
<path d="M51.8701 112.05H15.9794C15.9042 112.05 15.8291 111.96 15.8291 111.87V91.2301C15.8291 91.1401 15.9042 91.05 15.9794 91.05H51.8701C51.9453 91.05 52.0204 91.1401 52.0204 91.2301V111.87C52.0204 111.96 51.9453 112.05 51.8701 112.05ZM16.1297 111.69H51.7198V91.4101H16.1297V111.69Z" fill="#707070"/>
<path d="M70.2288 109.08H54.2495C54.1494 109.08 54.0742 108.99 54.0742 108.9V94.2601C54.0742 94.1401 54.1494 94.05 54.2245 94.05H70.2038C70.3039 94.05 70.3791 94.1401 70.3791 94.2601V108.9C70.4041 108.99 70.329 109.08 70.2288 109.08ZM54.4249 108.69H70.0785V94.44H54.4249V108.69Z" fill="#F5F5F5"/>
<path d="M62.1891 99.21C61.4878 99.21 60.9368 98.55 60.9368 97.71C60.9368 96.87 61.4878 96.21 62.1891 96.21C62.8903 96.21 63.4414 96.87 63.4414 97.71C63.4414 98.55 62.8653 99.21 62.1891 99.21ZM62.1891 96.6C61.6881 96.6 61.2624 97.11 61.2624 97.71C61.2624 98.31 61.6881 98.82 62.1891 98.82C62.69 98.82 63.1158 98.31 63.1158 97.71C63.1158 97.11 62.69 96.6 62.1891 96.6Z" fill="#F5F5F5"/>
<path d="M89.99 104.52C89.99 104.52 92.7951 66.7199 97.103 62.4599C101.411 58.1999 113.207 59.6699 114.835 64.8299C116.463 69.9899 109.1 102.75 107.472 107.19C105.844 111.63 105.168 111.42 97.4035 111.42C92.4695 111.42 74.2111 113.01 72.8836 110.01C71.5562 107.01 75.7639 104.16 89.99 104.52Z" fill="#707070"/>
<path d="M83.2776 112.05C77.6924 112.05 73.4096 111.63 72.7584 110.13C72.4328 109.47 72.4328 108.63 72.7584 107.97C74.0607 105.42 80.1469 104.16 89.8647 104.37C90.0901 101.34 92.8201 66.5099 97.0028 62.3699C99.883 59.5199 105.719 59.3399 109.726 60.5999C112.506 61.4699 114.36 62.9699 114.961 64.8299C116.639 70.1699 109.15 103.08 107.597 107.31C105.994 111.66 105.293 111.66 98.3803 111.66H97.4035C96.3766 111.66 94.7486 111.72 92.8702 111.81C89.5391 111.9 86.208 112.05 83.2776 112.05ZM87.7358 104.67C79.4706 104.67 74.1359 105.9 73.0088 108.12C72.7333 108.69 72.7333 109.38 73.0088 109.95C74.0107 112.23 86.2831 111.72 92.8702 111.42C94.7486 111.33 96.3766 111.27 97.4035 111.27H98.3803C105.243 111.27 105.819 111.27 107.347 107.13C109.025 102.6 116.288 69.8999 114.71 64.8899C114.159 63.1499 112.381 61.7399 109.676 60.8699C104.391 59.1899 99.307 60.5099 97.2031 62.5799C92.9954 66.7499 90.1652 104.13 90.1402 104.52C90.1402 104.61 90.0651 104.67 89.9899 104.67C89.2135 104.67 88.4621 104.67 87.7358 104.67Z" fill="#707070"/>
<path d="M81.8751 95.0698C79.8965 95.3998 77.7926 96.0898 76.5904 97.9798C75.0876 100.35 75.5134 103.65 75.9893 106.53C76.916 106.65 77.8427 106.86 78.7193 107.22C78.1933 105.54 78.0431 103.71 78.3436 101.97C78.4688 101.16 78.7193 100.32 79.2703 99.8098C79.7462 99.3598 80.3974 99.2098 80.9985 99.1198C84.9307 98.4898 88.5122 99.1798 92.3943 99.7798C93.0205 97.0498 92.1689 95.5498 90.015 95.1898C87.31 94.6798 84.58 94.6498 81.8751 95.0698Z" fill="#707070"/>
<path d="M78.7194 107.4C78.6943 107.4 78.6943 107.4 78.6693 107.4C77.7927 107.04 76.891 106.83 75.9643 106.71C75.8892 106.71 75.8391 106.65 75.8391 106.56C75.3632 103.59 74.9625 100.26 76.4652 97.86C77.7927 95.76 80.172 95.1599 81.8501 94.8899C84.555 94.4699 87.3101 94.5 90.015 94.98C91.1171 95.16 91.8935 95.6699 92.3193 96.4499C92.745 97.2299 92.8202 98.4 92.4946 99.78C92.4695 99.8699 92.4195 99.9299 92.3443 99.8999L91.1171 99.7199C87.7108 99.1799 84.505 98.6699 80.9985 99.2399C80.3974 99.3299 79.7963 99.4799 79.3455 99.8999C78.8947 100.32 78.6442 100.98 78.4689 101.97C78.1934 103.71 78.3186 105.48 78.8446 107.13C78.8696 107.19 78.8446 107.25 78.8195 107.31C78.7945 107.4 78.7694 107.4 78.7194 107.4ZM76.1146 106.38C76.9161 106.47 77.7175 106.68 78.4939 106.95C78.0431 105.33 77.9429 103.59 78.1934 101.91C78.3687 100.83 78.6943 100.11 79.1702 99.63C79.6461 99.15 80.3473 98.9999 80.9735 98.88C84.5049 98.31 87.7359 98.82 91.1672 99.36L92.2692 99.5399C92.5447 98.3099 92.4695 97.32 92.0939 96.63C91.7182 95.94 90.9918 95.49 89.965 95.31C87.285 94.83 84.5801 94.7999 81.9002 95.2199C80.2722 95.4899 77.993 96.0599 76.7157 98.0699C75.2881 100.32 75.6387 103.53 76.1146 106.38Z" fill="#707070"/>
<path d="M93.8471 105.09H93.822C93.7219 105.06 93.6718 104.97 93.6968 104.85C96.0762 91.9199 100.509 67.0799 100.284 65.4899C99.9082 62.9099 97.8294 63.2699 97.7542 63.2999C97.6541 63.3299 97.5789 63.2399 97.5539 63.1499C97.5288 63.0299 97.604 62.9399 97.6791 62.9399C97.7042 62.9399 100.159 62.4899 100.584 65.4599C100.86 67.4999 94.2729 103.44 93.9974 104.97C93.9974 105.03 93.9222 105.09 93.8471 105.09Z" fill="white"/>
</svg>
