<svg xmlns="http://www.w3.org/2000/svg" width="182" height="53" viewBox="0 0 182 53" fill="none">
  <g clip-path="url(#clip0_1336_8427)">
    <path d="M102.108 34.57C102.915 34.2836 104.241 33.7997 105.879 33.1725C107.522 32.5207 109.486 31.7455 111.579 30.9159C115.775 29.2221 120.609 27.4148 124.533 26.3284C129.05 25.0396 133.815 24.2199 138.65 24.3631L139.555 24.3927C139.857 24.4026 140.158 24.447 140.455 24.4717L142.257 24.6544C142.86 24.6939 143.449 24.8421 144.043 24.9458L145.819 25.2865L147.561 25.7655C148.135 25.9383 148.729 26.0618 149.288 26.2889L150.98 26.9062C151.257 27.0148 151.549 27.1037 151.821 27.2272L152.638 27.5975C157.021 29.5234 161.019 32.1553 164.626 35.1774C168.224 38.2194 171.425 41.651 174.31 45.2954C175.23 46.4215 176.398 48.0016 177.224 49.3544C178.021 50.7324 178.486 51.868 177.996 52.1444C176.947 52.727 174.646 50.4211 171.559 46.6387C167.803 42.0707 163.567 37.8488 158.724 34.4811C158.135 34.0367 157.501 33.6664 156.878 33.2713C156.254 32.8862 155.641 32.4763 154.983 32.1454C154.335 31.7998 153.696 31.4443 153.043 31.1134L151.039 30.2146C148.338 29.1134 145.532 28.2691 142.667 27.8839C138.481 27.2666 134.221 27.5778 130.045 28.3876C125.859 29.2073 121.762 30.5801 117.699 32.101C113.637 33.6318 109.605 35.3601 105.458 36.9205C101.312 38.4662 97.0615 39.8981 92.6231 40.7623C90.6339 41.1424 88.6103 41.4438 86.5668 41.5573C84.5233 41.6661 82.4601 41.6313 80.4067 41.4094C78.3284 41.1523 76.2849 40.6634 74.3203 39.9772C72.366 39.2561 70.4906 38.3278 68.7242 37.2168C66.9728 36.086 65.3499 34.7379 63.895 33.2121C62.4404 31.6862 61.238 29.9035 60.3027 27.9826C60.0902 27.4888 59.8378 27.0148 59.6646 26.5062L59.1648 24.9704C58.9322 23.9186 58.6698 22.8619 58.6305 21.7805C58.4126 19.6226 58.7094 17.4695 59.1993 15.4449C59.6745 13.5339 60.3474 11.7167 61.0993 9.96866C61.4853 9.09462 61.8416 8.25519 62.3465 7.3268C62.8364 6.43302 63.3904 5.57872 64.0535 4.77877C64.7114 3.97881 65.4585 3.21836 66.374 2.56654C67.2796 1.92459 68.3976 1.35674 69.7336 1.23329C70.3919 1.16416 71.0843 1.24317 71.7327 1.42588C72.0593 1.50983 72.3514 1.6629 72.653 1.79129C72.955 1.92462 73.217 2.12704 73.4991 2.30481C73.7762 2.48257 74.0088 2.74922 74.2561 2.97637C74.4935 3.21834 74.6766 3.50969 74.8795 3.78622C75.0527 4.07262 75.1914 4.37881 75.3349 4.68004C75.434 4.98124 75.5378 5.29236 75.6167 5.5985C75.889 6.82313 75.8196 7.98358 75.6318 9.05514C75.434 10.1267 75.0975 11.1291 74.6766 12.0871C74.2561 13.0352 73.7365 13.9635 73.1329 14.803C72.5491 15.5684 71.9951 16.3585 71.3863 17.0992C68.962 20.0868 66.1564 22.7631 63.0686 25.0544C57.7448 29.0147 51.5843 31.8294 45.1174 33.2713C38.6454 34.7281 31.8716 34.6885 25.4343 33.3355C22.4011 32.7183 18.7446 31.8245 15.6224 30.4369C15.3007 30.2937 14.9494 30.1406 14.5784 29.9776C14.2072 29.8147 13.8362 29.6122 13.4403 29.4147C13.0494 29.2172 12.6437 29.0098 12.2281 28.8024C11.8174 28.59 11.4166 28.3431 11.0108 28.111C10.6051 27.874 10.1994 27.637 9.80354 27.4049C9.4176 27.1531 9.04156 26.9012 8.6754 26.6593C8.30923 26.4124 7.95793 26.1802 7.6264 25.9531C7.30974 25.7111 7.00793 25.479 6.73082 25.2667C6.26078 24.8914 5.76597 24.531 5.29592 24.1359C4.83079 23.7409 4.36075 23.3557 3.89067 23.0002C3.34145 22.6051 2.89613 22.1755 2.4805 21.8101C2.06981 21.4348 1.69871 21.1089 1.40183 20.7929C0.817969 20.1509 0.42708 19.6472 0.234106 19.2769C-0.156786 18.5362 0.234106 18.3337 1.30782 18.5214C1.77788 18.6004 1.7383 18.0374 2.74769 18.788C2.78727 18.8176 2.87139 18.8818 2.91097 18.9065C3.7076 19.4349 4.50917 19.9534 5.25138 20.541C6.03812 21.0744 6.77041 21.6669 7.53735 22.2348C9.07125 23.3557 10.6101 24.5161 12.3072 25.4445C20.5456 30.0961 30.2635 32.1998 39.6398 31.0541C49.0165 29.8986 57.9822 25.6371 64.86 19.188C66.9677 17.2128 68.8974 15.0252 70.5699 12.6895C71.3221 11.613 71.9158 10.3687 72.2622 9.11934C72.4255 8.49713 72.5293 7.87002 72.5491 7.27744C72.5491 6.69475 72.46 6.15651 72.2721 5.72689C72.0839 5.2973 71.812 4.97633 71.3962 4.73929C70.9856 4.49732 70.5501 4.36401 70.1149 4.37882C69.224 4.4282 68.1356 5.05037 67.2399 5.97876C66.3244 6.88242 65.5476 8.028 64.9393 9.21806L64.7165 9.6724L64.4887 10.1711L64.0483 11.1686C63.7614 11.8353 63.4994 12.5019 63.2517 13.1685C62.188 16.1066 61.6636 19.1189 61.9355 22.0373L61.9308 21.9878C62.1384 23.5088 62.5391 25.01 63.247 26.3926C63.5387 27.1086 64.0039 27.7506 64.3848 28.4271L65.0827 29.3752C65.2013 29.5332 65.3102 29.6961 65.4339 29.8492L66.567 31.138L67.3834 31.9183L67.794 32.3133L68.2395 32.6738L69.1253 33.3948C70.3721 34.2787 71.6634 35.128 73.0735 35.77C74.4543 36.4662 75.9286 36.965 77.4129 37.3896C78.1651 37.5477 78.9074 37.7749 79.6743 37.8638L80.8122 38.0363L82.5639 38.1846L83.1528 38.1996L84.3252 38.2341C85.1119 38.1993 85.8938 38.2194 86.6758 38.1451L87.8485 38.0561L89.0161 37.918C89.7929 37.8389 90.5697 37.6859 91.3417 37.5672C94.4291 37.0143 97.4424 36.165 100.377 35.2119C100.832 35.0737 101.435 34.8021 102.108 34.57Z" fill="#FF9100"/>
    <path d="M178.152 43.3648C178.221 43.0367 178.476 41.8766 178.558 41.1178C178.761 39.3667 178.865 37.6199 179.154 35.8515C179.197 35.5755 179.193 35.1054 180.17 35.0796C181.186 35.0537 181.786 35.3728 181.76 35.8904C181.682 37.1455 181.402 38.379 181.471 39.6212C181.574 41.454 181.155 43.244 180.809 45.0207C180.645 45.8231 180.451 46.6122 180.218 47.3974C180.105 47.7896 179.98 48.1777 179.863 48.5703C179.729 48.9673 179.63 49.325 179.474 49.7692C179.336 50.1618 179.167 50.5888 178.878 51.0458C178.731 51.2747 178.549 51.5076 178.316 51.7229C178.087 51.9386 177.793 52.1415 177.486 52.2839C176.778 52.6073 176.047 52.6157 175.507 52.5424C174.945 52.4692 174.513 52.3311 174.133 52.2063C172.827 51.7661 171.665 50.9986 170.515 50.2955C170.243 50.1318 169.82 50.1058 169.526 49.9161C169.28 49.7608 168.873 49.5019 168.674 49.2778C168.588 49.1785 168.51 49.0705 168.389 49.0361C167.832 48.8636 167.918 48.4927 168.7 47.6775C168.873 47.4962 169.016 47.2073 169.215 47.1385C169.223 47.1341 169.241 47.1297 169.249 47.1256C169.932 46.7763 170.07 47.2333 170.403 47.4186C172.023 48.3158 173.748 49.0749 175.502 49.5795C176.004 49.7304 176.354 49.726 176.41 49.6744C176.458 49.6484 176.501 49.614 176.579 49.5019C176.652 49.3898 176.725 49.2214 176.786 49.0061C176.855 48.7688 176.808 48.4626 176.994 48.1777L176.989 48.1821C177.063 47.8544 177.11 47.5178 177.205 47.2033C177.59 46.004 177.828 44.7102 178.156 43.5457C178.169 43.5069 178.139 43.4336 178.152 43.3648Z" fill="#FF9100"/>
  </g>
  <defs>
    <clipPath id="clip0_1336_8427">
      <rect width="182" height="52" fill="white" transform="translate(0 0.929688)"/>
    </clipPath>
  </defs>
</svg>