<svg xmlns="http://www.w3.org/2000/svg" width="1433" height="238" viewBox="0 0 1433 238" fill="none">
  <path d="M487.162 105.915C477.86 101.34 456.758 90.9006 432.445 79.6397C408.146 68.3642 380.517 56.5901 358.54 48.4671C345.821 43.775 333.072 39.2003 320.178 35.1681C307.284 31.1212 294.258 27.4702 281.145 24.2591C254.903 17.8369 228.238 13.2623 201.398 10.8429C174.573 8.45293 147.558 8.26231 120.819 10.9309C94.096 13.5702 67.6648 19.1419 42.3873 28.0714C40.3867 28.7166 38.2839 29.567 36.0495 30.4028C33.8299 31.2679 31.479 32.089 29.1717 33.0567C24.5426 34.9775 19.7821 36.8836 15.5911 38.7311C11.3417 40.4613 7.63244 42.0888 4.87249 43.0126C2.11252 43.9363 0.316489 44.1709 0.0536492 43.3791C-0.223809 42.558 0.57933 41.2531 2.36084 39.5669C3.25159 38.7164 4.39056 37.7634 5.76323 36.7223C6.44952 36.1945 7.19437 35.652 7.99751 35.0948C8.82989 34.5669 9.70612 34.0098 10.6261 33.4379C12.4953 32.2942 14.5833 31.0626 16.876 29.7723C19.1978 28.526 21.7535 27.2943 24.4988 25.9747C27.2295 24.611 30.2377 23.4234 33.3919 22.1037C36.5315 20.7548 39.934 19.5671 43.4825 18.3355C60.6847 12.3678 78.4417 8.08635 96.3594 5.10985C114.292 2.07469 132.428 0.593781 150.537 0.139242C168.659 -0.344622 186.766 0.46182 204.742 2.10403C222.733 3.73158 240.578 6.35618 258.233 9.68458C284.065 14.5672 309.547 21.268 334.474 29.567C359.372 37.91 383.803 47.4847 407.839 57.8658C455.955 78.6133 502.48 102.513 549.253 125.578C570.266 135.915 591.294 146.193 612.512 156.003C623.143 160.841 633.76 165.724 644.507 170.299C655.197 175.005 665.988 179.419 676.838 183.685C720.252 200.621 765.039 214.286 810.878 221.896C853.868 229.037 897.867 230.664 940.785 224.198C946.158 223.45 951.474 222.424 956.804 221.442C962.09 220.298 967.406 219.242 972.648 217.864C977.92 216.632 983.104 215.049 988.302 213.582C993.442 211.867 998.612 210.283 1003.72 208.48C1024.15 201.193 1043.98 192.131 1063.54 182.337C1097.28 165.431 1130.27 146.399 1164.89 130.079C1182.24 121.956 1199.9 114.522 1218.3 108.584C1236.71 102.792 1255.67 98.7892 1274.88 96.883C1283.92 95.9886 1293.93 95.2848 1304.19 95.2701C1314.44 95.2408 1324.96 95.9153 1334.89 97.4695C1343.08 98.7159 1353.97 101.003 1364.5 104.537C1375.06 107.997 1385.18 112.748 1392.29 117C1393.84 117.895 1395.4 118.804 1396.9 119.83L1401.46 122.821C1404.4 124.977 1407.39 127 1410.12 129.214C1413.38 131.604 1416.05 134.126 1418.53 136.325C1420.88 138.642 1422.97 140.739 1424.69 142.674C1426.37 144.654 1427.79 146.384 1428.94 147.879C1430.02 149.434 1430.86 150.739 1431.45 151.794C1433.85 156.032 1432.43 156.237 1427.73 153.261C1426.71 152.615 1426.39 152.982 1425.69 152.821C1425.34 152.733 1424.9 152.528 1424.24 151.985C1423.54 151.486 1422.59 150.665 1421.28 149.375C1421.06 149.155 1420.62 148.745 1420.42 148.539L1418.88 147.102L1417.28 145.739L1414.09 142.953C1411.95 141.149 1409.73 139.404 1407.56 137.63C1403.07 134.258 1398.55 130.886 1393.72 127.938C1384.16 121.897 1373.82 116.765 1362.85 113.173C1349.43 108.686 1335.38 106.047 1321.23 104.757C1314.15 104.126 1307.02 103.906 1299.9 103.906C1292.77 104.038 1285.65 104.317 1278.55 105.035C1271.45 105.739 1264.37 106.648 1257.35 107.939C1253.83 108.51 1250.34 109.302 1246.83 110.006C1243.36 110.842 1239.87 111.56 1236.42 112.528C1229.5 114.273 1222.68 116.428 1215.92 118.716L1210.86 120.504C1209.18 121.12 1207.52 121.809 1205.84 122.455L1195.82 126.399C1142.61 148.451 1093.75 180.46 1040.3 204.345C1023.92 211.662 1007.1 218.172 989.792 223.333C972.473 228.392 954.774 232.101 936.915 234.447C919.041 236.735 901.036 237.776 883.059 237.673C865.083 237.512 847.151 236.265 829.35 234.139C809.885 231.691 790.419 228.656 771.129 223.7L771.464 223.788C751.225 219.125 731.204 213.465 711.52 206.896C674.282 194.418 637.323 178.73 601.502 161.912C565.623 145.181 530.751 127.454 497.311 110.739C494.682 109.449 491.046 107.821 487.162 105.915Z" fill="#FDDFB7"/>
</svg>