<svg xmlns="http://www.w3.org/2000/svg" width="263" height="264" viewBox="0 0 263 264" fill="none">
  <path fill-rule="evenodd" clip-rule="evenodd" d="M104.761 18.5855C114.486 28.3108 123.838 43.7733 130.634 60.4405C137.508 42.5355 147.446 25.6612 157.808 15.2995C182.219 -9.11165 218.232 -1.26598 239.491 19.994C260.751 41.2538 271.414 74.4496 244.186 101.678C232.016 113.847 213.715 124.481 194.983 131.182C215.364 138.004 235.321 149.146 247.002 160.827C271.413 185.238 263.568 221.251 242.308 242.511C221.048 263.771 187.852 274.433 160.624 247.205C148.102 234.683 137.207 215.669 130.548 196.375C123.827 214.69 113.386 232.477 101.475 244.389C74.2466 271.617 41.0508 260.954 19.7908 239.695C-1.46909 218.434 -9.31478 182.422 15.0964 158.011C25.2687 147.838 41.7177 138.075 59.2567 131.217C43.5338 124.563 28.7384 115.319 18.3828 104.964C-8.84509 77.7356 1.81725 44.5398 23.0772 23.2799C44.3372 2.01999 80.3497 -5.82568 104.761 18.5855ZM168.958 94.3444C148.011 114.443 115.009 114.672 93.7852 94.8663C113.884 115.813 114.113 148.815 94.3075 170.039C115.255 149.94 148.255 149.711 169.48 169.516C149.381 148.57 149.152 115.569 168.958 94.3444Z" fill="#FDDFB7" stroke="#FDDFB7"/>
</svg>