<svg xmlns="http://www.w3.org/2000/svg" width="37" height="37" viewBox="0 0 37 37" fill="none">
  <g clip-path="url(#clip0_1409_11620)">
    <path d="M18.5 14.5586C20.8091 14.5586 22.6873 16.4374 22.6873 18.7459C22.6873 21.0544 20.8091 22.9331 18.5 22.9331C16.1909 22.9331 14.3128 21.0544 14.3128 18.7459C14.3128 16.4374 16.1909 14.5586 18.5 14.5586ZM18.5 12.8711C15.255 12.8711 12.6252 15.5014 12.6252 18.7459C12.6252 21.9904 15.255 24.6207 18.5 24.6207C21.7445 24.6207 24.3748 21.9904 24.3748 18.7459C24.3748 15.5013 21.7445 12.8711 18.5 12.8711Z" fill="url(#paint0_linear_1409_11620)"/>
    <path d="M18.5 10.1865C23.2199 10.1865 27.0596 14.0261 27.0596 18.746C27.0596 23.4659 23.2199 27.3056 18.5 27.3056C13.7801 27.3056 9.94045 23.4659 9.94045 18.746C9.94045 14.0261 13.78 10.1865 18.5 10.1865ZM18.5 8.49902C12.8401 8.49902 8.25293 13.0862 8.25293 18.7461C8.25293 24.4054 12.8401 28.9932 18.5 28.9932C24.1599 28.9932 28.7471 24.4054 28.7471 18.7461C28.747 13.0862 24.1598 8.49902 18.5 8.49902Z" fill="url(#paint1_linear_1409_11620)"/>
    <path d="M18.5001 6.15724C25.4425 6.15724 31.09 11.8047 31.09 18.7465C31.09 25.6883 25.4425 31.3364 18.5001 31.3364C11.5577 31.3364 5.90961 25.6884 5.90961 18.7466C5.90961 11.8048 11.5577 6.15724 18.5001 6.15724ZM18.5001 4.46973C10.6144 4.46973 4.22217 10.8609 4.22217 18.7465C4.22217 26.6317 10.6144 33.0239 18.5001 33.0239C26.3858 33.0239 32.7775 26.6317 32.7775 18.7465C32.7775 10.8609 26.3858 4.46973 18.5001 4.46973Z" fill="url(#paint2_linear_1409_11620)"/>
    <path d="M18.5 2.43361C27.4944 2.43361 34.8126 9.75118 34.8126 18.7461C34.8126 27.7411 27.4944 35.0586 18.5 35.0586C9.50566 35.0586 2.18752 27.741 2.18752 18.7461C2.18752 9.75125 9.50566 2.43361 18.5 2.43361ZM18.5 0.746094C8.55782 0.746094 0.5 8.80391 0.5 18.7461C0.5 28.6878 8.55782 36.7462 18.5 36.7462C28.4428 36.7462 36.5001 28.6878 36.5001 18.7461C36.5 8.80391 28.4428 0.746094 18.5 0.746094Z" fill="url(#paint3_linear_1409_11620)"/>
  </g>
  <defs>
    <linearGradient id="paint0_linear_1409_11620" x1="18.5" y1="42.4168" x2="18.5" y2="-7.36887" gradientUnits="userSpaceOnUse">
      <stop offset="0.012" stop-color="#E0B386"/>
      <stop offset="0.519" stop-color="#DA498C"/>
      <stop offset="1" stop-color="#961484"/>
    </linearGradient>
    <linearGradient id="paint1_linear_1409_11620" x1="18.5" y1="4.30943" x2="18.5" y2="52.4351" gradientUnits="userSpaceOnUse">
      <stop stop-color="#29D3DA"/>
      <stop offset="0.519" stop-color="#0077FF"/>
      <stop offset="0.999" stop-color="#064093"/>
      <stop offset="1" stop-color="#084698"/>
    </linearGradient>
    <linearGradient id="paint2_linear_1409_11620" x1="18.4998" y1="42.4175" x2="18.4998" y2="-7.36815" gradientUnits="userSpaceOnUse">
      <stop offset="0.012" stop-color="#E0B386"/>
      <stop offset="0.519" stop-color="#DA498C"/>
      <stop offset="1" stop-color="#961484"/>
    </linearGradient>
    <linearGradient id="paint3_linear_1409_11620" x1="18.5" y1="4.30947" x2="18.5" y2="52.4351" gradientUnits="userSpaceOnUse">
      <stop stop-color="#29D3DA"/>
      <stop offset="0.519" stop-color="#0077FF"/>
      <stop offset="0.999" stop-color="#064093"/>
      <stop offset="1" stop-color="#084698"/>
    </linearGradient>
    <clipPath id="clip0_1409_11620">
      <rect width="36" height="36" fill="white" transform="translate(0.5 0.746094)"/>
    </clipPath>
  </defs>
</svg>