<svg width="280" height="280" viewBox="0 0 280 280" fill="none" xmlns="http://www.w3.org/2000/svg">
<path d="M280 140C280 62.6801 217.32 0 140 0C62.6801 0 0 62.6801 0 140C0 217.32 62.6801 280 140 280C217.32 280 280 217.32 280 140Z" fill="#171C2B"/>
<path d="M103.611 79.0393L138.219 43.7033C139.105 42.8026 140.533 42.7886 141.439 43.6799L175.445 77.1819C175.893 77.6253 176.149 78.2319 176.149 78.8713L176.247 154.891L141.546 119.159C140.645 118.235 139.18 118.23 138.284 119.159L103.037 155.461L102.943 80.7099C102.943 80.0893 103.186 79.4919 103.615 79.0533L103.611 79.0393Z" fill="white"/>
<path d="M207.706 192.949L178.59 192.911C177.321 192.911 176.295 191.857 176.29 190.564L176.243 154.883L209.33 188.954C210.767 190.433 209.745 192.949 207.706 192.949Z" fill="#26BF26"/>
<path d="M70.6691 188.781L103.032 155.447L103.079 190.471C103.079 191.763 102.052 192.813 100.788 192.813L72.3071 192.776C70.2677 192.776 69.2364 190.256 70.6691 188.777V188.781Z" fill="#FF850B"/>
<path d="M141.607 176.27L157.404 191.842C158.052 192.482 158.276 193.443 157.978 194.306L142.27 240.086C141.551 242.186 138.634 242.168 137.93 240.058L122.642 194.227C122.362 193.382 122.572 192.449 123.188 191.814L138.387 176.293C139.274 175.388 140.702 175.378 141.607 176.27Z" fill="white"/>
</svg>
