<svg xmlns="http://www.w3.org/2000/svg" width="95" height="90" viewBox="0 0 101 99" fill="none">
  <path d="M70.0733 21.3862L33.1135 22.1694L64.0131 50.5126L99.8505 49.7295L70.0733 21.3862Z" fill="white"/>
  <path d="M69.2876 20.9387L65.5842 21.0133L56.7931 21.1998L46.1317 21.4235L36.8917 21.61L33.8617 21.6846L32.9264 21.7219C32.7768 21.6846 32.5898 21.6846 32.4401 21.7219C32.4027 21.7219 32.4027 21.7219 32.3653 21.7219C32.2531 21.7219 32.3653 21.8711 32.3653 21.9084L35.0961 24.407L41.7175 30.4859L50.0222 38.0938L57.7284 45.1424L62.6289 49.6176C62.9282 49.916 63.2274 50.2143 63.5641 50.4381C64.3497 50.9975 64.8734 50.9602 65.7338 50.9229L72.9537 50.7737L83.877 50.5499L94.4262 50.3262L100.374 50.2143H100.673C100.786 50.2143 100.673 50.0651 100.673 50.0278L97.7182 47.2308L90.6105 40.4806L82.0066 32.276L74.5622 25.1902C73.3652 24.0341 72.1681 22.878 70.9336 21.7592L70.8962 21.7219C70.5595 21.4235 70.1854 21.1998 69.7739 21.0879C69.6617 21.0506 69.0632 20.9014 69.3624 21.1625L72.3177 23.9968L79.4254 30.747L88.0293 38.9143L95.4737 46.0001L97.9426 48.3496L98.6908 49.0955C98.803 49.2074 98.9527 49.4311 99.1023 49.4684L99.1397 49.5057V49.3193L95.5859 49.3938L87.0193 49.5803L76.6945 49.8041L67.7165 49.9905C66.2575 50.0278 64.7986 49.9905 63.3396 50.1024H63.2648L64.7986 50.8483L61.7311 48.0513L54.3242 41.1892L45.3835 32.9846L37.6773 25.9361L35.1335 23.5866L34.348 22.8407C34.2357 22.7288 34.0487 22.5051 33.9365 22.4678L33.8991 22.4305V22.6169L37.6025 22.5424L46.431 22.3559L57.0924 22.1321L66.3323 21.9457L69.3624 21.8711H70.2977C70.4473 21.9084 70.6343 21.9084 70.8214 21.8711C70.8214 21.8711 70.8588 21.8711 70.8962 21.8711C71.1207 21.8711 70.4473 21.3862 70.4099 21.349C70.0358 21.1252 69.6991 20.976 69.2876 20.9387Z" fill="#707070"/>
  <path d="M1.27881 50.5127L33.1136 22.1694L64.0131 50.5127V97.2044L1.27881 95.8246V50.5127Z" fill="white"/>
  <path d="M1.91464 51.0348L5.09437 48.2005L12.6883 41.4503L21.8909 33.283L29.8589 26.1972L32.4775 23.885C32.889 23.512 33.3379 23.1764 33.712 22.7661L33.7494 22.7289L32.4401 22.7661L35.4702 25.6005L42.8397 32.3506L51.8178 40.5553L59.4865 47.6038L62.0303 49.9533C62.4044 50.3635 62.8159 50.7364 63.2274 51.0721L63.2648 51.1094L63.0403 50.5873V95.377C63.0403 95.9737 63.0029 96.6077 63.0403 97.2044C63.0403 97.2417 63.0403 97.2417 63.0403 97.279L64.0504 96.5331L57.8031 96.384L42.8771 96.0483L24.6965 95.6381L9.13451 95.2652L3.93471 95.1533C3.14913 95.1533 2.28872 95.0787 1.50314 95.116H1.39092L2.21391 95.8619V56.0695C2.21391 54.2421 2.25132 52.4147 2.21391 50.55V50.5127C2.21391 49.4685 0.380884 49.5803 0.380884 50.5127V90.2678C0.380884 92.0952 0.343475 93.9226 0.380884 95.7873V95.8619C0.380884 96.2721 0.75497 96.6077 1.16646 96.6077H1.20388L7.45112 96.7569L22.3772 97.0926L40.5578 97.5028L56.1946 97.8384C58.7383 97.8757 61.2821 98.0249 63.8259 98.0249H63.9382C64.3122 98.0249 64.9482 97.7266 64.9482 97.279V51.184C64.9482 50.7364 65.023 50.2516 64.6863 49.916C64.3122 49.543 63.8633 49.1701 63.4518 48.7972L56.9053 42.7929L47.628 34.2899L38.9118 26.3091L34.0487 21.8338L33.8242 21.61C33.4501 21.3117 32.889 21.349 32.5149 21.6473L29.3352 24.4817L21.7412 31.2318L12.5761 39.3992L4.60806 46.485C3.33616 47.6411 2.02686 48.7599 0.75497 49.916L0.680154 49.9533C-0.217653 50.811 1.12906 51.7061 1.91464 51.0348Z" fill="#707070"/>
  <path d="M4.64551 51.4449L32.6646 27.4277L59.9729 51.4449L60.8707 96.4584L5.76777 95.265L4.64551 51.4449Z" fill="#5B913B"/>
  <path d="M64.0129 97.2044V50.5127L99.8504 49.7295V96.4213L64.0129 97.2044Z" fill="white"/>
  <path d="M64.9106 96.9434V52.1164C64.9106 51.5197 64.948 50.8857 64.9106 50.289V50.2144L63.4517 50.923L67.0055 50.8484L75.5721 50.6619L85.8969 50.4381L94.875 50.2517L97.8302 50.1771C98.2791 50.2144 98.7654 50.2144 99.2143 50.1398H99.2892L98.9525 49.9906V94.7804C98.9525 95.3771 98.9151 96.0111 98.9525 96.6078C98.9525 96.6451 98.9525 96.6451 98.9525 96.6824L100.374 95.9738L96.8202 96.0484L88.2536 96.2349L77.9288 96.4586L68.9508 96.6451L64.574 96.7197H64.4991C64.0502 96.7197 63.6013 96.8316 63.2272 97.1299C62.9654 97.3164 63.0028 97.6147 63.3769 97.5774L66.9307 97.5028L75.4973 97.3164L85.8221 97.0926L94.8001 96.9061C96.2591 96.8689 97.718 96.8316 99.1769 96.7943H99.2518C99.6258 96.7943 100.711 96.6078 100.711 96.0857V50.1771C100.748 49.9533 100.748 49.7669 100.711 49.5431C100.711 49.5058 100.711 49.5058 100.711 49.4685C100.711 49.3566 100.411 49.3193 100.374 49.3193L96.8202 49.3939L88.2536 49.5804L77.9662 49.7669L68.9882 49.9533C67.5292 49.9906 66.0703 50.0279 64.6114 50.0652H64.5366C64.1625 50.0652 63.0776 50.2517 63.0776 50.7738V96.757C63.0402 96.9807 63.0402 97.1672 63.0776 97.391C63.0776 97.4283 63.0776 97.4283 63.0776 97.4656C63.115 97.8385 64.9106 97.5028 64.9106 96.9434Z" fill="#707070"/>
  <path d="M32.4774 21.9084L35.5449 24.7427L42.9144 31.4929L51.8925 39.6975L59.5613 46.7461L62.1051 49.0956C62.4791 49.5058 62.8906 49.8787 63.3021 50.2144L63.3395 50.2517L63.1525 50.0279V94.8177C63.1151 95.4144 63.1151 96.0484 63.1525 96.6451V96.7197C63.1525 96.9807 63.6762 97.2418 63.8633 97.3537C63.9007 97.3909 64.7237 97.8012 64.7237 97.7266V51.7061C64.7237 51.3332 64.7985 50.9975 64.5366 50.7365C64.1251 50.3635 63.7136 49.9906 63.3021 49.6177L56.7556 43.6134L47.4783 35.1104L38.7621 27.1295L33.8989 22.6916L33.6745 22.4678C33.3378 22.1695 32.9637 21.9084 32.5522 21.7592C32.3278 21.6101 32.2156 21.6847 32.4774 21.9084Z" fill="#707070"/>
  <path d="M79.014 43.6507C79.014 43.6507 84.5879 7.21468 84.8123 4.86518C85.0368 2.51567 66.3325 0.912038 63.8261 0.650982C61.3197 0.389925 56.8681 38.8398 57.6537 39.5856C58.4393 40.3315 78.827 44.8441 79.014 43.6507Z" fill="#5B913B"/>
  <path d="M79.8746 43.9862C80.2861 41.1892 80.735 38.3922 81.1465 35.5951C82.0069 30.0384 82.8299 24.4816 83.6529 18.8875C84.2888 14.6734 84.9248 10.4592 85.5233 6.20767C85.5981 5.83474 85.6355 5.49909 85.6729 5.12616C85.6355 4.45487 84.5881 4.04464 84.1018 3.82088C81.8199 2.77665 79.2387 2.32912 76.7697 1.91889C73.8518 1.43407 70.8965 1.06114 67.9413 0.725494C66.819 0.613613 65.6967 0.501734 64.5745 0.389853L63.4896 0.27797C63.3026 0.240677 63.0781 0.240677 62.8911 0.27797C62.5544 0.389852 62.4048 0.800079 62.2551 1.06114C61.9933 1.65784 61.7688 2.25454 61.6192 2.88853C61.0581 4.82781 60.684 6.84167 60.3099 8.85553C59.2999 14.3004 58.5517 19.8199 57.8783 25.3394C57.392 29.5163 56.8309 33.6932 56.7187 37.9074C56.6813 38.3176 56.6812 38.6905 56.7561 39.1007C56.8309 39.5856 57.6165 39.772 58.028 39.9212C59.9358 40.6671 62.0307 41.0773 64.0134 41.5621C66.7816 42.1961 69.5872 42.7928 72.3555 43.3149C74.4504 43.6879 76.6575 44.1727 78.7898 44.21C78.9768 44.2473 79.8372 44.3219 79.8746 43.9862C79.9494 43.6879 78.1912 43.1658 78.1538 43.3149C78.1164 43.576 77.3682 43.5014 77.1438 43.4641C76.246 43.4268 75.3482 43.3149 74.4878 43.1658C71.8692 42.7928 69.2506 42.2707 66.6694 41.7113C64.2004 41.1892 61.8811 40.6671 59.4869 40.0331C59.2999 39.9958 59.1128 39.9212 58.9258 39.8839L58.6265 39.8093L58.5143 39.772C58.2898 39.6975 58.6265 39.8093 58.5143 39.772L58.1028 39.6229C57.8783 39.5483 58.215 39.6602 58.1402 39.6229C58.0654 39.5856 57.8409 39.4737 58.1776 39.6602C57.9906 39.5856 58.3646 39.772 58.2524 39.6975C58.3272 39.7347 58.402 39.772 58.4395 39.8093C58.5143 39.8466 58.4769 39.8093 58.4769 39.8466C58.4769 39.7347 58.4395 39.5856 58.4395 39.4737C58.402 38.2057 58.4769 36.9377 58.6265 35.6697C58.8135 33.4321 59.038 31.2318 59.2999 28.9941C59.8984 23.5866 60.6092 18.179 61.507 12.7714C61.8811 10.4965 62.2925 8.18424 62.8163 5.94662C63.1529 4.52946 63.4148 3.00041 64.0882 1.69513C64.2004 1.43408 64.3874 1.17302 64.6119 1.02385C64.5371 1.02385 64.6867 0.986551 64.6119 1.02385C64.6867 1.02385 64.6867 1.02385 64.7615 1.02385L65.173 1.06114L66.3327 1.17302C68.8391 1.39678 71.3454 1.69513 73.8144 2.03077C76.5452 2.32912 79.2387 2.81394 81.8947 3.44794C82.1191 3.52253 82.381 3.55982 82.6054 3.63441L82.7925 3.70899C82.6054 3.63441 82.7925 3.70899 82.8299 3.70899L83.204 3.82088C83.4658 3.89546 83.0917 3.74628 83.3162 3.85817L83.4658 3.93276C83.1666 3.82088 83.391 3.89546 83.4284 3.93276L83.5406 3.97005C83.6529 4.00734 83.3536 3.89546 83.5032 3.93276C83.7277 4.00735 83.4658 3.89546 83.6155 3.97005C83.7651 4.04464 83.5781 3.93275 83.7277 4.04463C83.7277 4.04463 83.8773 4.15652 83.8025 4.11923C83.8773 4.19381 83.9522 4.2684 83.9896 4.38028C84.027 4.49216 84.027 4.64134 83.9896 4.75322C83.5781 8.25883 82.9795 11.7271 82.4932 15.1955C81.6702 20.7149 80.8472 26.2344 80.0242 31.7166C79.4631 35.4087 78.902 39.0635 78.3409 42.7555C78.3034 42.942 78.3034 43.1285 78.266 43.3149C78.079 43.6506 79.8746 44.1354 79.8746 43.9862Z" fill="#5B913B"/>
  <path d="M75.4976 42.1961C75.5724 41.7486 75.7969 41.301 76.0587 40.9281C76.6573 40.1076 77.5925 39.6228 78.6399 39.6228C78.8644 39.6228 79.1262 39.5482 79.1637 39.2872C79.5377 36.9004 79.8744 34.5136 80.2485 32.1268C80.9593 27.4278 81.6326 22.6915 82.2312 17.9924C82.5304 15.904 82.7923 13.8155 83.0167 11.6898C83.2038 10.4591 83.316 9.19112 83.3534 7.92313C83.3908 7.36373 83.2038 6.84162 82.8297 6.43138C82.6426 6.24492 82.4556 6.09574 82.2312 5.98386C82.0815 5.90927 81.9319 5.83468 81.8197 5.7601L81.7074 5.68551C81.8571 5.7601 81.6326 5.64822 81.5952 5.61092C81.3708 5.46175 81.1463 5.27528 80.9967 5.05152C80.66 4.64129 80.4729 4.00729 79.9492 3.78353C79.5003 3.63435 79.014 3.55977 78.5277 3.55977L75.348 3.14953C73.1034 2.81389 70.8589 2.51554 68.577 2.25449C68.0533 2.1799 67.3425 1.99343 66.8562 2.29178C66.5569 2.51554 66.2951 2.7766 66.0706 3.07495C65.7714 3.3733 65.3973 3.63435 64.9858 3.82082C64.275 4.04459 63.5268 4.08188 62.8161 3.93271C62.5916 3.89541 62.3672 4.04458 62.2924 4.26835C61.806 7.47561 61.3197 10.6829 60.8708 13.8901C60.0852 19.5588 59.2997 25.2274 58.8133 30.9334C58.6263 32.9099 58.3644 34.9984 58.6263 36.975C58.6637 37.4598 58.9256 37.87 59.3745 38.0565C59.786 38.2056 60.1601 38.3921 60.5341 38.6159C60.8708 38.8023 61.1327 39.0634 61.3946 39.3245C61.4694 39.4363 61.5442 39.5482 61.619 39.6601C61.6938 39.8093 61.7312 39.9585 61.7686 40.1449C61.806 40.7043 62.1801 41.1518 62.7039 41.301C66.1454 41.8977 69.6244 42.3452 73.1409 42.569C73.8516 42.6063 74.6746 42.7182 75.348 42.4198C75.7595 42.2334 75.4976 41.5621 75.348 41.301C75.1609 40.9281 74.712 40.7416 74.3379 40.8535C74.5624 40.7416 74.3005 40.8535 74.2257 40.8535C74.0761 40.8908 73.9638 40.8908 73.8142 40.8908H73.4775C73.2905 40.8908 73.066 40.8908 72.879 40.8535C71.869 40.8162 70.8589 40.7043 69.8863 40.5924C67.8288 40.3687 65.7714 40.0703 63.7139 39.772L62.3298 39.5482L63.265 40.7043C63.0779 38.6532 61.3197 37.0495 59.4119 36.4155L60.1601 37.4971C59.973 35.8188 60.1601 34.0287 60.2723 32.3505C60.4967 29.7027 60.796 27.0548 61.0953 24.407C61.7312 19.1112 62.4794 13.8528 63.265 8.59442C63.452 7.43832 63.6017 6.3195 63.7887 5.16339L63.265 5.49904C64.2376 5.68551 65.2476 5.57363 66.1829 5.20069C66.744 4.90234 67.1929 4.49211 67.6044 4.04458C67.6418 4.00729 67.8662 3.78353 67.754 3.89541C67.8288 3.82082 67.8662 3.78353 67.9411 3.74624C68.0907 3.63436 67.8288 3.78353 68.0159 3.74624C67.8288 3.82082 67.8662 3.74624 68.0159 3.74624C68.39 3.78353 68.7266 3.82082 69.1007 3.85811C71.9438 4.19376 74.8242 4.60399 77.6673 5.01422L80.1737 5.38716L79.4629 4.90234C79.9866 5.87198 80.8096 6.69244 81.7823 7.25184L81.9693 7.36373C82.1189 7.43831 81.9693 7.36372 82.0067 7.40102L82.1937 7.5502C82.0441 7.43831 82.2312 7.66207 82.1563 7.5129C82.0815 7.36372 82.0067 7.21455 81.9319 7.06538C81.9693 7.21455 81.8945 6.99079 81.9319 6.95349C81.8945 7.17726 81.8945 7.40102 81.9319 7.58749C81.9319 7.92313 81.8945 8.29607 81.8571 8.63171C81.8197 9.11653 81.7822 9.56406 81.7074 10.0489L81.6326 10.8693V10.9812L81.5952 11.1677L81.5578 11.6525C81.4082 13.0324 81.2211 14.4122 81.0341 15.7921C80.6226 18.9994 80.1737 22.1693 79.7248 25.3766C79.3133 28.2482 78.9018 31.0825 78.4529 33.9542C78.3032 34.9238 78.1536 35.8934 78.004 36.8631C77.8918 37.3106 77.8169 37.7581 77.8169 38.2429C77.8169 38.2802 77.8169 38.2802 77.8169 38.3175L78.3407 37.9819C77.0314 37.9073 75.7595 38.4667 74.9739 39.5109C74.5998 39.9957 74.3005 40.5924 74.1883 41.1891C74.1135 41.6367 74.3379 42.1215 74.712 42.3825C74.8991 42.569 75.4228 42.6436 75.4976 42.1961Z" fill="white"/>
  <path d="M69.5497 27.9499C69.5497 27.9499 76.2833 29.74 76.8818 22.6915C77.3681 17.1347 69.4001 15.3819 67.1556 17.6195C64.3874 20.4166 63.527 25.3393 69.5497 27.9499Z" fill="white"/>
  <path d="M73.9639 24.2578C74.4502 23.8476 75.0113 23.2882 74.8991 22.5796C74.712 21.9083 74.0761 21.4235 73.3653 21.4981C72.7294 21.5727 72.1682 21.8337 71.6819 22.2812C71.4201 22.505 71.1956 22.8034 70.9712 23.0271C70.9338 23.0644 70.8589 23.139 70.7841 23.1763C70.6719 23.2136 70.8589 23.139 70.7841 23.1763L71.0086 23.0644C70.9712 23.0644 70.8964 23.0644 70.8589 23.0644C70.5597 23.0271 70.3352 22.8779 70.1856 22.6542C69.9985 22.3931 69.9237 22.0575 69.9985 21.7218C70.036 21.5727 70.1108 21.3862 70.1856 21.2743C70.223 21.237 70.2978 21.1624 70.2978 21.1251L70.3352 21.0878C70.2978 21.1251 70.4849 20.976 70.2978 21.0878C70.41 21.0133 71.0086 20.6403 70.7467 20.4911C70.6345 20.4166 70.3726 20.4911 70.2978 20.5284C70.0734 20.603 69.8489 20.6776 69.6245 20.8268C68.9885 21.237 68.3152 21.7964 68.2777 22.6169C68.2403 23.2509 68.6518 23.8476 69.2504 23.9968C70.2604 24.1832 71.3452 23.5865 72.0934 22.9525C72.3927 22.6915 72.6546 22.4304 72.879 22.1321L72.9164 22.0948L72.9538 22.0575L72.1682 22.4304C72.2057 22.4677 72.2805 22.4304 72.3553 22.4677C72.5423 22.505 72.692 22.6169 72.8042 22.7288C73.1035 22.9525 73.2531 23.3255 73.1783 23.6984C73.0661 24.034 72.879 24.2951 72.5797 24.5189C72.5423 24.5562 72.3927 24.7053 72.4301 24.8172C72.4675 24.9291 72.692 24.8918 72.7668 24.8545C73.2157 24.7426 73.6272 24.5189 73.9639 24.2578Z" fill="#5B913B"/>
  <path d="M74.2631 22.878L73.6272 22.7661C73.5524 22.7661 73.5149 22.7661 73.5149 22.8407C73.4775 22.878 73.4775 22.9526 73.4775 22.9899C73.4775 23.0645 73.515 23.139 73.5524 23.2136C73.5898 23.3255 73.6272 23.4001 73.702 23.512C73.8142 23.6985 74.0013 23.8849 74.1509 24.0714L74.3005 24.1833C74.3754 24.2206 74.4502 24.2579 74.5624 24.2952L75.1983 24.407C75.2357 24.407 75.3106 24.3697 75.3106 24.3324C75.348 24.2951 75.348 24.2206 75.348 24.1833C75.348 24.1087 75.3106 23.9968 75.2731 23.9222C75.2357 23.8103 75.1983 23.7357 75.1235 23.6239C75.0113 23.4001 74.8243 23.2509 74.6746 23.0645L74.525 22.9526C74.4502 22.9153 74.3379 22.878 74.2631 22.878Z" fill="#5B913B"/>
  <path d="M68.5396 21.1998H68.4273L68.6144 21.2371C68.4648 21.1999 68.3151 21.1626 68.2029 21.1253L68.3899 21.1998C68.3151 21.1626 68.2403 21.1253 68.2029 21.1253C68.1281 21.088 68.0159 21.0507 67.941 21.0507C67.8662 21.0134 67.7914 21.0134 67.7166 21.0507C67.6418 21.0507 67.6044 21.1253 67.567 21.1626C67.5295 21.2371 67.5295 21.3117 67.5295 21.349L67.567 21.5355C67.6044 21.6847 67.6792 21.7966 67.7914 21.9084C67.941 22.0949 68.1281 22.2441 68.3525 22.356C68.6892 22.5424 69.0633 22.6543 69.4374 22.6916C69.5122 22.6916 69.587 22.6916 69.6244 22.6543C69.6992 22.617 69.7366 22.5797 69.7366 22.5051C69.7741 22.4305 69.7741 22.356 69.7366 22.2814C69.6992 22.1695 69.6618 22.0949 69.6244 22.0203C69.5122 21.7966 69.3251 21.6474 69.1007 21.4982L68.9137 21.3863C68.8014 21.2371 68.6892 21.1998 68.5396 21.1998Z" fill="#5B913B"/>
  <path d="M73.3281 8.4079C73.777 8.78084 74.3007 9.22836 74.3755 9.82506C74.4503 10.198 74.3381 10.6082 74.1136 10.9066C73.777 11.2422 73.3281 11.0185 72.9914 10.7947C72.9166 10.7574 72.8792 10.7201 72.8043 10.6828C72.6547 10.5709 72.6921 10.6455 72.9166 10.9066C73.0288 11.2049 73.1036 11.2422 73.1036 11.1303C73.2158 10.9812 73.1036 10.7201 73.4029 10.832C73.4403 10.832 73.5899 10.9439 73.5899 10.9439C73.5151 10.9812 73.3281 10.5336 73.2907 10.5709C73.2532 10.6082 73.3281 10.9066 73.3281 11.0185C73.2907 11.3914 73.1036 11.727 72.8417 11.9508C72.7295 12.0627 72.5799 12.1373 72.4303 12.2119C72.318 12.2492 72.2058 12.2864 72.0936 12.2864C71.8317 12.2864 71.7943 12.1 72.0562 12.4729L72.4677 13.0696C72.4677 13.1442 72.5051 13.1815 72.5425 13.1442C72.6921 12.995 72.5799 12.8459 72.2432 12.6967C72.2432 12.7713 72.2806 12.8459 72.2806 12.9204C72.318 13.1442 72.3554 13.368 72.3554 13.5917C72.3554 13.9274 72.318 14.3003 71.9814 14.4495C71.7195 14.5614 72.6547 16.165 73.0662 15.9785C73.7396 15.6429 73.5151 14.5241 73.4029 13.9647C73.1784 13.0323 72.4677 11.9135 71.5324 11.5779H71.4576C71.0835 12.2492 71.8317 13.1442 72.318 13.5544C72.8043 13.9647 73.5151 13.9274 73.964 13.4426C75.0489 12.361 74.2259 10.7574 73.2907 9.86235C72.9914 9.564 72.131 8.85542 71.9439 9.6013C71.7569 10.3472 72.4303 11.2049 72.9166 11.6525C73.4029 12.1 74.0388 12.6221 74.6748 12.6594C75.3481 12.6967 75.61 11.9135 75.61 11.3541C75.61 10.5336 75.1611 9.75047 74.6748 9.07918C74.1511 8.3706 73.5525 7.69932 72.8792 7.17721C72.6173 6.95344 72.4677 7.06532 72.5799 7.40097C72.7295 7.73661 72.9914 8.10955 73.3281 8.4079Z" fill="white"/>
  <path d="M68.6145 30.2621C69.4001 30.4859 69.6619 31.4182 69.6619 32.1268C69.6619 32.2387 69.6619 32.3506 69.6619 32.4625C69.6619 32.5371 69.5871 32.6489 69.5871 32.7235C69.4749 32.8354 69.5497 32.8354 69.8116 32.7235C69.9238 32.6862 70.036 32.6862 70.1108 32.6862C70.0734 32.6489 69.8864 32.6489 69.8116 32.6489C69.6245 32.6116 69.4375 32.5743 69.2504 32.4625C69.1382 32.3879 68.9886 32.1268 69.213 32.0522L68.6519 32.1641H68.7267L67.8289 32.2014C68.016 32.2387 68.1656 32.3506 68.3526 32.4625C68.5023 32.5371 68.6519 32.6489 68.8015 32.7981C69.1008 33.0965 69.1382 33.544 68.9512 33.8796C68.7641 34.2899 68.5023 34.6628 68.203 34.9984C68.1282 35.073 68.016 35.1476 67.9411 35.2222C67.9037 35.2595 67.8289 35.2968 67.7915 35.2968C67.4174 35.446 67.7541 35.446 68.8015 35.2595C68.7267 35.1849 68.6145 35.1849 68.6145 35.073C68.6145 34.9611 68.7641 34.8866 68.4274 34.9239L67.4922 34.9984C67.2304 34.9984 67.6045 35.073 67.6793 35.1103C67.8289 35.1476 67.9411 35.2222 68.0908 35.2968C68.3526 35.446 68.5771 35.5951 68.7641 35.8562C69.1008 36.2664 69.1382 36.8258 68.8389 37.2734C68.7267 37.4225 69.4375 37.4225 69.5123 37.4225C69.7367 37.4225 69.9986 37.3852 70.2231 37.3479C70.3353 37.3479 70.5971 37.3106 70.6346 37.2361C71.6446 35.9308 69.6245 34.7374 68.5023 34.7001C68.0534 34.7001 67.38 34.6628 66.9685 34.8866C66.6692 35.073 66.7815 35.3341 67.0433 35.4833C67.4548 35.5951 67.9037 35.6324 68.3526 35.5578C68.8763 35.5578 69.4001 35.4087 69.8864 35.1103C70.1482 34.8866 70.3727 34.6628 70.5223 34.3644C70.7842 34.0288 70.9338 33.6559 71.0086 33.2456C70.9712 32.6489 70.2979 32.2387 69.8116 32.0522C69.3253 31.9031 68.7641 31.8658 68.2778 31.9776C68.016 32.0149 67.3052 32.0522 67.3426 32.4625C67.38 32.7981 67.8663 32.8727 68.1282 32.9473C68.6145 33.0592 69.1008 33.0965 69.5871 33.0965C70.1482 33.1337 70.7094 33.0592 71.2705 32.8727C71.682 32.7235 71.6446 32.276 71.6446 31.8658C71.6446 31.0453 71.1209 30.2994 70.2979 30.0757C69.8864 30.0011 69.4375 30.0011 69.026 30.113C68.8015 30.0757 68.2778 30.1503 68.6145 30.2621Z" fill="white"/>
  <path d="M53.8381 37.0496L83.8399 36.6021L90.1993 44.5083L75.6848 48.6479H64.0133C64.0133 48.6479 54.1374 39.6974 53.8381 37.0496Z" fill="white"/>
  <path d="M55.4094 37.1242L64.3501 37.0869L78.6402 37.0123H81.9322C82.3811 37.0123 82.83 36.9377 83.2415 36.7885C83.5407 36.6766 83.5781 36.6021 83.2041 36.6021L74.2634 36.6393L59.9359 36.7139H56.6439C56.195 36.7139 55.7461 36.7885 55.3346 36.9377C55.1102 37.0123 55.0728 37.1242 55.4094 37.1242Z" fill="#707070"/>
</svg>