<svg xmlns="http://www.w3.org/2000/svg" width="113" height="90" viewBox="0 0 113 90" fill="none">
  <path d="M30.692 54.4801C30.692 54.4801 25.7079 53.8501 25.3823 54.1501C25.0567 54.4501 23.4037 58.0501 23.2033 60.5701C23.003 63.0901 29.0891 64.8601 29.0891 64.8601L30.692 54.4801Z" fill="#F5F5F5"/>
  <path d="M30.8673 54.12C29.7653 53.97 28.6633 53.85 27.5613 53.76C26.9351 53.7 26.284 53.67 25.6328 53.7C25.3322 53.7 25.0567 53.79 24.8313 53.97C24.656 54.18 24.5057 54.42 24.4055 54.69C23.9296 55.62 23.554 56.61 23.2284 57.63C23.028 58.23 22.8777 58.83 22.7525 59.46C22.6273 59.91 22.5772 60.39 22.6022 60.87C22.6773 61.56 23.1282 62.1 23.579 62.52C24.1801 63.06 24.8313 63.48 25.5075 63.84C26.5595 64.38 27.6615 64.83 28.7885 65.16C29.064 65.25 29.6651 65.25 29.7403 64.8L31.1429 55.74L31.3432 54.45C31.4184 53.97 30.1911 53.91 30.0909 54.48L28.6884 63.54L28.488 64.83L29.4397 64.47C28.6132 64.23 27.7867 63.93 26.9852 63.54C26.3591 63.24 25.7329 62.91 25.1569 62.49C24.681 62.19 24.2803 61.74 23.9797 61.2C23.6792 60.51 23.9797 59.49 24.1801 58.74C24.4556 57.66 24.8313 56.61 25.2821 55.59C25.4324 55.23 25.6077 54.87 25.783 54.54L25.8832 54.39C25.9333 54.33 25.9083 54.39 25.9083 54.36C25.9083 54.33 26.0335 54.27 25.8832 54.36C25.8832 54.36 25.6578 54.45 25.7079 54.42C25.758 54.39 25.783 54.42 25.8081 54.42C25.6077 54.48 25.7329 54.42 25.8081 54.42H26.1838H26.5845H26.8099H27.0103C28.1874 54.51 29.3646 54.63 30.5417 54.78C30.7672 54.81 31.1929 54.78 31.3182 54.48C31.4434 54.18 31.0427 54.12 30.8673 54.12Z" fill="#5B913B"/>
  <path d="M23.1783 60.8101C23.1783 60.8101 19.4715 59.7901 18.4196 57.9301C17.3677 56.0701 21.4001 56.1601 18.1191 54.6301C14.8381 53.1001 10.956 52.2001 12.2082 50.1601C13.4605 48.1201 25.3824 54.1501 25.3824 54.1501L23.1783 60.8101Z" fill="#F5F5F5"/>
  <path d="M22.8529 60.3001C21.9262 60.0601 21.0496 59.7001 20.198 59.2201C19.8975 59.0701 19.5969 58.8601 19.3214 58.6501C19.2212 58.5601 19.096 58.4701 18.9958 58.3801C18.9457 58.3201 18.9207 58.2901 18.8706 58.2301C18.6702 57.9301 18.6953 57.4801 18.9708 57.2101C19.1962 56.9401 19.5218 56.7601 19.7722 56.4901C20.1229 56.0701 19.7472 55.5601 19.4717 55.2301C18.8956 54.5701 18.1192 54.2401 17.3929 53.9101C16.4662 53.4901 15.5395 53.1301 14.6128 52.7401C13.8865 52.4701 13.1852 52.0801 12.534 51.6001C12.534 51.5701 12.559 51.6001 12.534 51.6001C12.4839 51.5401 12.559 51.6001 12.559 51.6301C12.559 51.6301 12.559 51.6601 12.559 51.6001C12.534 51.5401 12.534 51.5101 12.5089 51.4501C12.4839 51.1501 12.559 50.8801 12.7344 50.6701C13.11 50.1301 13.9366 50.2501 14.4375 50.3101C15.4894 50.4601 16.5163 50.7301 17.5181 51.0901C18.6953 51.5101 19.8724 51.9601 21.0496 52.4401C22.6275 53.1001 24.1553 53.8801 25.7081 54.5701C25.7332 54.5701 25.7582 54.6001 25.7833 54.6001L24.9818 53.5801L23.0533 59.4001L22.7778 60.2401C22.6525 60.6301 23.6544 61.4101 23.7044 61.2601L25.633 55.4401L25.9085 54.6001C25.9586 54.4201 25.7582 54.1801 25.6831 54.0901C25.5328 53.8801 25.3324 53.7001 25.107 53.5801C23.7295 52.8901 22.352 52.2601 20.9494 51.6301C18.6702 50.6401 16.341 49.6501 13.9366 49.2301C13.3355 49.1401 12.4338 48.9601 11.9078 49.4701C11.5822 49.8301 11.4821 50.4001 11.6574 50.8801C11.983 51.7201 12.7093 52.3201 13.3605 52.7401C15.0636 53.8201 16.9922 54.3001 18.7704 55.2001C18.9207 55.2901 19.071 55.3501 19.2212 55.4701C19.2713 55.5001 19.2964 55.5001 19.3465 55.5601C19.2713 55.4401 19.1211 55.3201 19.0459 55.2001C18.9958 55.1101 19.0459 55.1401 19.0209 55.2301C18.9958 55.2901 18.9457 55.3501 18.9207 55.4101C18.6702 55.7101 18.3446 55.8601 18.0942 56.1601C17.7686 56.5501 17.7936 57.0301 18.019 57.5101C18.4448 58.3201 19.0459 58.9801 19.7222 59.4601C20.8492 60.2701 22.0765 60.8401 23.3538 61.2001L23.6043 61.2601C23.8547 61.3201 23.6794 60.9601 23.6043 60.8701C23.3538 60.6301 23.1284 60.4201 22.8529 60.3001Z" fill="#5B913B"/>
  <path d="M28.3378 58.6801C28.3378 58.6801 21.2499 57.7801 20.774 58.2001C20.2981 58.6201 17.9438 63.7501 17.6683 67.3501C17.3928 70.9501 26.0587 73.44 26.0587 73.44L28.3378 58.6801Z" fill="#F5F5F5"/>
  <path d="M28.1124 58.05C26.5596 57.84 25.0067 57.69 23.4539 57.57C22.6023 57.48 21.7257 57.45 20.8742 57.48C20.6738 57.48 20.4734 57.54 20.3232 57.69C20.0727 58.02 19.8723 58.38 19.697 58.8C19.0208 60.18 18.4698 61.62 18.0189 63.12C17.7434 63.96 17.5431 64.83 17.3928 65.7C17.2926 66.33 17.1423 66.99 17.2676 67.62C17.4679 68.76 18.1943 69.69 18.9456 70.38C19.7972 71.13 20.7239 71.76 21.7007 72.24C23.1533 73.02 24.6561 73.62 26.2089 74.07L26.2841 74.1C26.4343 74.13 26.5095 74.04 26.5345 73.89L27.311 68.91L28.5382 60.93L28.8137 59.1C28.8888 58.65 28.0122 57.63 27.9121 58.29L27.1356 63.27L25.9084 71.22L25.6329 73.05L25.8833 72.84C24.6811 72.48 23.529 72.03 22.3769 71.52C21.4252 71.1 20.5235 70.59 19.6469 69.96C19.4716 69.84 19.2963 69.72 19.146 69.57C19.0458 69.48 18.9707 69.42 18.8705 69.33L18.7453 69.21L18.6701 69.12C18.7202 69.18 18.7202 69.18 18.6701 69.12C18.62 69.06 18.5449 68.97 18.4948 68.91L18.3946 68.79C18.4948 68.94 18.3946 68.79 18.3946 68.76C18.3946 68.73 18.1943 68.43 18.2944 68.61L18.2193 68.46C18.1442 68.28 18.2193 68.49 18.1943 68.4L18.1442 68.25C18.0941 68.1 18.1692 68.37 18.1442 68.22C18.1191 68.13 18.1191 68.07 18.1191 67.98C18.1191 68.07 18.1191 67.83 18.1191 67.77C18.1191 67.56 18.1442 67.38 18.1692 67.17C18.2694 66.36 18.4447 65.58 18.6701 64.8C19.0959 63.27 19.6469 61.77 20.2981 60.33C20.4985 59.88 20.7239 59.43 20.9743 59.01C21.0244 58.92 21.0745 58.86 21.1246 58.8C21.1747 58.74 21.1246 58.77 21.1246 58.77C21.1747 58.74 21.2248 58.74 21.2749 58.74C21.9762 58.59 22.7526 58.71 23.4789 58.77C25.1821 58.89 26.8601 59.07 28.5382 59.28C29.0892 59.4 28.5132 58.11 28.1124 58.05Z" fill="#5B913B"/>
  <path d="M17.5932 67.71C17.5932 67.71 12.2834 66.27 10.8057 63.6C9.32802 60.93 15.0385 61.08 10.3799 58.92C5.72141 56.76 0.186275 55.41 1.96453 52.53C3.74279 49.65 20.7489 58.2 20.7489 58.2L17.5932 67.71Z" fill="#F5F5F5"/>
  <path d="M17.9187 67.5C17.518 67.38 17.0922 67.26 16.7666 67.14C15.865 66.81 14.9884 66.42 14.1368 65.97C13.2352 65.52 12.4337 64.89 11.7324 64.08C11.3567 63.6 10.9309 62.88 11.3066 62.22C11.5821 61.74 12.0079 61.5 12.4086 61.14C12.7342 60.84 13.0348 60.42 12.6842 59.97C12.4086 59.64 12.1081 59.4 11.7575 59.22C11.1564 58.89 10.5302 58.59 9.90406 58.32C8.57663 57.72 7.22415 57.21 5.89672 56.64C4.89489 56.19 3.81792 55.74 2.94131 54.96C2.3903 54.48 1.98957 53.76 2.34021 52.95C2.41535 52.8 2.49048 52.65 2.59067 52.53C2.59067 52.5 2.69085 52.41 2.61571 52.5C2.64076 52.47 2.69085 52.44 2.7159 52.41L2.81608 52.35C2.84113 52.35 2.74094 52.38 2.86617 52.32L2.9914 52.26C3.09159 52.23 2.89122 52.29 2.96636 52.26C3.04149 52.23 3.04149 52.23 3.06654 52.23L3.21681 52.2C3.01645 52.23 3.21681 52.2 3.26691 52.2H3.44223C3.5925 52.2 3.317 52.2 3.51736 52.2H3.89305C4.06837 52.2 3.79287 52.2 3.96819 52.2L4.21865 52.23C4.36892 52.26 4.5192 52.26 4.66947 52.29L4.89489 52.32L4.99507 52.35L5.09525 52.38C5.4459 52.44 5.82158 52.53 6.17223 52.62C6.97369 52.83 7.75012 53.07 8.55158 53.34C10.2046 53.91 11.8827 54.57 13.5107 55.26C14.9633 55.89 16.416 56.52 17.8686 57.21C18.6451 57.57 19.3964 57.99 20.1729 58.32C20.223 58.35 20.248 58.35 20.2731 58.38L20.1228 58.11L17.3677 66.42L16.967 67.59C16.8418 67.98 18.044 68.1 18.1692 67.74L20.9242 59.43L21.325 58.26C21.3751 58.11 21.2749 58.05 21.1747 57.99C19.2462 57.03 17.2675 56.1 15.2889 55.26C13.5608 54.51 11.8326 53.79 10.0794 53.19C8.47645 52.59 6.84846 52.11 5.19544 51.81C4.5192 51.69 3.84296 51.63 3.16672 51.66C2.64076 51.66 2.13984 51.81 1.66397 52.08C1.16305 52.47 0.912594 53.16 0.987732 53.85C1.1881 54.81 2.03966 55.41 2.7159 55.83C5.17039 57.36 7.92544 58.02 10.43 59.34C10.7807 59.49 11.1313 59.73 11.4068 60.03C11.532 60.18 11.5821 60.36 11.507 60.51C11.3066 60.93 10.8057 61.17 10.4801 61.5C10.0543 61.92 9.72874 62.43 9.92911 63.12C10.2046 64.11 11.0562 64.83 11.7575 65.37C13.3103 66.54 15.1136 67.29 16.8919 67.83L17.2175 67.92C17.4679 67.98 17.8686 68.04 18.069 67.83C18.2694 67.62 18.069 67.53 17.9187 67.5Z" fill="#5B913B"/>
  <path d="M30.8173 54.0001C30.8173 54.0001 25.5326 61.1401 25.6077 72.8101C25.6077 72.8101 31.7189 84.2101 57.5913 88.1101C83.4637 92.0101 111.49 83.7901 111.615 81.1801C111.74 78.5701 78.3042 53.5801 30.8173 54.0001Z" fill="#5B913B"/>
  <path d="M30.2665 53.7901C29.0643 55.4101 28.1626 57.4501 27.3862 59.4001C26.5847 61.5001 25.9586 63.6901 25.5578 65.9401C25.3074 67.2901 25.1571 68.6701 25.0569 70.0501C25.0068 70.7701 24.9818 71.4901 24.9818 72.2101C24.9567 72.4801 24.9567 72.7201 25.0319 72.9901C25.1321 73.2001 25.2573 73.4101 25.4076 73.5901C25.658 73.9801 25.9335 74.3401 26.2341 74.6701C27.3611 75.9901 28.6134 77.1901 29.9409 78.2401C32.1198 79.9501 34.4491 81.3901 36.8535 82.5601C40.4351 84.3001 44.1419 85.6801 47.9238 86.6401C52.933 87.9601 58.0423 88.8301 63.1517 89.2801C68.3612 89.7001 73.5708 89.7601 78.7803 89.4301C83.514 89.1601 88.2476 88.6201 92.9563 87.8101C96.6881 87.1801 100.42 86.3701 104.102 85.2901C106.356 84.6301 108.71 83.9401 110.789 82.7101C111.465 82.3201 112.617 81.5701 112.016 80.5201C111.44 79.5601 110.538 78.8401 109.762 78.1501C108.309 76.9201 106.832 75.8101 105.279 74.7901C103.125 73.3201 100.896 71.9701 98.6417 70.7101C95.7864 69.0901 92.8561 67.6201 89.9007 66.2401C86.4443 64.6501 82.963 63.2101 79.4064 61.9201C75.3741 60.4501 71.3166 59.1601 67.1841 58.0801C62.6508 56.8801 58.0924 55.9201 53.509 55.2001C48.5249 54.3901 43.5408 53.8801 38.5316 53.6401C35.9519 53.5201 33.3721 53.4601 30.7924 53.4901C30.542 53.4901 30.1913 53.7301 30.2164 54.0601C30.2414 54.3901 30.6421 54.5101 30.8676 54.5101C35.9769 54.4801 41.0863 54.7201 46.1956 55.2601C50.9042 55.7701 55.5878 56.5201 60.2464 57.5101C64.5292 58.4101 68.762 59.5501 72.9697 60.8701C76.7265 62.0401 80.4333 63.3901 84.1151 64.8901C87.2959 66.2101 90.4767 67.6501 93.5574 69.2101C96.112 70.5301 98.6667 71.9101 101.146 73.4401C103.05 74.6101 104.928 75.8401 106.757 77.1901C107.433 77.7001 108.084 78.2101 108.735 78.7501L108.936 78.9301L109.036 79.0201C109.136 79.1101 108.986 78.9901 109.086 79.0501C109.186 79.1101 109.336 79.2601 109.461 79.3801C109.687 79.5601 109.887 79.7701 110.088 79.9801C110.388 80.2801 110.664 80.6101 110.914 80.9401C110.864 80.8201 110.989 81.0301 110.914 80.9401C110.939 80.9701 110.939 81.0001 110.964 81.0301C110.989 81.0601 111.014 81.1501 111.039 81.1801C110.989 81.0601 111.089 81.3001 111.039 81.1801C111.089 81.2701 110.989 81.1201 111.039 81.1201C111.039 81.1201 110.939 81.3301 111.064 81.1201C111.039 81.1501 111.039 81.1801 111.014 81.2101C110.914 81.3301 111.039 81.1801 111.014 81.2401C110.989 81.3001 110.864 81.3901 110.764 81.4801C110.664 81.5701 110.864 81.4201 110.714 81.5401L110.513 81.6901C110.363 81.7801 110.213 81.8701 110.063 81.9601C109.211 82.4101 108.359 82.8001 107.458 83.1301C104.527 84.2101 101.522 85.0801 98.4914 85.7101C94.3087 86.6401 90.101 87.3301 85.8683 87.8101C80.9342 88.3801 75.9752 88.6501 71.0411 88.6201C65.8316 88.5901 60.6471 88.1101 55.4876 87.2401C51.0545 86.4901 46.6965 85.3501 42.4137 83.7601C39.4332 82.6801 36.553 81.2701 33.7979 79.5601C32.0197 78.4501 30.3165 77.1601 28.7637 75.6301C27.9372 74.8501 27.1858 73.9801 26.5096 73.0201L26.3843 72.8401C26.3092 72.7201 26.4344 72.9601 26.3593 72.8101C26.3343 72.7501 26.2842 72.7201 26.2591 72.6601C26.2591 72.4201 26.2591 72.2101 26.2842 71.9701C26.2842 71.2501 26.3343 70.5301 26.3843 69.8101C26.4845 68.4601 26.6598 67.1101 26.9103 65.7601C27.5865 62.1001 28.8388 58.6201 30.5921 55.5301C30.8425 55.0801 31.1431 54.6301 31.4436 54.2101C31.644 53.9401 31.3685 53.6101 31.1681 53.5501C30.7924 53.4001 30.4668 53.5201 30.2665 53.7901Z" fill="#5B913B"/>
  <path d="M51.1044 71.9102L72.5437 78.3602C72.5437 78.3602 65.5809 84.0902 61.5986 84.0602C57.6163 84.0302 29.6652 74.4602 29.5149 72.4802C29.3646 70.5002 46.7464 75.3002 51.1044 71.9102Z" fill="#5B913B"/>
  <path d="M51.0543 72.0902L53.1832 72.7202L58.3176 74.2502L64.529 76.1102L69.8638 77.7302C70.7404 78.0002 71.5919 78.3302 72.4686 78.5102H72.4936L71.9676 78.0902C70.1142 79.6202 68.1607 80.9402 66.132 82.0802C64.7294 82.8602 63.2016 83.5802 61.6487 83.7302C61.4484 83.7302 61.248 83.7302 61.0476 83.7302C60.9725 83.7302 61.1979 83.7302 61.0727 83.7302H60.9975L60.7972 83.7002H60.3714C60.5718 83.7302 60.3213 83.7002 60.2462 83.6702L59.9957 83.6102C59.595 83.5202 59.2193 83.4602 58.8186 83.3402L58.1423 83.1902L57.967 83.1602C57.9419 83.1602 57.7416 83.1002 57.9169 83.1602L57.5412 83.0702C56.4142 82.7702 55.3121 82.4402 54.1851 82.1102C51.5302 81.3302 48.8753 80.4602 46.2205 79.5602L44.2419 78.8702L42.1881 78.1502C40.8857 77.6702 39.5583 77.1902 38.2559 76.6802C37.1038 76.2302 35.9517 75.7802 34.8246 75.3002L34.0482 74.9702L33.948 74.9102L33.8228 74.8502L33.4471 74.7002C33.0213 74.5202 32.5955 74.3102 32.1948 74.1002C32.0195 74.0102 31.8442 73.9202 31.6438 73.8302L31.4184 73.7102L31.2931 73.6502L31.2681 73.6202C31.0176 73.4702 30.7672 73.3202 30.5167 73.1402L30.4416 73.0802C30.4917 73.1102 30.4917 73.1102 30.4416 73.0802L30.3164 72.9902L30.2162 72.9002C30.1661 72.8402 30.141 72.8102 30.1911 72.8702C30.0909 72.7202 30.0659 72.7202 30.116 72.5702C30.1661 72.4202 30.3664 72.3902 30.4917 72.3602L30.667 72.3302H30.7672H30.8674C30.9425 72.3302 31.218 72.3002 31.3683 72.3002C31.8442 72.3002 32.2699 72.3302 32.6456 72.3602C33.2217 72.3902 33.7977 72.4502 34.3738 72.5102C37.229 72.8102 40.0592 73.2002 42.8894 73.3802C44.292 73.4702 45.6945 73.5002 47.0971 73.4402C48.2492 73.4102 49.4013 73.2002 50.5033 72.8402C50.9041 72.6902 51.3048 72.4802 51.6554 72.2102C51.8057 72.0902 51.3298 71.8802 51.2797 71.8502C51.1044 71.7902 50.7037 71.6102 50.5033 71.7602C49.6768 72.3902 48.675 72.6302 47.7232 72.7802C46.4208 72.9602 45.0934 73.0202 43.766 72.9602C40.8356 72.8702 37.9053 72.4802 34.9999 72.1502C33.8228 72.0002 32.6206 71.8802 31.4434 71.8202C30.7421 71.7902 29.9156 71.7002 29.2394 71.9702C28.1374 72.4202 30.1661 73.5602 30.4666 73.7402C32.32 74.7302 34.1985 75.6002 36.127 76.3202C38.7568 77.3702 41.4117 78.3602 44.0665 79.2902C46.8466 80.2802 49.6518 81.2102 52.482 82.0802C54.711 82.7702 56.9652 83.4302 59.2193 83.9702C59.9456 84.1502 60.672 84.3002 61.4233 84.3902C62.5754 84.4802 63.7276 84.3002 64.8045 83.8202C67.5846 82.7702 70.2144 80.9702 72.6439 79.0802C72.7942 78.9602 72.9695 78.8402 73.1197 78.6902C73.27 78.5402 72.6188 78.3002 72.5938 78.2702L70.4649 77.6402L65.3305 76.1102L59.1442 74.2502L53.8094 72.6302C52.9328 72.3602 52.0562 72.0902 51.2046 71.8502H51.1545C51.0543 71.8202 50.5534 71.6702 50.5033 71.8502C50.4532 72.0302 51.0042 72.0902 51.0543 72.0902Z" fill="#F5F5F5"/>
  <path d="M89.7254 66.6001C89.8506 69.7201 89.9758 72.8701 89.6001 75.9601C89.4248 77.4901 89.0992 78.9601 88.6233 80.4001C88.1224 81.8101 87.4712 83.1301 86.6948 84.3601C85.7932 85.7701 84.8164 87.1201 83.7895 88.4101C83.514 88.7701 84.616 89.4301 84.8665 89.1001C86.6447 86.7901 88.448 84.4501 89.55 81.5701C90.6521 78.6901 90.9776 75.5401 91.0277 72.4201C91.0528 70.6201 90.9776 68.8201 90.9025 67.0201C90.8775 66.5701 89.7003 66.1201 89.7254 66.6001Z" fill="#F5F5F5"/>
  <path d="M97.2391 86.58C100.195 82.92 101.522 77.82 100.871 72.78C100.871 72.75 99.6685 73.08 99.6936 73.32C100.37 78.33 99.0424 83.4 96.112 87.06C96.0369 87.15 96.5128 87 96.5629 86.97C96.7883 86.88 97.0387 86.76 97.2391 86.58Z" fill="#F5F5F5"/>
  <path d="M68.9372 71.0399C68.9372 71.0399 77.2775 71.2799 78.7051 68.5199C81.5103 63.0299 61.3984 58.4399 61.3984 58.4399L68.9372 71.0399Z" fill="#F5F5F5"/>
  <path d="M68.4363 71.31C70.7155 71.4 72.9696 71.19 75.1987 70.65C75.9751 70.47 76.7265 70.2 77.4779 69.84C78.079 69.6 78.63 69.18 79.1058 68.64C79.6068 68.01 79.7069 67.08 79.3813 66.3C79.0057 65.4 78.2543 64.74 77.553 64.2C76.5261 63.45 75.4742 62.82 74.3471 62.31C71.8425 61.14 69.2628 60.18 66.633 59.43C65.1052 58.98 63.5774 58.53 62.0246 58.2H61.9494C61.8242 58.17 60.6971 58.53 60.7973 58.68L63.352 62.94L67.4094 69.72L68.3361 71.28C68.4864 71.55 69.5634 70.89 69.5383 70.83L66.9836 66.57L62.9262 59.79L61.9995 58.23L60.8474 58.71C62.0496 58.98 63.2518 59.31 64.454 59.67C66.9335 60.36 69.388 61.2 71.8175 62.22C72.9946 62.7 74.1718 63.3 75.2738 63.96C76.1504 64.44 76.9519 65.1 77.6532 65.91C78.104 66.48 78.5047 67.26 78.3545 68.07C78.2793 68.52 78.079 68.91 77.7784 69.21C77.6031 69.39 77.4027 69.54 77.2024 69.66C77.1022 69.72 77.002 69.78 76.9018 69.81L76.8016 69.87C76.7014 69.9 76.9018 69.84 76.8016 69.87L76.5512 69.96C76.4259 69.99 76.5261 69.96 76.5512 69.96L76.4259 69.99L76.1504 70.08C76.0502 70.11 75.8749 70.17 75.6996 70.2C75.349 70.29 74.9983 70.35 74.6727 70.41C73.9464 70.53 73.2451 70.62 72.5188 70.68C71.542 70.74 70.5652 70.8 69.5884 70.77H69.4381C69.1376 70.8 68.8621 70.89 68.6116 71.04C68.5365 71.07 68.1858 71.31 68.4363 71.31Z" fill="#707070"/>
  <path d="M55.237 28.0201L55.262 14.9701C55.3872 12.3901 55.9383 8.70013 55.1117 5.79013C54.3353 3.00013 53.5088 6.69013 53.5088 6.69013C53.5088 6.69013 53.7342 3.09013 52.8075 2.88013C51.8808 2.67013 51.455 7.20013 51.455 7.20013C51.455 7.20013 51.2296 3.60013 50.2278 3.81013C49.3011 3.99013 49.9272 11.1301 49.9272 11.1301C49.9272 11.1301 48.8252 9.81013 47.598 9.96013C46.3707 10.1101 47.2473 11.6101 48.0989 12.5101C48.9505 13.4101 49.5015 14.6101 49.8271 16.1101L49.5265 23.2801C49.4013 26.3701 48.8503 29.4001 47.9236 32.2801L44.9431 41.3701L48.7 49.5301C48.7 49.5301 49.3011 48.5101 51.6053 42.8701C52.9578 39.6001 55.2871 34.5601 55.237 28.0201Z" fill="#F5F5F5"/>
  <path d="M55.6879 27.9301L55.713 18.7801C55.713 17.5201 55.6879 16.2301 55.713 14.9401C55.738 13.7701 55.8883 12.6001 55.9384 11.4601C56.0386 9.78014 56.0636 8.07014 55.738 6.39014C55.6128 5.79014 55.4625 4.89014 55.0117 4.50014C54.636 4.20014 54.1601 4.41014 53.8596 4.77014C53.4338 5.28014 53.2334 6.06014 53.0831 6.72014L53.9598 6.60014C53.9848 6.06014 53.9848 5.49014 53.9598 4.95014C53.9347 4.26014 53.8846 3.24014 53.4087 2.73014C52.9078 2.16014 52.1815 2.61014 51.8559 3.24014C51.5303 3.96014 51.3049 4.74014 51.2298 5.58014C51.1296 6.15014 51.0544 6.75014 51.0043 7.32014L51.906 7.08014C51.8559 6.27014 51.7307 5.49014 51.5303 4.74014C51.4301 4.29014 51.2298 3.90014 50.9542 3.60014C50.6036 3.30014 50.1027 3.33014 49.7771 3.66014C49.3012 4.17014 49.3012 5.16014 49.2511 5.85014C49.2261 6.96014 49.2261 8.07014 49.3012 9.18014C49.3263 9.87014 49.3764 10.5601 49.4515 11.2201L50.3031 10.8001C49.7771 10.1701 49.1259 9.75014 48.3996 9.57014C47.6231 9.39014 46.2707 9.75014 46.5963 11.0101C46.8968 12.1501 47.8736 12.8101 48.4497 13.7401C48.7753 14.3101 49.0508 14.9401 49.2261 15.6001C49.3263 15.8401 49.3764 16.0801 49.3764 16.3201L49.201 20.5801C49.1509 21.9601 49.1259 23.3401 49.0007 24.7201C48.7753 27.3601 48.2493 29.9401 47.4478 32.4001L46.2957 35.9401L44.8681 40.3201C44.7429 40.6201 44.6427 40.9501 44.5425 41.2801C44.4924 41.5501 44.6677 41.7901 44.7679 42.0301L48.1992 49.4701L48.2994 49.6801C48.4747 50.0401 48.9756 49.8301 49.1259 49.5601C49.2762 49.2901 49.4014 49.0501 49.5266 48.7801C50.0526 47.6401 50.5535 46.5001 51.0294 45.3301C52.4069 42.0601 53.8846 38.7901 54.7612 35.2801C55.3623 32.9401 55.6879 30.4201 55.6879 27.9301C55.6879 27.3901 54.7863 27.6901 54.7863 28.1701C54.8113 32.3101 53.8345 36.2401 52.3819 39.9601C51.2798 42.8101 50.1027 45.6901 48.8253 48.4201C48.6751 48.7801 48.4998 49.1101 48.3244 49.4401L49.1509 49.3201L45.8449 42.1501L45.369 41.1301V41.3101L46.9219 36.6001C47.4729 34.9201 48.0489 33.2701 48.5749 31.5601C49.2511 29.3701 49.6769 27.0901 49.8773 24.7801C49.9775 23.7901 50.0025 22.8301 50.0276 21.8401L50.1778 18.3001C50.253 17.5201 50.278 16.7401 50.278 15.9601C50.253 15.6601 50.1778 15.3601 50.0526 15.0601C49.9023 14.5801 49.727 14.1601 49.5266 13.7101C49.3263 13.3201 49.1009 12.9301 48.8253 12.6001C48.5749 12.2701 48.2994 12.0001 48.0489 11.6701C47.8235 11.4001 47.6231 11.0401 47.4979 10.6801C47.4729 10.5601 47.4478 10.4401 47.4478 10.3201C47.4478 10.2901 47.4729 10.2601 47.4729 10.2601C47.4478 10.3801 47.3977 10.2901 47.4729 10.2901C47.5981 10.3201 47.7985 10.2601 47.9487 10.3201C48.1241 10.3501 48.2994 10.4401 48.4747 10.5301C48.7502 10.6801 49.0007 10.8601 49.2511 11.0701C49.3513 11.1601 49.4515 11.2501 49.5517 11.3701C49.7771 11.6101 50.4283 11.3701 50.4032 10.9501C50.278 9.51014 50.2029 8.07014 50.2029 6.63014C50.2029 5.85014 50.1778 4.95014 50.3782 4.23014C50.4032 4.17014 50.4032 4.11014 50.4283 4.05014C50.4533 4.02014 50.4784 3.99014 50.4533 3.99014C50.4283 3.99014 50.4533 4.02014 50.4283 4.02014C50.5034 3.99014 50.253 4.14014 50.3031 4.11014C50.253 4.14014 50.2029 4.14014 50.1528 4.14014C50.1778 4.14014 50.1778 4.14014 50.1778 4.14014C50.4283 4.29014 50.5535 4.68014 50.6537 4.98014C50.8541 5.73014 50.9793 6.48014 51.0294 7.26014C51.0544 7.80014 51.8809 7.47014 51.931 7.02014C52.0062 5.94014 52.1815 4.86014 52.482 3.81014C52.5321 3.66014 52.5822 3.51014 52.6323 3.39014L52.6824 3.27014C52.6824 3.24014 52.7826 3.09014 52.7325 3.15014C52.7826 3.06014 52.7576 3.12014 52.7576 3.12014C52.7075 3.15014 52.6574 3.15014 52.6073 3.18014C52.6073 3.18014 52.5572 3.15014 52.5822 3.18014C52.6073 3.21014 52.6574 3.24014 52.6824 3.27014C53.0331 3.72014 53.0331 4.56014 53.0581 5.13014C53.0831 5.67014 53.0831 6.21014 53.0581 6.72014C53.0331 7.23014 53.8596 6.93014 53.9347 6.60014C54.0349 6.06014 54.2102 5.55014 54.4607 5.10014C54.5108 5.04014 54.5108 5.07014 54.5358 5.01014C54.4857 5.01014 54.5609 4.95014 54.5358 5.01014C54.4857 5.01014 54.4607 5.07014 54.4106 5.07014C54.3605 5.07014 54.3104 5.07014 54.2603 5.07014C54.2854 5.04014 54.2853 5.13014 54.2853 5.07014C54.3104 5.13014 54.4106 5.22014 54.4356 5.28014C54.7111 5.91014 54.8864 6.63014 54.9616 7.35014C55.1369 9.00014 55.1369 10.6801 54.9866 12.3301C54.9115 13.2601 54.8113 14.1901 54.7863 15.1201C54.7612 18.2701 54.7863 21.4201 54.7863 24.5701V28.0501C54.7863 28.6801 55.6879 28.3801 55.6879 27.9301Z" fill="#707070"/>
  <path d="M51.7557 9.71996C51.7557 9.50996 51.7557 9.29996 51.7557 9.11996C51.7807 8.33996 51.8308 7.55996 51.8809 6.77996C51.8809 6.74996 51.7807 6.68996 51.7557 6.68996C51.6555 6.62996 51.5553 6.56996 51.4551 6.53996C51.4301 6.53996 51.0043 6.35996 51.0043 6.41996C50.9542 7.19996 50.9041 7.97996 50.8791 8.75996C50.8791 8.96996 50.854 9.17996 50.8791 9.38996C50.8791 9.41996 50.9792 9.47996 51.0043 9.47996C51.1045 9.53996 51.2046 9.59996 51.3048 9.62996C51.4301 9.65996 51.5803 9.71996 51.7557 9.71996Z" fill="#707070"/>
  <path d="M53.3586 6.27011C53.2083 7.26011 53.1081 8.2801 53.033 9.3001C53.033 9.4801 53.1081 9.66011 53.2333 9.78011C53.3335 9.87011 53.4086 9.8101 53.4086 9.6601C53.4838 8.7001 53.584 7.7401 53.7092 6.78011C53.7342 6.60011 53.6841 6.42011 53.584 6.30011C53.5339 6.21011 53.3836 6.09011 53.3586 6.27011Z" fill="#707070"/>
  <path d="M51.6306 12.6001C51.5805 12.4801 51.5053 12.3601 51.4302 12.2701C51.33 12.1201 51.2549 12.0001 51.1547 11.8501C50.8792 11.4601 50.6037 11.1001 50.2781 10.7701C50.0777 10.5901 49.8273 10.6201 49.6519 10.8001C49.5017 10.9501 49.3764 11.2801 49.5768 11.4901C50.0276 11.9401 50.4284 12.4801 50.779 13.0501L50.7289 12.9601C50.754 13.0201 50.779 13.0801 50.8291 13.1101C50.9543 13.3501 51.2298 13.4101 51.4302 13.2601C51.5554 13.1401 51.7558 12.8701 51.6306 12.6001Z" fill="#707070"/>
  <path d="M48.9506 53.04L53.3086 41.52L45.5944 34.98L42.6641 45.57" fill="#F5F5F5"/>
  <path d="M49.5517 53.04L53.3587 42.96L53.9097 41.52C53.9348 41.4 53.8847 41.28 53.8095 41.22L47.0471 35.49L46.0954 34.68C45.8199 34.44 45.0936 34.53 44.9683 34.95L42.4137 44.22L42.063 45.54C41.9127 46.11 43.14 46.05 43.2903 45.54L45.8449 36.3L46.1956 34.98L45.0685 35.25L51.8309 40.98L52.7827 41.79L52.6825 41.49L48.8755 51.57L48.3245 53.01C48.1993 53.31 48.6501 53.43 48.8254 53.43C49.0759 53.43 49.4265 53.34 49.5517 53.01V53.04Z" fill="#707070"/>
  <path d="M39.0073 60.4502C39.0073 60.4502 44.7178 41.7302 49.3763 42.0302C54.0349 42.3302 58.3427 64.0802 58.3427 64.0802L52.2816 68.2802C52.3067 68.2802 39.8088 63.8702 39.0073 60.4502Z" fill="#F5F5F5"/>
  <path d="M39.6334 60.5401C39.6584 60.4801 39.6584 60.4501 39.6835 60.3901C39.7085 60.3301 39.7085 60.2701 39.7336 60.2401C39.7837 60.1201 39.7336 60.2401 39.7336 60.2701L39.7837 60.1201C39.959 59.6101 40.1093 59.1301 40.2846 58.6201C40.8356 56.9701 41.4367 55.3801 42.0628 53.7901C42.8142 51.8701 43.6407 50.0101 44.5674 48.1801C45.3939 46.5601 46.2205 45.0901 47.3976 43.8301L47.5729 43.6501L47.6731 43.5301C47.5729 43.6201 47.6481 43.5301 47.6731 43.5301C47.7983 43.4101 47.9236 43.2901 48.0738 43.2001C48.2241 43.1101 48.3243 43.0201 48.4245 42.9301C48.5247 42.8401 48.3494 42.9601 48.4746 42.9001L48.6749 42.8101L48.8503 42.7501L48.9505 42.7201C49.0256 42.6901 48.7751 42.7501 48.9254 42.7201C49.0757 42.6901 49.1759 42.6901 49.3261 42.6601C49.1759 42.6901 49.251 42.6601 49.3512 42.6601C49.4013 42.6601 49.4514 42.6601 49.5015 42.6901C49.6768 42.7201 49.4514 42.6601 49.5265 42.6901C49.6016 42.7201 49.6517 42.7201 49.7018 42.7501L49.8521 42.8101C49.9523 42.8701 49.7519 42.7501 49.8271 42.8101C49.8521 42.8101 49.8771 42.8401 49.9022 42.8401C50.0024 42.9001 50.1276 42.9901 50.2278 43.0801L50.3781 43.2001L50.4532 43.2601C50.353 43.1701 50.4031 43.2301 50.4282 43.2301C50.5534 43.3501 50.6536 43.4701 50.7538 43.5901C50.9792 43.8601 51.1795 44.1301 51.3549 44.4001C51.5552 44.7001 51.7305 45.0001 51.9059 45.3001C52.7825 46.9501 53.5088 48.6601 54.1099 50.4601C54.7861 52.3801 55.3622 54.3301 55.8882 56.3101C56.339 57.9901 56.7397 59.6101 57.1405 61.3501C57.3408 62.2501 57.4911 63.1801 57.7416 64.0801C57.7416 64.1101 57.7666 64.1701 57.7666 64.2001L58.0171 63.6301L52.7073 67.2901L51.956 67.8001L52.5821 67.7101C51.1795 67.2001 49.777 66.6601 48.3994 66.0601C45.995 65.0401 43.6407 63.9601 41.4868 62.3701C41.2363 62.1901 40.9859 61.9801 40.7605 61.7701L40.6102 61.6201C40.5851 61.5901 40.5601 61.5601 40.51 61.5301C40.4098 61.4401 40.3096 61.3501 40.2345 61.2301C40.0842 61.0501 39.9339 60.8701 39.8087 60.6601C39.7586 60.6001 39.8588 60.7501 39.8338 60.6901L39.7837 60.6001L39.7336 60.4501C39.7085 60.3901 39.6083 60.0901 39.6584 60.2701C39.5833 59.9101 39.2828 59.7001 38.9822 59.7901C38.7568 59.8201 38.331 60.0901 38.4312 60.4801C38.6566 61.2301 39.0573 61.8601 39.5833 62.3101C40.2846 62.9701 41.036 63.5401 41.8374 64.0201C43.6908 65.1601 45.6194 66.1201 47.598 66.9601C48.9755 67.5601 50.353 68.1301 51.7556 68.6401L52.0812 68.7601C52.3316 68.8201 52.6071 68.7901 52.8326 68.6101C53.4086 68.2201 53.9847 67.8301 54.5607 67.4101L58.7935 64.4701C58.9688 64.3501 59.069 64.1401 59.0439 63.9001C58.5681 61.5601 58.0171 59.2501 57.416 56.9701C56.3891 53.0101 55.237 48.9601 53.4587 45.3901C52.8075 44.0701 51.981 42.6301 50.8539 41.8501C49.7269 41.0701 48.4996 41.2801 47.4227 42.0901C46.1203 43.0501 45.1435 44.6101 44.2669 46.0801C43.265 47.8801 42.3634 49.7401 41.5619 51.6901C40.4098 54.4501 39.3829 57.2701 38.4813 60.1801L38.4312 60.3301C38.331 60.6901 38.7067 60.9601 38.9321 60.9901C39.2327 61.0801 39.5082 60.8701 39.6334 60.5401Z" fill="#707070"/>
  <path d="M55.8883 43.44C53.1333 45.45 51.6305 44.37 51.5304 46.83C51.5304 46.83 49.3764 48.9 47.4479 45.75C47.0972 45.18 45.5444 37.29 49.9024 34.14C49.9024 34.14 52.407 32.55 51.8059 29.7C51.8059 29.7 53.6593 31.9799 55.5627 31.7699C57.4662 31.5599 61.0728 30.51 61.5988 32.73C62.1248 34.95 59.6202 35.94 57.9922 35.7L57.892 39.06C56.1388 39.69 55.3123 37.44 55.3123 37.44C55.3123 37.44 54.2103 39.57 54.611 40.5C55.0117 41.43 56.8401 41.58 56.8401 41.58C56.815 42.36 56.4644 43.05 55.8883 43.44Z" fill="#F5F5F5"/>
  <path d="M55.4374 43.32C54.8613 43.74 54.2352 44.1 53.584 44.34C53.1332 44.52 52.6823 44.64 52.2315 44.85C51.8809 44.97 51.5553 45.21 51.2798 45.54C51.0293 45.96 50.9041 46.44 50.9041 46.95L50.9792 46.8C50.9291 46.86 50.9291 46.83 51.0043 46.8C50.9291 46.86 50.854 46.92 50.8039 46.95C50.7538 46.98 50.7037 47.01 50.6787 47.04L50.6035 47.07L50.4282 47.16C50.5284 47.1 50.303 47.19 50.2779 47.19C50.4032 47.16 50.2028 47.19 50.1527 47.22C50.2779 47.22 50.0525 47.22 50.0275 47.22C50.1026 47.22 49.9273 47.22 49.9273 47.22C49.8271 47.19 49.7269 47.16 49.6267 47.13C49.1759 46.95 48.7752 46.62 48.4496 46.17C48.2993 45.99 48.1741 45.78 48.0488 45.57C48.0238 45.51 48.0739 45.63 48.0488 45.57C48.0238 45.51 48.0238 45.51 48.0238 45.48C47.9737 45.3 47.9236 45.12 47.8735 44.94C47.3976 42.69 47.4477 40.32 47.9737 38.07C48.3995 36.45 49.3011 35.1 50.5033 34.23C51.8308 33.27 52.8576 31.56 52.482 29.61L51.2798 29.91C51.8809 30.63 52.5821 31.2 53.3335 31.62C53.9597 31.95 54.6359 32.13 55.3121 32.13C55.8632 32.1 56.4142 32.01 56.9401 31.92C57.942 31.77 58.9688 31.53 59.9707 31.8C60.3464 31.89 60.697 32.13 60.9224 32.52C61.1729 33.03 61.1979 33.66 60.9725 34.17C60.7221 34.68 60.2963 35.07 59.8204 35.25C59.3445 35.43 58.8436 35.49 58.3427 35.43C58.1173 35.4 57.441 35.46 57.441 35.85L57.3409 39.21L57.7666 38.85C57.3158 39 56.8399 38.67 56.5143 38.22C56.3641 38.04 56.2388 37.83 56.1136 37.62C56.0886 37.56 56.0385 37.47 56.0134 37.41C56.0385 37.47 56.0134 37.41 56.0134 37.38C55.8632 36.96 54.9615 37.2 54.7862 37.5C54.5858 37.89 54.4105 38.31 54.2602 38.73C54.0599 39.3 53.8344 40.05 54.0599 40.65C54.2853 41.25 54.9615 41.52 55.4624 41.7C55.8381 41.82 56.2388 41.91 56.6145 41.97L56.2639 41.76C56.2138 42.36 55.9132 42.96 55.4374 43.32C55.2621 43.47 55.2621 43.65 55.5125 43.74C55.8131 43.83 56.1136 43.77 56.3891 43.59C56.9902 43.11 57.4911 42.36 57.5162 41.46C57.5162 41.31 57.2657 41.28 57.1906 41.25H57.1154C57.0654 41.25 56.89 41.22 56.9902 41.22C56.7648 41.19 56.5394 41.13 56.339 41.04C55.9383 40.92 55.3873 40.68 55.2621 40.17C55.1368 39.66 55.3622 38.94 55.5376 38.46C55.6628 38.1 55.8131 37.74 55.9884 37.38L54.7611 37.5C54.9365 37.98 55.212 38.4 55.5376 38.73C56.2639 39.48 57.2657 39.57 58.1674 39.27C58.3177 39.21 58.5932 39.12 58.5932 38.91L58.6933 35.55L57.7917 35.97C59.0189 36.15 60.4966 35.85 61.5235 34.98C61.9743 34.62 62.2749 34.08 62.3751 33.45C62.4502 32.85 62.2749 32.25 61.9243 31.83C61.1228 30.93 59.7202 30.99 58.7184 31.08C58.0672 31.14 57.441 31.23 56.8149 31.32C56.2889 31.41 55.788 31.56 55.2871 31.44C54.2352 31.23 53.2083 30.39 52.482 29.52C52.3317 29.34 51.981 29.37 51.7807 29.43C51.6554 29.46 51.2297 29.58 51.2798 29.82C51.5052 31.05 51.1796 32.31 50.4032 33.18C49.9273 33.75 49.5265 33.96 48.9755 34.44C47.2724 35.94 46.496 38.34 46.3457 40.8C46.2956 41.82 46.3207 42.81 46.4459 43.83C46.496 44.46 46.6212 45.09 46.8216 45.69C46.9969 46.14 47.2724 46.53 47.598 46.83C48.0238 47.28 48.5498 47.61 49.1258 47.73C50.0776 47.91 51.0293 47.7 51.8558 47.1C51.956 47.04 52.0562 46.95 52.1313 46.86C52.2565 46.68 52.2065 46.44 52.2565 46.2C52.2816 45.96 52.3567 45.75 52.482 45.57C52.507 45.54 52.6322 45.39 52.6322 45.39L52.7074 45.33C52.7324 45.33 52.8827 45.21 52.8076 45.27C52.9077 45.21 53.0079 45.18 53.1081 45.15C53.2083 45.12 53.1582 45.12 53.1332 45.15L53.3586 45.06C53.6591 44.97 53.9597 44.85 54.2352 44.73C55.0116 44.43 55.7379 44.04 56.4392 43.53C56.6396 43.38 56.6145 43.2 56.3891 43.11C56.0134 43.08 55.6878 43.14 55.4374 43.32Z" fill="#707070"/>
  <path d="M45.5443 42.09C45.5443 42.09 43.2401 43.74 42.4386 42.27C41.6372 40.8 43.3403 40.62 43.3403 40.62C43.3403 40.62 40.6854 37.95 43.0898 36.45C43.0898 36.45 40.3598 34.68 41.4869 31.74C42.6139 28.8 46.2957 29.19 46.2957 29.19C46.2957 29.19 45.3439 25.62 48.0489 25.17C50.7539 24.72 50.6537 27.12 50.6537 27.12C50.6537 27.12 52.3818 26.82 52.7325 28.05C53.0831 29.28 51.9561 30.21 51.9561 30.21C51.9561 30.21 52.3317 33.93 49.9524 34.2L48.8253 39.42C49.5266 40.32 49.8021 41.55 49.5516 42.75C49.0758 44.67 45.9951 44.43 45.5443 42.09Z" fill="#707070"/>
  <path d="M45.2188 41.5801C45.1437 41.6401 45.0686 41.7001 44.9684 41.7301C44.8431 41.8201 45.1186 41.6701 44.9684 41.7301L44.8181 41.7901C44.6929 41.8501 44.5927 41.9101 44.4675 41.9701C44.242 42.0901 44.0166 42.1501 43.7912 42.1801C43.691 42.2101 43.5908 42.2101 43.4656 42.2101C43.3654 42.2101 43.2653 42.1801 43.1651 42.1201C43.2152 42.1501 43.0899 42.0601 43.0899 42.0601C43.0649 42.0301 43.0398 42.0001 43.0148 41.9701C42.9397 41.8501 42.8645 41.7001 42.8395 41.5501C42.8395 41.5201 42.8395 41.4601 42.8395 41.4301C42.8395 41.5501 42.8395 41.4001 42.8645 41.3701C42.7643 41.4901 42.9146 41.2801 42.8395 41.4601C42.8645 41.4001 42.9146 41.3701 42.8395 41.4301C42.8645 41.4001 42.9146 41.3701 42.9397 41.3401C43.0398 41.2501 42.8144 41.3701 42.9647 41.3401C43.0148 41.3101 43.2903 41.2201 43.0899 41.2801C43.1651 41.2501 43.2653 41.2501 43.3654 41.2201C43.8413 41.1601 44.1669 40.5001 43.7662 40.0801L43.666 39.9901C43.7662 40.0801 43.691 40.0201 43.6409 39.9601L43.5157 39.8101C43.2903 39.5401 43.0899 39.2101 42.9146 38.8801C42.8395 38.7001 42.7643 38.5201 42.7393 38.3401C42.7142 38.1901 42.6892 38.0101 42.7142 37.8601C42.7393 37.7101 42.7894 37.5901 42.8645 37.4701C43.0148 37.2601 43.2152 37.0801 43.4406 36.9601C43.7161 36.7801 43.8664 36.1801 43.5408 35.9401C42.6391 35.3401 41.7875 34.2301 41.8627 32.8801C41.9378 31.9501 42.3886 31.1101 43.0649 30.6001C43.14 30.5401 43.2402 30.4801 43.3153 30.4201C43.3153 30.4201 43.4155 30.3601 43.3404 30.3901L43.4656 30.3301C43.666 30.2401 43.8413 30.1501 44.0417 30.0901C44.1669 30.0301 44.3172 30.0001 44.4424 29.9701C44.6177 29.9401 44.7931 29.9101 44.9934 29.8801C45.1938 29.8501 45.3441 29.8501 45.4943 29.8201H45.7197C45.845 29.8201 45.5945 29.8201 45.7949 29.8201C45.9201 29.8201 46.0453 29.8201 46.1706 29.8501C46.5713 29.8801 47.0472 29.4901 46.8969 28.9501C46.8719 28.8601 46.8468 28.7701 46.8468 28.6801L46.8218 28.5601C46.8468 28.7401 46.8218 28.5601 46.8218 28.5301C46.7967 28.4101 46.7967 28.2901 46.7967 28.1401C46.7967 27.9901 46.7967 27.8401 46.7967 27.7201C46.7967 27.6601 46.7967 27.5701 46.7967 27.4801C46.7967 27.3901 46.7967 27.3901 46.7967 27.3601C46.7967 27.3901 46.7967 27.4201 46.7967 27.3601C46.8218 27.2101 46.8468 27.0301 46.8969 26.8801C46.9219 26.7601 46.972 26.6101 47.0472 26.5201C47.0973 26.4001 47.1724 26.3101 47.2475 26.2501C47.2726 26.2201 47.3227 26.1601 47.2475 26.2501C47.2726 26.2201 47.2976 26.1901 47.3477 26.1601L47.4479 26.0701C47.5481 26.0101 47.4229 26.0701 47.498 26.0401C47.8486 25.8601 48.2243 25.7701 48.6251 25.8001C48.8004 25.8001 49.0008 25.8301 49.1761 25.8601L49.3264 25.9201L49.4265 25.9801C49.5267 26.0101 49.4265 25.9801 49.4766 26.0101C49.5267 26.0401 49.5768 26.1001 49.6519 26.1301C49.677 26.1601 49.7772 26.2801 49.702 26.1901C49.7772 26.2801 49.8523 26.4001 49.9275 26.5201C49.9775 26.6101 49.8774 26.4001 49.9275 26.4901C49.9525 26.5201 49.9525 26.5501 49.9775 26.5801C50.0026 26.6401 50.0276 26.7001 50.0276 26.7601C50.0276 26.8201 50.0527 26.8801 50.0527 26.9401C50.1028 27.0901 50.0527 26.8501 50.0527 26.9701C50.0527 27.0601 50.0777 27.1801 50.0777 27.2701C50.0527 27.6601 50.4284 27.8701 50.7039 27.8101L50.8792 27.7801H51.0545C50.9794 27.7801 51.2048 27.7801 51.0545 27.7801H51.1797L51.4302 27.8101C51.5053 27.8101 51.5554 27.8401 51.6306 27.8701C51.7057 27.9001 51.8059 27.9301 51.881 27.9901C51.8059 27.9601 52.0313 28.1401 51.9812 28.0801C52.2066 28.4101 52.2317 28.8601 52.0313 29.2201C51.9562 29.4001 51.8309 29.5501 51.7308 29.6701L51.6055 29.7001C51.5554 29.7601 51.7308 29.5801 51.6306 29.6701L51.5805 29.7301C51.4052 29.8501 51.2799 30.0901 51.305 30.3301C51.33 30.5101 51.33 30.6901 51.33 30.8401C51.33 31.2001 51.305 31.5601 51.2298 31.9201C51.2048 32.0101 51.1797 32.1301 51.1547 32.2201C51.1297 32.2801 51.1297 32.3401 51.1046 32.4001C51.1046 32.4001 51.0295 32.5801 51.0796 32.4901C51.0545 32.5801 51.0044 32.7001 50.9543 32.7901C50.9293 32.8501 50.9042 32.9101 50.8542 32.9701C50.779 33.0901 50.9042 32.9101 50.8041 33.0301C50.754 33.1201 50.6788 33.1801 50.6037 33.2701C50.7039 33.1801 50.5536 33.3001 50.5536 33.3301L50.4284 33.4201C50.3783 33.4501 50.4785 33.3901 50.3783 33.4501C50.3282 33.4801 50.253 33.5101 50.203 33.5401C50.1028 33.5701 49.9775 33.6001 49.8774 33.6001C49.6019 33.6301 49.3764 33.8401 49.3013 34.1701L48.2744 39.0601C48.2243 39.3601 48.1242 39.6001 48.2995 39.8701C48.5249 40.1701 48.7002 40.5301 48.8254 40.8901C48.9256 41.1901 48.9757 41.5201 49.0008 41.8501C49.0008 42.0301 49.0008 42.1801 48.9757 42.3301C48.9507 42.4501 48.9256 42.5701 48.9006 42.6901C48.9006 42.6901 48.8505 42.9001 48.8755 42.7801C48.8505 42.8401 48.8254 42.9001 48.8004 42.9601C48.8004 42.9901 48.7002 43.1401 48.7753 43.0201C48.7503 43.0501 48.575 43.2601 48.6752 43.1701L48.5499 43.2901C48.3997 43.4101 48.6752 43.2301 48.4998 43.3201L48.3496 43.3801C48.3245 43.3801 48.1492 43.4401 48.2995 43.4101C47.8486 43.5301 47.3728 43.4701 46.972 43.2001C46.5713 42.9301 46.2708 42.4501 46.1706 41.9101C46.0203 41.1301 44.8181 41.6101 44.9934 42.4201C45.319 44.0701 46.8218 44.9101 48.1492 44.7301C48.8254 44.6401 49.4516 44.2501 49.8774 43.5901C50.3532 42.8101 50.3532 41.6701 50.1529 40.7401C50.0026 40.1101 49.7521 39.5401 49.3764 39.0601L49.4516 39.5401L50.5786 34.3201L50.0026 34.8601C51.1797 34.7401 52.1565 33.7201 52.4571 32.3401C52.6324 31.6201 52.6825 30.9001 52.6074 30.1501L52.3068 30.7501C53.1584 30.0301 53.8847 28.5301 53.1584 27.3601C52.6074 26.5201 51.5304 26.4001 50.7039 26.5501L51.33 27.0901C51.3801 25.6801 50.3532 24.7201 49.2512 24.5701C48.2494 24.4501 47.0722 24.6901 46.3459 25.5601C45.845 26.1901 45.5695 27.0601 45.5945 27.9301C45.5945 28.4701 45.6446 28.9801 45.7698 29.4901L46.4962 28.5901C45.1437 28.4401 43.7912 28.7701 42.589 29.5501C41.6874 30.1501 41.0111 31.1701 40.7607 32.3701C40.5353 33.5101 40.7857 34.7101 41.4119 35.6101C41.7875 36.1501 42.2133 36.6301 42.7393 36.9901L42.8395 35.9701C42.2634 36.3001 41.8126 36.8701 41.6122 37.5901C41.487 38.1601 41.5371 38.7301 41.7625 39.2401C42.063 39.9601 42.4638 40.5901 42.9897 41.1301L43.3905 39.9901C42.564 40.0801 41.512 40.7401 41.6874 41.9101C41.8126 42.7201 42.3636 43.3201 43.0398 43.4701C43.6409 43.5601 44.242 43.5001 44.7931 43.2301C45.1938 43.0801 45.5695 42.8701 45.9201 42.6001C46.1706 42.4501 46.2708 42.0601 46.1455 41.7301L46.1205 41.7001C45.845 41.4001 45.4943 41.3701 45.2188 41.5801Z" fill="#707070"/>
  <path d="M50.4534 34.71C50.4534 34.71 49.5267 32.4 48.1742 33.39C46.8217 34.38 47.5981 40.05 50.1528 38.97" fill="#F5F5F5"/>
  <path d="M50.9544 34.9801C50.6037 34.2001 50.1028 33.5401 49.4516 33.0901C49.0258 32.7901 48.5249 32.5501 48.024 32.7601C47.7234 32.8801 47.4479 33.1201 47.2977 33.4501C46.9721 34.1401 46.9721 35.0401 47.0472 35.7901C47.1223 36.6901 47.4479 37.5301 47.9238 38.2201C48.6 39.1201 49.6269 39.7801 50.6288 39.3901C50.8041 39.3301 50.4284 38.9401 50.3783 38.9101C50.228 38.7901 49.8774 38.4301 49.677 38.5201C49.4015 38.6401 49.0759 38.6701 48.7754 38.6101C48.8755 38.6401 48.575 38.5501 48.7503 38.6101C48.6752 38.5801 48.7002 38.5501 48.7253 38.5801L48.7503 38.6101C48.7002 38.5801 48.7002 38.5801 48.8004 38.6401C48.7002 38.5501 48.9256 38.7601 48.8255 38.6401C48.7253 38.5201 48.9006 38.7301 48.8505 38.6701C48.7754 38.5801 48.8255 38.6401 48.8505 38.6701C48.8255 38.6401 48.7754 38.5801 48.7503 38.5501C48.7253 38.5201 48.7253 38.5201 48.7503 38.5501L48.6752 38.4301C48.6501 38.3701 48.6 38.3101 48.575 38.2201C48.4999 38.0701 48.4247 37.8901 48.3746 37.7401C48.2494 37.3801 48.1743 37.0201 48.1242 36.6601C47.9989 35.9701 48.049 35.2501 48.2244 34.5901C48.3997 33.9601 48.8755 33.4201 49.4766 33.5701C49.5518 33.6001 49.5518 33.6001 49.5017 33.5701C49.6269 33.6601 49.4015 33.5101 49.4015 33.5101C49.4015 33.5101 49.5267 33.6301 49.4266 33.5401C49.4266 33.5401 49.5518 33.6601 49.4516 33.5701C49.4766 33.6001 49.5267 33.6601 49.5518 33.6901C49.6019 33.7501 49.6269 33.8101 49.677 33.8701C49.7772 34.0501 49.8774 34.2301 49.9525 34.4101C50.1278 34.6801 50.3533 34.9201 50.6288 35.0401C50.779 35.1301 51.0796 35.2801 50.9544 34.9801Z" fill="#707070"/>
  <path d="M53.534 33.9302C53.559 33.9602 53.5841 34.0202 53.6342 34.0802C53.6592 34.1102 53.6342 34.0502 53.6342 34.0502C53.6342 34.0202 53.6091 33.9902 53.6091 33.9902C53.6091 33.9302 53.6091 33.8702 53.6091 33.8102V33.8402C53.6091 33.7502 53.6592 33.6302 53.7344 33.5702C53.8095 33.5402 53.9097 33.5102 53.9848 33.5102H53.9598C54.06 33.5102 54.1852 33.5402 54.2603 33.6002C54.3104 33.6302 54.3355 33.6602 54.3856 33.6902C54.3605 33.6602 54.4106 33.7202 54.3856 33.6902C54.3605 33.6602 54.3104 33.6002 54.2854 33.5402L54.2603 33.5102L54.2353 33.4802C54.3104 33.6302 54.4106 33.7802 54.5108 33.9002L54.5859 33.9602C54.5859 33.9602 54.5609 33.8702 54.5609 33.8402C54.4607 33.6602 54.3605 33.4802 54.2102 33.3302C54.1351 33.2402 54.06 33.1502 53.9598 33.0902C53.8345 33.0002 53.6592 32.9402 53.5089 32.9402C53.4338 32.9402 53.3336 32.9402 53.2835 33.0002C53.2334 33.0602 53.1833 33.1502 53.1833 33.2402C53.1833 33.5402 53.3086 33.8102 53.4839 34.0202C53.534 34.0802 53.5841 34.1402 53.6342 34.2002C53.6342 34.2002 53.6843 34.2602 53.7093 34.2602C53.7344 34.2602 53.559 33.9602 53.534 33.9302Z" fill="#707070"/>
  <path d="M46.7715 65.55C46.7715 65.55 54.7611 50.7 62.901 51.51C71.0409 52.32 68.9621 71.04 68.9621 71.04C68.9621 71.04 56.7648 72.87 46.7715 65.55Z" fill="#707070"/>
  <path d="M47.2974 65.94C48.3994 63.96 49.6267 62.07 50.9792 60.3C53.3335 57.18 56.1637 54.09 59.5449 52.68C60.3463 52.35 61.1728 52.14 62.0244 52.08C62.4001 52.05 62.7758 52.08 63.1515 52.14C63.3268 52.17 63.4771 52.2 63.6524 52.23C63.6774 52.23 63.8027 52.26 63.6774 52.23L63.7776 52.26L64.0281 52.35C64.1783 52.41 64.3286 52.47 64.4789 52.56L64.6793 52.68C64.529 52.59 64.7544 52.74 64.8045 52.77C64.9297 52.86 65.055 52.95 65.1802 53.04C65.2553 53.1 65.3054 53.16 65.3805 53.22C65.4557 53.28 65.606 53.43 65.4807 53.31C65.7312 53.55 65.9566 53.82 66.157 54.12L66.2822 54.3C66.3072 54.33 66.4575 54.57 66.3824 54.45C66.4826 54.6 66.5827 54.75 66.6579 54.93C67.3592 56.31 67.835 57.81 68.0855 59.4C68.361 61.02 68.5363 62.67 68.5864 64.32C68.6365 65.73 68.6115 67.17 68.5363 68.58C68.5113 69.33 68.4111 70.08 68.386 70.83C68.386 70.86 68.386 70.89 68.386 70.95L68.8619 70.38C68.4361 70.44 68.0354 70.47 67.6096 70.5C66.4575 70.59 65.4306 70.59 64.3286 70.56C60.7471 70.47 57.2156 69.81 53.7843 68.55C51.455 67.71 49.226 66.51 47.1472 65.04C46.8716 64.8 46.521 64.86 46.2956 65.16C46.1203 65.46 46.1954 65.85 46.4459 66.06L46.4709 66.09C50.1527 68.79 54.3103 70.44 58.5681 71.28C61.4984 71.85 64.4789 72.06 67.4593 71.88C68.0104 71.85 68.5614 71.82 69.0873 71.73C69.3378 71.7 69.5382 71.46 69.5632 71.16C69.7636 69.27 69.8387 67.38 69.7886 65.49C69.7385 62.07 69.438 58.38 68.0855 55.29C67.4593 53.85 66.5577 52.53 65.3304 51.75C63.8778 50.82 62.1747 50.67 60.5467 51.03C56.7898 51.87 53.609 54.96 50.9792 58.17C49.226 60.27 47.6481 62.58 46.2956 65.07L46.2205 65.19C45.8448 65.88 46.9217 66.63 47.2974 65.94Z" fill="#707070"/>
  <path d="M60.8222 61.0802L58.7684 69.7502L58.4929 70.9502C58.4429 71.1902 58.9187 71.0402 58.9939 71.0102C59.1692 70.9502 59.595 70.8002 59.6701 70.5302L61.7239 61.8602L61.9994 60.6602C62.0495 60.4202 61.5736 60.5702 61.4984 60.6002C61.2981 60.6602 60.8473 60.8102 60.8222 61.0802Z" fill="#F5F5F5"/>
  <path d="M34.524 30.1501L33.8478 17.1301C33.5973 14.5801 32.871 10.8901 33.5473 7.95009C34.1984 5.10009 35.2003 8.76009 35.2003 8.76009C35.2003 8.76009 34.7995 5.19009 35.7262 4.89009C36.6529 4.59009 37.2791 9.09009 37.2791 9.09009C37.2791 9.09009 37.3292 5.49009 38.3561 5.61009C39.2828 5.73009 39.0073 12.9001 39.0073 12.9001C39.0073 12.9001 40.0341 11.4901 41.2614 11.5501C42.4886 11.6101 41.6872 13.1701 40.8857 14.1301C40.0842 15.0901 39.5833 16.3201 39.3329 17.8501L39.984 24.9901C40.2595 28.0501 40.9608 31.0501 42.0378 33.8701L45.4691 42.7201L42.0879 51.1501C42.0879 51.1501 41.4367 50.1901 38.857 44.7001C37.3793 41.5201 34.7995 36.6901 34.524 30.1501Z" fill="#F5F5F5"/>
  <path d="M34.975 30.1201L34.5492 21.6001L34.3238 17.4001C34.2988 16.7401 34.1986 16.1101 34.1235 15.4501C33.873 13.8001 33.7478 12.1501 33.7478 10.5001C33.7478 9.60015 33.848 8.70015 34.0483 7.83015C34.0984 7.53015 34.1986 7.26015 34.3489 7.02015C34.6244 6.69015 34.2237 7.38015 33.8229 6.96015C33.873 6.99015 33.9231 7.02015 33.9732 7.08015C34.3739 7.47015 34.5743 8.22015 34.7246 8.79015C34.7747 8.97015 35.6763 8.85015 35.6513 8.73015C35.6012 8.28015 35.5761 7.83015 35.5761 7.38015C35.5511 6.72015 35.5511 5.91015 35.8015 5.31015C35.8516 5.19015 35.9268 5.10015 36.0019 5.01015C36.077 4.89015 36.4277 4.92015 35.7765 4.98015C35.2004 5.01015 35.4759 4.95015 35.5761 5.07015C35.7515 5.25015 35.8767 5.49015 35.9769 5.73015C36.2273 6.39015 36.4277 7.05015 36.5529 7.77015C36.6531 8.25015 36.7282 8.70015 36.8034 9.18015C36.8284 9.36015 37.7301 9.27015 37.7301 9.12015C37.7301 8.46015 37.8052 7.80015 37.9054 7.14015C37.9555 6.72015 38.1058 6.30015 38.3061 5.94015C38.3562 5.88015 38.4063 5.85015 38.4564 5.79015L38.4815 5.76015C38.6818 5.67015 38.5065 5.67015 37.9555 5.76015C38.0306 5.82015 38.0807 5.91015 38.1308 6.00015C38.4314 6.66015 38.4314 7.56015 38.4815 8.28015C38.5315 9.27015 38.5566 10.2601 38.5315 11.2201C38.5315 11.8201 38.5065 12.3901 38.5065 12.9901C38.5065 13.1401 39.3581 13.0801 39.4332 12.9601C39.7337 12.6001 40.0593 12.2702 40.435 12.0302C40.6104 11.8802 40.8358 11.7902 41.0361 11.7302C41.4118 11.7602 41.4369 12.2701 41.3367 12.6001C41.1614 13.1101 40.9109 13.5901 40.5853 13.9802C40.2347 14.4002 39.9341 14.8501 39.6586 15.3601C39.3831 15.9301 39.1577 16.5601 39.0074 17.1901C38.9323 17.4601 38.8822 17.7601 38.8571 18.0301C38.8571 18.2401 38.8822 18.4501 38.9072 18.6301L39.333 23.2801C39.4582 24.8701 39.6336 26.4301 39.884 27.9901C40.2848 30.1501 40.8859 32.2801 41.6873 34.2901L43.1149 37.9801L44.6678 42.0301L44.8932 42.6001C44.9182 42.6601 44.9683 42.7501 44.9683 42.8101C44.9683 42.9901 44.768 43.3501 44.6928 43.5001L41.6873 51.0301L41.6122 51.2102L42.5389 51.1201L42.4387 50.9701C42.3135 50.7601 42.2133 50.5501 42.0881 50.3401C41.487 49.2601 40.961 48.1202 40.41 47.0102C38.9072 43.8902 37.2793 40.7401 36.2273 37.3501C35.526 35.0101 35.1003 32.5801 34.975 30.1201C34.975 29.9701 34.0233 30.0301 34.0233 30.1801C34.1986 34.3202 35.3758 38.2201 37.0037 41.8501C38.2811 44.6701 39.6085 47.4901 41.0361 50.1901C41.2115 50.5501 41.4118 50.8801 41.6122 51.2102C41.7124 51.3601 42.4637 51.3001 42.5389 51.1201L45.3941 43.9201L45.6947 43.2001C45.7698 43.0801 45.8199 42.9301 45.87 42.7801C45.895 42.6001 45.7948 42.4501 45.7448 42.3001L44.242 38.4301C42.9897 35.1901 41.6122 31.9801 40.9109 28.4701C40.6104 26.7901 40.3849 25.0801 40.2597 23.3401L39.8339 18.5701C39.8089 18.3601 39.7838 18.1501 39.7838 17.9701C39.8089 17.6101 39.859 17.2801 39.9592 16.9501C40.1345 16.2601 40.3849 15.6301 40.7105 15.0301C41.0111 14.4901 41.4118 14.1001 41.7374 13.5901C42.063 13.0801 42.7643 11.8201 41.8376 11.5501C40.8608 11.2501 39.7588 11.6701 39.0074 12.3901C38.8321 12.5401 38.6568 12.7502 38.5065 12.9302L39.4332 12.9001C39.5083 11.2201 39.4833 9.57015 39.3831 7.89015C39.3581 7.41015 39.308 6.93015 39.2078 6.48015C39.1827 6.18015 39.0575 5.88015 38.9072 5.67015C38.6568 5.40015 38.0807 5.49015 37.7802 5.61015C37.4546 5.76015 37.2041 6.09015 37.1039 6.48015C36.8535 7.35015 36.7533 8.25015 36.7533 9.15015L37.68 9.09015C37.5047 7.86015 37.3043 6.48015 36.7533 5.40015C36.6531 5.16015 36.4778 4.95015 36.2524 4.83015C35.9017 4.71015 35.501 4.74015 35.1754 4.89015C34.6244 5.16015 34.5993 6.18015 34.5743 6.78015C34.5493 7.44015 34.5743 8.13015 34.6494 8.79015L35.5761 8.73015C35.4509 8.16015 35.2255 7.62015 34.9249 7.14015C34.6745 6.75015 34.3238 6.75015 33.9231 6.78015C33.5725 6.78015 33.2469 7.08015 33.1467 7.47015C32.5957 9.00015 32.6708 10.8601 32.796 12.4501C32.9213 14.0401 33.1968 15.5701 33.322 17.1301C33.3971 18.2101 33.4222 19.2901 33.4973 20.3401L33.7979 26.3101L33.9982 30.1501C34.0483 30.3301 35.0001 30.2701 34.975 30.1201Z" fill="#707070"/>
  <path d="M37.9555 11.5802C37.9555 11.3702 37.9304 11.1602 37.9304 10.9502C37.8553 10.1702 37.7802 9.39018 37.68 8.64018C37.68 8.61018 37.5798 8.55018 37.5547 8.55018C37.4546 8.49018 37.3544 8.43018 37.2542 8.40018C37.154 8.34018 37.0538 8.31018 36.9286 8.28018C36.9035 8.28018 36.7783 8.25018 36.7783 8.28018C36.8785 9.06018 36.9787 9.81018 37.0288 10.5902C37.0538 10.8002 37.0538 11.0102 37.0789 11.1902C37.0789 11.2202 37.1791 11.2802 37.2041 11.2802C37.3043 11.3402 37.4045 11.4002 37.5046 11.4302C37.6549 11.5202 37.8052 11.5502 37.9555 11.5802Z" fill="#707070"/>
  <path d="M34.975 8.46017C35.1504 9.42017 35.3257 10.4102 35.4259 11.3702C35.4509 11.5502 35.526 11.7002 35.6513 11.8202C35.7765 11.8802 35.8016 11.7002 35.7765 11.6102C35.6513 10.6202 35.501 9.66017 35.3257 8.67017C35.3006 8.49017 35.2255 8.34017 35.1003 8.22017C34.975 8.16017 34.95 8.34017 34.975 8.46017Z" fill="#707070"/>
  <path d="M38.206 14.8202L38.231 14.7902V14.7602C38.2561 14.7002 38.1559 14.9102 38.206 14.8202C38.231 14.7602 38.231 14.7302 38.2811 14.7002C38.3563 14.5502 38.4564 14.4002 38.5316 14.2502C38.6067 14.1002 38.757 13.8902 38.8822 13.7102C38.9574 13.6202 39.0075 13.5302 39.0826 13.4402C39.1076 13.4102 39.1327 13.3802 39.1327 13.3502C39.1327 13.3202 39.2078 13.2602 39.1577 13.3202L39.1828 13.2902C39.2078 13.2602 39.2329 13.2302 39.2579 13.2302C39.333 13.1402 39.4082 13.0202 39.4332 12.9002C39.4583 12.7802 39.4082 12.6602 39.333 12.5702C39.1327 12.3902 38.8822 12.4202 38.7069 12.6002C38.3813 12.9602 38.0808 13.3802 37.8053 13.8002C37.6299 14.0402 37.4797 14.3102 37.3544 14.6102C37.2793 14.8202 37.3544 15.0602 37.5047 15.1502C37.5297 15.1802 37.5548 15.1802 37.6049 15.1802C37.8303 15.2102 38.0808 15.0602 38.206 14.8202Z" fill="#707070"/>
  <path d="M42.038 54.6601L37.104 43.4701L44.4925 36.3901L47.9238 46.7401" fill="#F5F5F5"/>
  <path d="M42.3886 54.9902L38.0807 45.2102L37.4546 43.8302L37.5046 44.0702L43.9665 37.8902L44.8681 37.0202L44.0416 36.0302L47.0471 45.0902L47.4729 46.3802C47.5981 46.6802 47.7735 46.9802 47.9989 47.1902C48.049 47.2502 48.3746 47.5202 48.2744 47.2502L45.2689 38.1602L44.8431 36.8702C44.793 36.6902 44.1919 35.7002 44.0166 35.8802L37.5547 42.0602L36.628 42.9302C36.5779 42.9602 36.6781 43.1402 36.6781 43.1702L40.986 52.9502L41.6122 54.3602C41.7624 54.6602 41.9628 54.9602 42.2133 55.1402C42.4387 55.2602 42.5138 55.2302 42.3886 54.9902Z" fill="#707070"/>
  <path d="M7.19919 41.7001C6.27249 39.0001 5.32075 36.1801 5.19552 33.2401C5.12038 31.8301 5.2957 30.3901 5.72148 29.0701C6.14726 27.8101 6.74836 26.6401 7.47469 25.5901C10.1546 21.6001 14.1118 19.1401 18.1442 17.7001C22.2768 16.2601 26.5847 15.6001 30.8675 15.8101C35.1754 15.9601 39.4583 16.8901 43.5658 18.5401C47.6483 20.1901 51.5304 22.5601 55.0118 25.5901C55.4375 25.9501 55.8383 26.3401 56.264 26.7301C56.4895 26.9401 56.8401 27.1201 57.1156 26.8501C57.316 26.6101 57.316 26.2201 57.1156 26.0101C57.0906 25.9801 57.0906 25.9801 57.0655 25.9501C53.509 22.5901 49.5518 19.9201 45.319 18.0001C41.1113 16.1101 36.7032 14.9401 32.22 14.6101C27.7368 14.2501 23.2285 14.7301 18.8706 16.0501C14.6378 17.3701 10.4301 19.6501 7.37451 23.5201C5.74653 25.5901 4.39405 28.0501 4.0935 30.9301C3.76791 33.9901 4.51928 37.0201 5.42093 39.8401C5.64635 40.5301 5.87176 41.2201 6.12222 41.9101C6.24745 42.2701 6.548 42.4801 6.87359 42.4501C7.12405 42.4201 7.29937 42.1801 7.27433 41.8801C7.22424 41.7901 7.19919 41.7601 7.19919 41.7001Z" fill="#5B913B"/>
  <path d="M60.5468 11.7901C64.1284 10.8001 67.8351 10.8301 71.3917 11.8501C74.9482 12.8401 78.2542 14.8201 81.0343 17.6401C82.3117 18.9601 83.6641 20.5801 84.0649 22.6201C84.2151 23.3701 84.165 24.3901 83.589 24.8701C83.1883 25.1401 82.6873 25.1401 82.3117 24.8701C82.2115 24.8101 82.0862 24.7201 82.0111 24.6301C81.936 24.5401 81.8608 24.4501 81.7857 24.3301C81.6605 24.0601 81.5853 23.7301 81.5352 23.4301C81.3599 22.1101 81.7857 20.8201 82.6623 20.0101C83.9396 18.7201 85.793 18.4501 87.421 18.8101C90.4766 19.5301 93.0062 22.7101 93.3068 26.4901C93.3318 26.9701 93.3569 27.4501 93.3068 27.9001C93.2817 28.2301 93.5572 28.5901 93.7326 28.8001C93.8578 28.9201 94.1082 29.1001 94.1333 28.7701C94.3838 24.3001 91.779 19.8301 88.3978 18.0901C86.7197 17.2201 84.7411 17.0701 83.038 17.9701C82.2115 18.3901 81.5102 19.1101 81.0594 20.0401C80.6837 20.9101 80.5584 21.9001 80.7338 22.8301C80.884 23.8801 81.3349 24.8401 82.0111 25.5601C82.6372 26.2201 83.7142 26.7601 84.4405 26.0101C85.0417 25.3801 85.0416 24.2401 84.8914 23.3701C84.6409 22.1401 84.165 20.9701 83.5389 19.9501C82.3117 17.9101 80.6336 16.2301 78.9054 14.8501C73.771 10.7101 67.5095 9.06011 61.3984 10.2301C60.8974 10.3201 60.4216 10.4401 59.9457 10.5901C59.57 10.6501 60.1962 11.9101 60.5468 11.7901Z" fill="#5B913B"/>
  <path d="M12.8345 13.8301C13.8363 11.3401 15.2389 9.12007 16.942 7.26007C18.6701 5.43007 20.8241 3.75007 23.1534 3.27007C24.2303 3.03007 25.4576 3.03007 26.4594 3.66007C27.2859 4.17007 27.887 5.19007 27.7368 6.36007C27.6867 6.75007 27.5113 7.26007 27.1857 7.41007C27.1607 7.41007 27.2609 7.47007 27.1857 7.41007C27.1357 7.38007 27.1106 7.32007 27.0856 7.26007C27.0104 7.05007 26.9603 6.78007 26.9854 6.54007C27.0104 5.43007 27.5865 4.20007 28.2126 3.39007C28.989 2.34007 30.066 1.68007 31.2181 1.53007C32.4704 1.38007 33.7227 1.77007 34.7246 2.67007C35.2505 3.12007 36.2023 2.19007 35.5761 1.68007C33.2468 -0.299932 30.0911 -0.149932 27.887 2.01007C26.8852 3.00007 26.1839 4.35007 25.8583 5.85007C25.683 6.48007 25.708 7.17007 25.9084 7.80007C26.259 8.64007 27.0355 8.79007 27.7117 8.40007C28.8137 7.74007 29.1894 6.06007 28.8388 4.71007C28.438 3.18007 27.1857 2.37007 25.9585 2.04007C23.0532 1.26007 19.9976 3.00007 17.6934 4.98007C15.1888 7.14007 13.1601 10.0201 11.8076 13.3501C11.4319 14.2201 12.559 14.5201 12.8345 13.8301Z" fill="#5B913B"/>
</svg>